<?xml version="1.0" encoding="utf-8"?>
<!-- Generator: Adobe Illustrator 28.1.0, SVG Export Plug-In . SVG Version: 6.00 Build 0)  -->
<svg version="1.1" id="Layer_1" xmlns="http://www.w3.org/2000/svg" xmlns:xlink="http://www.w3.org/1999/xlink" x="0px" y="0px"
	 viewBox="0 0 103.4 117.7" style="enable-background:new 0 0 103.4 117.7;" xml:space="preserve">
<style type="text/css">
	.st0{fill:url(#SVGID_1_);}
	.st1{fill:url(#SVGID_00000040537019723298456450000008124508767215717251_);}
	.st2{fill:#FD9426;}
	.st3{fill:#E3F4FF;}
	.st4{fill:#BDDFF4;}
	.st5{fill:#848484;}
	.st6{fill:#606060;}
	.st7{fill:#FFFFFF;}
	.st8{fill:#EF7222;}
	.st9{fill:url(#SVGID_00000103259087608911307220000007928150808775886734_);}
	.st10{fill:url(#SVGID_00000029042721835771355930000001629628398941845417_);}
</style>
<linearGradient id="SVGID_1_" gradientUnits="userSpaceOnUse" x1="-1683.2321" y1="-829.3251" x2="-1699.5261" y2="-779.1772" gradientTransform="matrix(-1 0 0 -1 -1609.6448 -751.874)">
	<stop  offset="0" style="stop-color:#FAEF59"/>
	<stop  offset="0.6732" style="stop-color:#EF7222"/>
	<stop  offset="1" style="stop-color:#D11E4B"/>
</linearGradient>
<path class="st0" d="M101.1,45.9c-0.2-1.2-0.4-2.4-0.9-3.6c-0.8-2.2-2-4.5-3.4-6.4c-1.5-2-3-3.8-5-5.5c-1.9-1.7-4.2-3.3-6.8-4.4
	c-1.4-0.7-2.8-1-4.3-1.4c-1.5-0.4-3.1-0.6-4.7-0.6c-2.9-0.1-5.2,2-5.3,4.5c-0.1,2.5,2.2,4.7,5.1,4.7h0.5c0.7,0,1.5,0,2.2,0.1
	c0.8,0.2,1.6,0.3,2.4,0.6c1.6,0.5,3.2,1.4,4.7,2.4c1.5,1.1,2.8,2.4,4.1,3.8c1.3,1.4,2.3,2.9,3,4.4c0.3,0.7,0.7,1.5,0.9,2.3
	c0.1,0.4,0.2,0.8,0.3,1.2s0.1,0.7,0.1,1.1c0,0.4-0.1,0.6-0.1,0.8c-0.3,0-0.6-0.1-0.9-0.3c-0.3-0.1-0.8-0.4-1.2-0.6
	c-0.9-0.5-1.8-1-2.7-1.7c-0.5-0.3-1-0.7-1.5-0.9c-0.5-0.4-1-0.7-1.6-0.9c-1.1-0.6-2.4-1.1-3.7-1.5c-1.3-0.4-2.7-0.6-4.3-0.6
	c-1.5,0-3.1,0.3-4.4,0.9l-0.5,0.3L73,45c-0.1,0.1-0.3,0.1-0.3,0.2c-0.4,0.3-0.8,0.6-1.1,0.9c-0.7,0.7-1.1,1.6-1.1,2.5
	c0,0.8,0.3,1.8,0.8,2.4c0,0,0,0,0,0c0.7-0.2,1.5-0.2,2.3-0.2c1.2,0,2.2,0.2,3.1,0.5c-0.4-0.3-0.7-0.6-1-1c-0.2-0.2-0.3-0.4-0.4-0.6
	c-0.2-0.2-0.3-0.4-0.3-0.5c-0.2-0.2-0.1-0.4-0.1-0.5c0-0.2,0.1-0.2,0.2-0.3c0,0,0.1-0.1,0.2-0.1h0.3l0.3-0.1c1.6-0.6,3.2-0.4,5,0.3
	c0.9,0.4,1.7,0.7,2.6,1.3c0.4,0.3,0.8,0.6,1.2,0.8c0.4,0.3,0.9,0.6,1.3,0.9c0.9,0.7,1.7,1.3,2.8,2.1c0.6,0.4,1.1,0.7,1.8,1
	s1.4,0.7,2.2,0.8c0.3,0.1,0.4,0.2,0.7,0.2c0.2,0,0.4,0.1,0.7,0.1c0.5,0.1,1.1,0.1,1.7,0c0.6,0,1.3-0.2,1.9-0.5
	c0.6-0.3,1.2-0.7,1.6-1c0.9-0.8,1.4-1.8,1.6-2.5s0.4-1.5,0.5-2.2c0.1-0.7,0.1-1.3,0.1-2C101.2,47.2,101.2,46.6,101.1,45.9z"/>
<linearGradient id="SVGID_00000147207285471198941500000002455770244322002596_" gradientUnits="userSpaceOnUse" x1="-1686.4764" y1="-830.3793" x2="-1702.7705" y2="-780.2313" gradientTransform="matrix(-1 0 0 -1 -1609.6448 -751.874)">
	<stop  offset="0" style="stop-color:#FAEF59"/>
	<stop  offset="0.6732" style="stop-color:#EF7222"/>
	<stop  offset="1" style="stop-color:#D11E4B"/>
</linearGradient>
<path style="fill:url(#SVGID_00000147207285471198941500000002455770244322002596_);" d="M85.5,59c-0.1-0.1-0.2-0.3-0.3-0.4L85,58.2
	c-0.2-0.2-0.3-0.5-0.5-0.7c-0.3-0.5-0.8-0.9-1.2-1.3c-0.8-0.8-1.8-1.4-2.7-2.1c1.1,1.5,1.8,3.3,2,5.2c0.1,0.1,0.2,0.2,0.3,0.3
	l0.3,0.3c0.1,0.1,0.1,0.2,0.2,0.3c0.5,0.7,0.8,1.6,0.7,2.2c0,0.1,0,0.2-0.1,0.3s-0.2,0.2-0.4,0.3c-0.4,0.3-0.9,0.5-1.3,0.5
	c-0.2,0.6-0.4,1.1-0.7,1.7c0.4,0,0.7-0.1,1.1-0.1c0.7-0.1,1.3-0.3,1.9-0.6c0.3-0.2,0.7-0.4,1-0.7c0.2-0.2,0.3-0.4,0.4-0.6
	c0.1-0.2,0.2-0.4,0.3-0.6c0.3-0.7,0.2-1.3,0.1-2C86,60.1,85.8,59.5,85.5,59z"/>
<path class="st2" d="M32.4,35c2.1,0,3.8,1.7,3.8,3.8c0,2.1-1.7,3.8-3.8,3.8c-2.1,0-3.8-1.7-3.8-3.8C28.6,36.7,30.3,35,32.4,35z"/>
<path class="st2" d="M15.2,84.5c2.1,0,3.8,1.7,3.8,3.8c0,2.1-1.7,3.8-3.8,3.8c-2.1,0-3.8-1.7-3.8-3.8C11.4,86.2,13.1,84.5,15.2,84.5
	z"/>
<path class="st2" d="M90.6,92.5c1.4,0,2.5,1.1,2.5,2.5c0,1.4-1.1,2.5-2.5,2.5c-1.4,0-2.5-1.1-2.5-2.5C88,93.6,89.1,92.5,90.6,92.5z"
	/>
<g>
	<path class="st3" d="M24,41.7c-0.1,0-17,0-17.5,0c0-4.6,0-18.6,0-23.7h14.1v3.5H24C24,23.5,24,39.5,24,41.7z"/>
	<path class="st4" d="M20.6,18.1c1.1,1.1,2.4,2.4,3.5,3.5h-3.5V18.1z"/>
	<polygon class="st4" points="20.6,41.7 20.6,43.7 4.5,43.7 4.5,20.9 6.5,20.9 6.5,33.9 6.5,38 6.5,41.7 	"/>
	<path class="st2" d="M21,38v-4.1c0-0.1-0.1-0.3-0.3-0.3H6.5c-0.1,0-0.3,0.1-0.3,0.3V38c0,0.1,0.1,0.3,0.3,0.3h14.3
		C20.9,38.2,21.1,38.1,21,38z"/>
	<polygon class="st3" points="17.8,36.5 17.8,36.9 16.4,36.9 16.4,35 16.8,35 16.8,36.5 	"/>
	<polygon class="st3" points="15.8,35 15.8,36.9 15.3,36.9 15.3,35.7 14.9,36.6 14.6,36.6 14.2,35.7 14.2,36.9 13.7,36.9 13.7,35 
		14.2,35 14.8,36 15.3,35 	"/>
	<polygon class="st3" points="13.3,35 13.3,35.4 12.7,35.4 12.7,36.9 12.2,36.9 12.2,35.4 11.6,35.4 11.6,35 	"/>
	<polygon class="st3" points="11.2,35 11.2,36.9 10.7,36.9 10.7,36.1 9.9,36.1 9.9,36.9 9.4,36.9 9.4,35 9.9,35 9.9,35.7 10.7,35.7 
		10.7,35 	"/>
	<path d="M20.6,44H4.5c-0.1,0-0.3-0.1-0.3-0.3V20.9c0-0.1,0.1-0.3,0.3-0.3h2.1c0.1,0,0.3,0.1,0.3,0.3c0,0.1-0.1,0.3-0.3,0.3H4.7
		v22.2h15.5v-1.7c0-0.1,0.1-0.3,0.3-0.3c0.1,0,0.3,0.1,0.3,0.3v2C20.8,43.8,20.7,44,20.6,44z"/>
	<path d="M24,21.8h-3.5c-0.1,0-0.3-0.1-0.3-0.3v-3.5c0-0.1,0.1-0.3,0.3-0.3s0.3,0.1,0.3,0.3v3.2H24c0.1,0,0.3,0.1,0.3,0.3
		C24.3,21.7,24.2,21.8,24,21.8z"/>
	<path d="M24,42H6.5c-0.1,0-0.3-0.1-0.3-0.3V31.3c0-0.1,0.1-0.3,0.3-0.3c0.1,0,0.3,0.1,0.3,0.3v10.2h16.9V21.6
		c-0.5-0.5-1.1-1.1-1.6-1.7c-0.6-0.6-1.1-1.2-1.6-1.7H6.8v15.6c0,0.1-0.1,0.3-0.3,0.3c-0.1,0-0.3-0.1-0.3-0.2V18.1
		c0-0.1,0.1-0.3,0.3-0.3h14.1c0.1,0,0.1,0,0.2,0.1c0.6,0.6,1.1,1.2,1.7,1.8c0.6,0.6,1.2,1.2,1.7,1.7c0,0,0.1,0.1,0.1,0.2v20.2
		C24.3,41.9,24.2,42,24,42z"/>
	<path d="M10,24.7H9.1c-0.1,0-0.3-0.1-0.3-0.3s0.1-0.3,0.3-0.3H10c0.1,0,0.3,0.1,0.3,0.3C10.3,24.6,10.2,24.7,10,24.7z"/>
	<path d="M10,26.1H9.1c-0.1,0-0.3-0.1-0.3-0.3c0-0.1,0.1-0.3,0.3-0.3H10c0.1,0,0.3,0.1,0.3,0.3C10.3,26,10.2,26.1,10,26.1z"/>
	<path d="M10,27.6H9.1c-0.1,0-0.3-0.1-0.3-0.3c0-0.1,0.1-0.3,0.3-0.3H10c0.1,0,0.3,0.1,0.3,0.3C10.3,27.4,10.2,27.6,10,27.6z"/>
	<path d="M10,29H9.1c-0.1,0-0.3-0.1-0.3-0.3s0.1-0.3,0.3-0.3H10c0.1,0,0.3,0.1,0.3,0.3C10.3,28.9,10.2,29,10,29z"/>
	<path d="M10,30.5H9.1c-0.1,0-0.3-0.1-0.3-0.3s0.1-0.3,0.3-0.3H10c0.1,0,0.3,0.1,0.3,0.3C10.3,30.3,10.2,30.5,10,30.5z"/>
	<path d="M10,31.9H9.1c-0.1,0-0.3-0.1-0.3-0.3c0-0.1,0.1-0.3,0.3-0.3H10c0.1,0,0.3,0.1,0.3,0.3C10.2,31.8,10.2,31.9,10,31.9z"/>
	<path d="M12,24.7h-0.9c-0.1,0-0.3-0.1-0.3-0.3s0.1-0.3,0.3-0.3H12c0.1,0,0.3,0.1,0.3,0.3S12.2,24.7,12,24.7z"/>
	<path d="M15.2,24.7h-2.1c-0.1,0-0.3-0.1-0.3-0.3s0.1-0.3,0.3-0.3h2.1c0.1,0,0.3,0.1,0.3,0.3S15.4,24.7,15.2,24.7z"/>
	<path d="M12.3,26.1h-1.2c-0.1,0-0.3-0.1-0.3-0.3c0-0.1,0.1-0.3,0.3-0.3h1.2c0.1,0,0.3,0.1,0.3,0.3C12.6,26,12.5,26.1,12.3,26.1z"/>
	<path d="M16.1,26.1h-2.6c-0.1,0-0.3-0.1-0.3-0.3c0-0.1,0.1-0.3,0.3-0.3h2.6c0.1,0,0.3,0.1,0.3,0.3C16.4,26,16.3,26.1,16.1,26.1z"/>
	<path d="M12.6,27.6h-1.4c-0.1,0-0.3-0.1-0.3-0.3c0-0.1,0.1-0.3,0.3-0.3h1.4c0.1,0,0.3,0.1,0.3,0.3C12.9,27.4,12.8,27.6,12.6,27.6z"
		/>
	<path d="M17.9,27.6h-4.1c-0.1,0-0.3-0.1-0.3-0.3c0-0.1,0.1-0.3,0.3-0.3h4.1c0.1,0,0.3,0.1,0.3,0.3C18.1,27.4,18,27.6,17.9,27.6z"/>
	<path d="M13.8,29h-2.6c-0.1,0-0.3-0.1-0.3-0.3s0.1-0.3,0.3-0.3h2.6c0.1,0,0.3,0.1,0.3,0.3C14.1,28.9,13.9,29,13.8,29z"/>
	<path d="M15.5,29h-0.6c-0.1,0-0.3-0.1-0.3-0.3s0.1-0.3,0.3-0.3h0.6c0.1,0,0.3,0.1,0.3,0.3C15.8,28.9,15.7,29,15.5,29z"/>
	<path d="M17.6,29h-0.9c-0.1,0-0.3-0.1-0.3-0.3s0.1-0.3,0.3-0.3h0.9c0.1,0,0.3,0.1,0.3,0.3C17.9,28.9,17.7,29,17.6,29z"/>
	<path d="M12,30.5h-0.9c-0.1,0-0.3-0.1-0.3-0.3s0.1-0.3,0.3-0.3H12c0.1,0,0.3,0.1,0.3,0.3S12.2,30.5,12,30.5z"/>
	<path d="M15.2,30.5h-2.1c-0.1,0-0.3-0.1-0.3-0.3s0.1-0.3,0.3-0.3h2.1c0.1,0,0.3,0.1,0.3,0.3S15.4,30.5,15.2,30.5z"/>
	<path d="M17.6,30.5h-1.2c-0.1,0-0.3-0.1-0.3-0.3s0.1-0.3,0.3-0.3h1.2c0.1,0,0.3,0.1,0.3,0.3S17.7,30.5,17.6,30.5z"/>
	<path d="M12.3,31.9h-1.2c-0.1,0-0.3-0.1-0.3-0.3c0-0.1,0.1-0.3,0.3-0.3h1.2c0.1,0,0.3,0.1,0.3,0.3C12.6,31.8,12.5,31.9,12.3,31.9z"
		/>
	<path d="M16.1,31.9h-2.6c-0.1,0-0.3-0.1-0.3-0.3c0-0.1,0.1-0.3,0.3-0.3h2.6c0.1,0,0.3,0.1,0.3,0.3C16.4,31.8,16.3,31.9,16.1,31.9z"
		/>
	<path d="M10.9,23c0,0-0.1,0-0.2,0l-1.4-1.2c0,0-0.1-0.1-0.1-0.2c0-0.1,0-0.2,0.1-0.2l1.4-1.2c0.1-0.1,0.3-0.1,0.4,0
		c0.1,0.1,0.1,0.3,0,0.4l-1.2,0.9l1.2,0.9c0.1,0.1,0.1,0.3,0,0.4C11,22.9,10.9,23,10.9,23z"/>
	<path d="M14.4,23c-0.1,0-0.2,0-0.2-0.1c-0.1-0.1-0.1-0.3,0-0.4l1.2-0.9l-1.2-0.9c-0.1-0.1-0.1-0.3,0-0.4c0.1-0.1,0.3-0.1,0.4,0
		l1.4,1.2c0,0,0.1,0.1,0.1,0.2c0,0.1,0,0.2-0.1,0.2l-1.4,1.2C14.5,23,14.4,23,14.4,23z"/>
	<path d="M12,22.7c0,0-0.1,0-0.1,0c-0.1-0.1-0.2-0.3-0.1-0.4l1.2-2c0.1-0.1,0.3-0.2,0.4-0.1c0.1,0.1,0.2,0.3,0.1,0.4l-1.2,2
		C12.2,22.6,12.1,22.7,12,22.7z"/>
</g>
<g>
	<rect x="47" y="101.1" class="st5" width="12.3" height="5.3"/>
	<path class="st5" d="M59.3,101.1h26.1c-1,1.7-2.3,2.9-3.9,3.9c-1.6,1-3.4,1.5-5.4,1.5H59.3V101.1L59.3,101.1z"/>
	<path class="st5" d="M47,101.1v5.3H29.5c-3.8,0-7.4-2.1-9.2-5.3H47z"/>
	<polygon class="st6" points="81.4,90.4 85.4,101.1 59.3,101.1 47,101.1 20.2,101.1 24.1,90.4 	"/>
	<rect x="24.1" y="86" class="st5" width="57.5" height="4.6"/>
	<path d="M81.4,91.2c-0.4,0-0.7-0.4-0.7-0.7V57.1c0-2.9-2.4-5.3-5.4-5.3H30.2c-2.9,0-5.4,2.4-5.4,5.3v33.3c0,0.4-0.4,0.7-0.7,0.7
		c-0.4,0-0.7-0.4-0.7-0.7V57.1c0-3.8,3.1-6.8,6.9-6.8h45.2c3.8,0,6.9,3,6.9,6.8v33.3C82.3,90.8,81.9,91.2,81.4,91.2z"/>
	<path d="M85.4,101.8c-0.4,0-0.6-0.2-0.7-0.5l-3.7-10.1H24.6l-3.7,10.1c-0.1,0.4-0.6,0.6-1,0.5c-0.4-0.1-0.6-0.6-0.5-1l3.8-10.7
		c0.1-0.2,0.4-0.5,0.7-0.5h57.5c0.4,0,0.6,0.2,0.7,0.5l3.8,10.7c0.1,0.4-0.1,0.8-0.5,1H85.4z"/>
	<path d="M76,107.2H29.5c-4,0-7.8-2.2-9.9-5.7c-0.1-0.2-0.1-0.5,0-0.7c0.1-0.2,0.4-0.4,0.6-0.4H47c0.4,0,0.7,0.4,0.7,0.7
		c0,0.4-0.4,0.7-0.7,0.7H21.6c1.8,2.4,4.8,3.8,7.8,3.8H76c1.7,0,3.4-0.5,4.9-1.3c1.1-0.6,2.1-1.5,2.8-2.4H59.3
		c-0.4,0-0.7-0.4-0.7-0.7c0-0.4,0.4-0.7,0.7-0.7h26c0.2,0,0.5,0.1,0.6,0.4c0.1,0.2,0.1,0.5,0,0.7c-1,1.7-2.5,3.2-4.2,4.1
		C80.1,106.5,78.1,107.2,76,107.2z"/>
	<path d="M59.3,107.2c-0.4,0-0.7-0.4-0.7-0.7v-4.6H47.7v4.6c0,0.4-0.4,0.7-0.7,0.7s-0.7-0.4-0.7-0.7v-5.3c0-0.4,0.4-0.7,0.7-0.7
		h12.3c0.4,0,0.7,0.4,0.7,0.7v5.3C60,106.8,59.7,107.2,59.3,107.2z"/>
	<path d="M81.4,86.7H24.1c-0.4,0-0.7-0.4-0.7-0.7c0-0.4,0.4-0.7,0.7-0.7h57.5c0.4,0,0.7,0.4,0.7,0.7C82.3,86.3,81.9,86.7,81.4,86.7z
		"/>
	<g>
		<path class="st7" d="M31.7,95h-1.6c-0.4,0-0.7-0.4-0.7-0.7c0-0.4,0.4-0.7,0.7-0.7h1.6c0.4,0,0.7,0.4,0.7,0.7
			C32.4,94.7,32.2,95,31.7,95z"/>
		<path class="st7" d="M37.8,95h-1.6c-0.4,0-0.7-0.4-0.7-0.7c0-0.4,0.4-0.7,0.7-0.7h1.6c0.4,0,0.7,0.4,0.7,0.7
			C38.5,94.7,38.3,95,37.8,95z"/>
		<path class="st7" d="M43.9,95h-1.6c-0.4,0-0.7-0.4-0.7-0.7c0-0.4,0.4-0.7,0.7-0.7h1.6c0.4,0,0.7,0.4,0.7,0.7
			C44.7,94.7,44.4,95,43.9,95z"/>
		<path class="st7" d="M50.1,95h-1.6c-0.4,0-0.7-0.4-0.7-0.7c0-0.4,0.4-0.7,0.7-0.7h1.6c0.4,0,0.7,0.4,0.7,0.7
			C50.8,94.7,50.5,95,50.1,95z"/>
		<path class="st7" d="M56.2,95h-1.6c-0.4,0-0.7-0.4-0.7-0.7c0-0.4,0.4-0.7,0.7-0.7h1.6c0.4,0,0.7,0.4,0.7,0.7
			C56.9,94.7,56.7,95,56.2,95z"/>
		<path class="st7" d="M62.3,95h-1.6c-0.4,0-0.7-0.4-0.7-0.7c0-0.4,0.4-0.7,0.7-0.7h1.6c0.4,0,0.7,0.4,0.7,0.7
			C63,94.7,62.8,95,62.3,95z"/>
		<path class="st7" d="M68.4,95h-1.6c-0.4,0-0.7-0.4-0.7-0.7c0-0.4,0.4-0.7,0.7-0.7h1.6c0.4,0,0.7,0.4,0.7,0.7
			C69.2,94.7,68.9,95,68.4,95z"/>
		<path class="st7" d="M31.7,98.1h-1.6c-0.4,0-0.7-0.4-0.7-0.7c0-0.4,0.4-0.7,0.7-0.7h1.6c0.4,0,0.7,0.4,0.7,0.7
			C32.4,97.7,32.2,98.1,31.7,98.1z"/>
		<path class="st7" d="M37.8,98.1h-1.6c-0.4,0-0.7-0.4-0.7-0.7c0-0.4,0.4-0.7,0.7-0.7h1.6c0.4,0,0.7,0.4,0.7,0.7
			C38.5,97.7,38.3,98.1,37.8,98.1z"/>
		<path class="st7" d="M56.2,98.1H42.5c-0.4,0-0.7-0.4-0.7-0.7c0-0.4,0.4-0.7,0.7-0.7h13.8c0.4,0,0.7,0.4,0.7,0.7
			C56.9,97.7,56.7,98.1,56.2,98.1z"/>
		<path class="st7" d="M62.3,98.1h-1.6c-0.4,0-0.7-0.4-0.7-0.7c0-0.4,0.4-0.7,0.7-0.7h1.6c0.4,0,0.7,0.4,0.7,0.7
			C63,97.7,62.8,98.1,62.3,98.1z"/>
		<path class="st7" d="M68.4,98.1h-1.6c-0.4,0-0.7-0.4-0.7-0.7c0-0.4,0.4-0.7,0.7-0.7h1.6c0.4,0,0.7,0.4,0.7,0.7
			C69.2,97.7,68.9,98.1,68.4,98.1z"/>
	</g>
	<g>
		<path class="st8" d="M68.2,53.8V62h-30v-8.2H68.2z"/>
		<g>
			<path class="st7" d="M63.3,58.5c-0.4,0-0.7,0.3-0.7,0.7c0,0.4,0.3,0.7,0.7,0.7c0.4,0,0.7-0.3,0.7-0.7
				C64,58.8,63.7,58.5,63.3,58.5z"/>
			<path class="st7" d="M47.1,56.4c-0.2-0.2-0.6,0-0.7,0.2l-0.7,1.6l-1-1.6c-0.2-0.2-0.5-0.3-0.7-0.2c0,0-0.1,0.1-0.1,0.1
				c0,0,0,0,0,0c0,0,0,0,0,0c0,0-0.1,0.1-0.1,0.1l-1,1.6l-0.7-1.6c-0.1-0.2-0.4-0.3-0.7-0.2c-0.2,0.1-0.3,0.4-0.2,0.7l1.1,2.5
				c0.1,0.2,0.2,0.3,0.5,0.3c0.2,0,0.3-0.1,0.4-0.2l1.1-1.8l1.1,1.8c0.1,0.2,0.2,0.2,0.4,0.2c0.2,0,0.4-0.2,0.5-0.3l1-2.6
				C47.5,56.8,47.4,56.5,47.1,56.4z"/>
			<path class="st7" d="M54.4,56.4c-0.2-0.2-0.6,0-0.7,0.2l-0.7,1.6l-1-1.6c-0.2-0.2-0.5-0.3-0.7-0.2c0,0,0,0,0,0
				c-0.1,0-0.2,0.1-0.3,0.2l-1,1.6l-0.7-1.6c-0.1-0.2-0.4-0.3-0.7-0.2c-0.2,0.1-0.3,0.4-0.2,0.7l1.1,2.5c0.1,0.2,0.2,0.3,0.5,0.3
				c0.2,0,0.4-0.1,0.5-0.2l1.1-1.9l1.2,1.9c0.1,0.2,0.2,0.2,0.4,0.2c0.2,0,0.4-0.2,0.4-0.4l1.1-2.5C54.8,56.8,54.6,56.5,54.4,56.4z"
				/>
			<path class="st7" d="M61.6,56.4c-0.2-0.2-0.6,0-0.7,0.2l-0.7,1.6l-1-1.6c-0.2-0.2-0.5-0.3-0.7-0.2c0,0-0.1,0.1-0.1,0.1
				c0,0,0,0,0,0c0,0,0,0,0,0c0,0-0.1,0.1-0.1,0.1l-1,1.6l-0.7-1.6c-0.1-0.2-0.4-0.3-0.7-0.2c-0.2,0.1-0.3,0.4-0.2,0.7l1.1,2.5
				c0.1,0.2,0.2,0.3,0.5,0.3c0.2,0,0.3-0.1,0.4-0.2l1.1-1.8l1.1,1.8c0.1,0.2,0.2,0.2,0.4,0.2c0.2,0,0.4-0.2,0.5-0.4l1-2.5
				C62,56.8,61.9,56.5,61.6,56.4z"/>
		</g>
	</g>
	<g>
		<path class="st8" d="M53.4,76.6c1.5,0,2.9,0.4,4.2,1c-0.8,2.8-2.4,4.6-4.2,4.6V76.6z"/>
		<path class="st8" d="M53.4,82.3L53.4,82.3c-2.6,0-5-1.1-6.6-2.8l0,0c0.7-0.7,1.5-1.4,2.5-1.8C50.1,80.4,51.7,82.3,53.4,82.3z"/>
		<path class="st8" d="M53.4,73.2v3.5c-1.5,0-2.9,0.4-4.2,1c-0.4-1.4-0.7-2.8-0.7-4.4H53.4L53.4,73.2z"/>
		<path class="st8" d="M58.3,73.2h4.3c0,2.5-1,4.6-2.5,6.2c-0.7-0.7-1.5-1.4-2.5-1.8C58,76.3,58.3,74.8,58.3,73.2z"/>
		<path class="st8" d="M56.4,64.6c1.4,0.4,2.6,1.2,3.7,2.4c-0.7,0.7-1.5,1.4-2.5,1.8c-0.8-2.8-2.4-4.6-4.2-4.6
			C54.5,64.2,55.5,64.3,56.4,64.6L56.4,64.6z"/>
		<path class="st8" d="M62.7,73.2h-4.3c0-1.7-0.3-3.2-0.7-4.4c1-0.4,1.8-1.1,2.5-1.8C61.7,68.6,62.7,70.8,62.7,73.2z"/>
		<path class="st8" d="M60.1,79.4c-1,1-2.4,1.9-3.7,2.4c-1,0.3-1.9,0.4-2.9,0.4c1.8,0,3.5-1.9,4.2-4.6
			C58.5,78.1,59.4,78.7,60.1,79.4z"/>
		<path class="st8" d="M58.3,73.2h-4.8v-3.5c1.5,0,2.9-0.4,4.2-1C58,70.1,58.3,71.5,58.3,73.2z"/>
		<path class="st8" d="M53.4,73.2h4.8c0,1.7-0.3,3.2-0.7,4.4c-1.2-0.7-2.6-1-4.2-1V73.2z"/>
		<path class="st8" d="M57.6,68.7c-1.2,0.7-2.6,1-4.2,1V64C55.2,64.2,56.9,66,57.6,68.7z"/>
		<path class="st8" d="M53.4,76.6v5.7c-1.8,0-3.5-1.9-4.2-4.6C50.5,77,51.9,76.6,53.4,76.6z"/>
		<path class="st8" d="M53.4,69.7v3.5h-4.8c0-1.7,0.3-3.2,0.7-4.4C50.5,69.3,51.9,69.7,53.4,69.7z"/>
		<path class="st8" d="M53.4,64.2v5.7c-1.5,0-2.9-0.4-4.2-1C50.1,66,51.6,64.2,53.4,64.2L53.4,64.2z"/>
		<path class="st8" d="M53.4,64.2L53.4,64.2c-1.8,0-3.3,1.9-4.2,4.6c-1-0.4-1.8-1.1-2.5-1.8C48.4,65.1,50.8,64.2,53.4,64.2z"/>
		<path class="st8" d="M49.2,68.7c-0.4,1.4-0.7,2.8-0.7,4.4h-4.3c0-2.5,1-4.6,2.5-6.2C47.4,67.6,48.4,68.3,49.2,68.7z"/>
		<path class="st8" d="M48.6,73.2c0,1.7,0.3,3.2,0.7,4.4c-0.8,0.4-1.8,1.1-2.5,1.8l0,0c-1.5-1.7-2.5-3.9-2.5-6.2H48.6L48.6,73.2z"/>
		<path d="M53.4,82.7c-1.9,0-3.7-1.9-4.7-5c-0.4-1.4-0.7-2.9-0.7-4.6c0-1.7,0.3-3.2,0.7-4.6c1-3,2.6-5,4.6-5c0,0,0,0,0.1,0
			c1.9,0,3.7,1.9,4.7,5c0.4,1.4,0.7,2.9,0.7,4.6c0,1.7-0.3,3.2-0.7,4.6C57.3,80.9,55.3,82.7,53.4,82.7z M53.4,64.6L53.4,64.6
			c-1.5,0-2.9,1.7-3.7,4.3c-0.4,1.4-0.7,2.8-0.7,4.3s0.3,3,0.7,4.3c0.8,2.6,2.2,4.3,3.7,4.3s2.9-1.7,3.7-4.3
			c0.4-1.4,0.7-2.8,0.7-4.3s-0.3-3-0.7-4.3C56.3,66.2,54.9,64.6,53.4,64.6L53.4,64.6z"/>
		<path d="M53.4,70.2c-1.5,0-3-0.4-4.4-1c-1-0.4-1.8-1.1-2.6-1.9c-0.1-0.1-0.1-0.4,0-0.7c0.3-0.1,0.4-0.1,0.7,0
			c0.7,0.7,1.4,1.2,2.4,1.7c1.2,0.7,2.5,1,4,1c1.4,0,2.8-0.3,4-1c0.8-0.4,1.7-1,2.4-1.7c0.1-0.3,0.4-0.3,0.7,0
			c0.1,0.1,0.3,0.4,0,0.7c-0.7,0.8-1.5,1.4-2.6,1.9C56.4,69.8,55.1,70.2,53.4,70.2z"/>
		<path d="M60.1,79.9c-0.1,0-0.3-0.1-0.4-0.1c-0.7-0.7-1.4-1.2-2.4-1.7c-1.2-0.7-2.5-1-4-1c-1.4,0-2.8,0.3-4,1
			c-0.8,0.4-1.7,1-2.4,1.7c-0.1,0.1-0.4,0.3-0.7,0c-0.1-0.1-0.3-0.4,0-0.7c0.7-0.8,1.5-1.4,2.5-1.9c1.4-0.7,2.9-1,4.4-1s3,0.4,4.4,1
			c1,0.4,1.8,1.1,2.6,1.9C60.3,79.3,60.3,79.5,60.1,79.9C60.3,79.9,60.2,79.9,60.1,79.9z"/>
		<path d="M62.3,73.7h-18c-0.3,0-0.4-0.3-0.4-0.4c0-0.3,0.3-0.4,0.4-0.4h18c0.3,0,0.4,0.3,0.4,0.4C62.7,73.4,62.5,73.7,62.3,73.7z"
			/>
		<path d="M53.4,82.7c-0.3,0-0.4-0.3-0.4-0.4V64.2c0-0.3,0.3-0.4,0.4-0.4c0.3,0,0.4,0.3,0.4,0.4v18.1C54,82.6,53.7,82.7,53.4,82.7z"
			/>
		<path d="M53.4,82.7L53.4,82.7c-2.6,0-5.1-1.1-7.1-2.9c-1.8-1.8-2.6-4.2-2.6-6.6s1-4.8,2.6-6.6c1.8-1.9,4.3-2.9,6.9-2.9l0,0
			c1,0,2.1,0.1,3,0.4l0,0c1.4,0.4,2.8,1.4,3.9,2.5c1.8,1.8,2.6,4.2,2.6,6.6c0,2.5-1,4.8-2.6,6.6c-1.1,1.1-2.5,1.9-3.9,2.5
			C55.6,82.6,54.5,82.7,53.4,82.7z M53.4,64.6c-2.4,0-4.6,1-6.2,2.6c-1.5,1.7-2.4,3.7-2.4,6c0,2.2,0.8,4.3,2.4,6
			c1.7,1.7,3.9,2.6,6.2,2.6l0,0c1,0,1.9-0.1,2.8-0.4c1.4-0.4,2.5-1.1,3.5-2.2c1.5-1.7,2.4-3.7,2.4-6c0-2.2-0.8-4.3-2.4-6
			c-1-1-2.2-1.8-3.5-2.2l0,0C55.3,64.7,54.4,64.6,53.4,64.6L53.4,64.6L53.4,64.6z"/>
	</g>
	<path d="M41.4,70.5h-2.5c-0.1,0-0.4-0.1-0.4-0.4c0-0.1,0.1-0.4,0.4-0.4h2.5c0.1,0,0.4,0.1,0.4,0.4C41.8,70.2,41.6,70.5,41.4,70.5z"
		/>
	<path d="M41.8,72.9h-4.4c-0.1,0-0.4-0.1-0.4-0.4c0-0.1,0.1-0.4,0.4-0.4h4.4c0.1,0,0.4,0.1,0.4,0.4C42.2,72.6,42,72.9,41.8,72.9z"/>
	<path d="M41.4,75.2h-6.1c-0.1,0-0.4-0.1-0.4-0.4c0-0.3,0.1-0.4,0.4-0.4h6.1c0.1,0,0.4,0.1,0.4,0.4C41.8,75.1,41.6,75.2,41.4,75.2z"
		/>
	<path d="M42.2,77.6h-4.8c-0.1,0-0.4-0.1-0.4-0.4c0-0.1,0.1-0.4,0.4-0.4h4.8c0.1,0,0.4,0.1,0.4,0.4C42.6,77.5,42.3,77.6,42.2,77.6z"
		/>
</g>
<g>
	<path class="st3" d="M98.9,21.5c0,1.9,0,17.8,0,20.1c-0.1,0-16.9,0-17.4,0c0-0.4,0-22.5,0-23.5h13.9v3.4H98.9z"/>
	<path class="st2" d="M95.8,33.8v4H81.6v-4H95.8z"/>
	<polygon class="st4" points="95.6,41.5 95.6,43.5 79.6,43.5 79.6,20.9 81.6,20.9 81.6,33.8 81.6,37.8 81.6,41.5 	"/>
	<path class="st4" d="M95.6,18.1c1.1,1.1,2.4,2.4,3.4,3.4h-3.4V18.1z"/>
	<path class="st3" d="M91.5,36.2c0,0.1,0,0.2,0,0.3c-0.3,0.5-1.1,0.4-1.5,0.1l0.2-0.4c0.1,0.1,0.9,0.4,0.9,0.1
		c0-0.2-0.4-0.2-0.7-0.4c-0.7-0.4-0.1-1.6,1.2-0.9l-0.2,0.4c-0.1-0.1-0.8-0.4-0.8,0C90.5,35.7,91.5,35.5,91.5,36.2z"/>
	<path class="st3" d="M89.5,36c0.1,0.2,0,0.5-0.2,0.7c-0.4,0.2-1,0.1-1.4-0.1l0.2-0.4c0.1,0.1,0.9,0.4,0.9,0.1
		c0-0.2-0.4-0.2-0.7-0.4c-0.7-0.4-0.1-1.6,1.2-0.9l-0.2,0.4c0,0-0.3-0.2-0.6-0.2c-0.3,0-0.3,0.2-0.2,0.2
		C88.7,35.6,89.3,35.6,89.5,36z"/>
	<path class="st3" d="M87.3,36.1l0.4,0.2c-0.1,0.3-0.5,0.5-0.8,0.5c-1,0-1.4-1.5-0.4-1.9c0.4-0.2,1-0.1,1.2,0.4l-0.3,0.2
		c0-0.1-0.2-0.2-0.3-0.3c-0.8-0.1-0.9,1.2-0.1,1.2C87,36.4,87.2,36.3,87.3,36.1z"/>
	<path d="M95.6,43.8h-16c-0.1,0-0.3-0.1-0.3-0.3V20.9c0-0.1,0.1-0.3,0.3-0.3h2c0.1,0,0.3,0.1,0.3,0.3c0,0.1-0.1,0.3-0.3,0.3h-1.8v22
		h15.4v-1.6c0-0.1,0.1-0.3,0.3-0.3c0.1,0,0.3,0.1,0.3,0.3v2C95.8,43.6,95.7,43.8,95.6,43.8z"/>
	<path d="M98.9,21.8h-3.4c-0.1,0-0.3-0.1-0.3-0.3v-3.4c0-0.1,0.1-0.3,0.3-0.3c0.1,0,0.3,0.1,0.3,0.3v3.2h3.1c0.1,0,0.3,0.1,0.3,0.3
		C99.3,21.6,99.1,21.8,98.9,21.8z"/>
	<path d="M98.9,41.8H81.6c-0.1,0-0.3-0.1-0.3-0.3v-3.7c0-0.1,0.1-0.3,0.3-0.3c0.1,0,0.3,0.1,0.3,0.3v3.4h16.8V21.6
		c-0.5-0.5-1.1-1.1-1.6-1.6c-0.6-0.5-1.1-1.1-1.6-1.6H81.9v19.9c0,0.1-0.1,0.3-0.3,0.3c-0.1,0-0.3-0.1-0.3-0.2V18.1
		c0-0.1,0.1-0.3,0.3-0.3h13.9c0.1,0,0.1,0,0.2,0.1c0.6,0.5,1.1,1.1,1.7,1.7c0.6,0.6,1.2,1.2,1.7,1.7c0,0,0.1,0.1,0.1,0.2v20.1
		C99.3,41.7,99.1,41.8,98.9,41.8z"/>
	<path d="M85,21.8h-0.9c-0.1,0-0.3-0.1-0.3-0.3c0-0.1,0.1-0.3,0.3-0.3H85c0.1,0,0.3,0.1,0.3,0.3C85.4,21.6,85.2,21.8,85,21.8z"/>
	<path d="M85,23.2h-0.9c-0.1,0-0.3-0.1-0.3-0.3s0.1-0.3,0.3-0.3H85c0.1,0,0.3,0.1,0.3,0.3C85.4,23.1,85.2,23.2,85,23.2z"/>
	<path d="M85,24.7h-0.9c-0.1,0-0.3-0.1-0.3-0.3s0.1-0.3,0.3-0.3H85c0.1,0,0.3,0.1,0.3,0.3C85.4,24.5,85.2,24.7,85,24.7z"/>
	<path d="M85,26.1h-0.9c-0.1,0-0.3-0.1-0.3-0.3c0-0.1,0.1-0.3,0.3-0.3H85c0.1,0,0.3,0.1,0.3,0.3C85.4,25.9,85.2,26.1,85,26.1z"/>
	<path d="M85,27.5h-0.9c-0.1,0-0.3-0.1-0.3-0.3c0-0.1,0.1-0.3,0.3-0.3H85c0.1,0,0.3,0.1,0.3,0.3C85.4,27.4,85.2,27.5,85,27.5z"/>
	<path d="M85,28.9h-0.9c-0.1,0-0.3-0.1-0.3-0.3s0.1-0.3,0.3-0.3H85c0.1,0,0.3,0.1,0.3,0.3C85.4,28.8,85.2,28.9,85,28.9z"/>
	<path d="M85,30.4h-0.9c-0.1,0-0.3-0.1-0.3-0.3s0.1-0.3,0.3-0.3H85c0.1,0,0.3,0.1,0.3,0.3C85.4,30.2,85.2,30.4,85,30.4z"/>
	<path d="M85,31.8h-0.9c-0.1,0-0.3-0.1-0.3-0.3c0-0.1,0.1-0.3,0.3-0.3H85c0.1,0,0.3,0.1,0.3,0.3C85.3,31.7,85.2,31.8,85,31.8z"/>
	<path d="M87.7,21.8h-1.4c-0.1,0-0.3-0.1-0.3-0.3c0-0.1,0.1-0.3,0.3-0.3h1.4c0.1,0,0.3,0.1,0.3,0.3C88,21.6,87.8,21.8,87.7,21.8z"/>
	<path d="M90.8,21.8h-2.3c-0.1,0-0.3-0.1-0.3-0.3c0-0.1,0.1-0.3,0.3-0.3h2.3c0.1,0,0.3,0.1,0.3,0.3C91.2,21.6,91,21.8,90.8,21.8z"/>
	<path d="M88.8,23.2h-2.6c-0.1,0-0.3-0.1-0.3-0.3s0.1-0.3,0.3-0.3h2.6c0.1,0,0.3,0.1,0.3,0.3C89.1,23.1,89,23.2,88.8,23.2z"/>
	<path d="M90.6,23.2H90c-0.1,0-0.3-0.1-0.3-0.3s0.1-0.3,0.3-0.3h0.6c0.1,0,0.3,0.1,0.3,0.3C90.8,23.1,90.7,23.2,90.6,23.2z"/>
	<path d="M92.3,23.2h-0.9c-0.1,0-0.3-0.1-0.3-0.3s0.1-0.3,0.3-0.3h0.9c0.1,0,0.3,0.1,0.3,0.3C92.6,23.1,92.5,23.2,92.3,23.2z"/>
	<path d="M87.1,24.7h-0.9c-0.1,0-0.3-0.1-0.3-0.3s0.1-0.3,0.3-0.3h0.9c0.1,0,0.3,0.1,0.3,0.3S87.2,24.7,87.1,24.7z"/>
	<path d="M90.3,24.7h-2c-0.1,0-0.3-0.1-0.3-0.3s0.1-0.3,0.3-0.3h2c0.1,0,0.3,0.1,0.3,0.3S90.4,24.7,90.3,24.7z"/>
	<path d="M87.4,26.1h-1.2c-0.1,0-0.3-0.1-0.3-0.3c0-0.1,0.1-0.3,0.3-0.3h1.2c0.1,0,0.3,0.1,0.3,0.3C87.7,25.9,87.5,26.1,87.4,26.1z"
		/>
	<path d="M91.2,26.1h-2.6c-0.1,0-0.3-0.1-0.3-0.3c0-0.1,0.1-0.3,0.3-0.3h2.6c0.1,0,0.3,0.1,0.3,0.3C91.4,25.9,91.3,26.1,91.2,26.1z"
		/>
	<path d="M87.7,27.5h-1.4c-0.1,0-0.3-0.1-0.3-0.3c0-0.1,0.1-0.3,0.3-0.3h1.4c0.1,0,0.3,0.1,0.3,0.3C88,27.4,87.8,27.5,87.7,27.5z"/>
	<path d="M92.9,27.5h-4.1c-0.1,0-0.3-0.1-0.3-0.3c0-0.1,0.1-0.3,0.3-0.3h4.1c0.1,0,0.3,0.1,0.3,0.3C93.1,27.4,93,27.5,92.9,27.5z"/>
	<path d="M88.8,28.9h-2.6c-0.1,0-0.3-0.1-0.3-0.3s0.1-0.3,0.3-0.3h2.6c0.1,0,0.3,0.1,0.3,0.3C89.1,28.8,89,28.9,88.8,28.9z"/>
	<path d="M90.6,28.9H90c-0.1,0-0.3-0.1-0.3-0.3s0.1-0.3,0.3-0.3h0.6c0.1,0,0.3,0.1,0.3,0.3C90.8,28.8,90.7,28.9,90.6,28.9z"/>
	<path d="M92.6,28.9h-0.9c-0.1,0-0.3-0.1-0.3-0.3s0.1-0.3,0.3-0.3h0.9c0.1,0,0.3,0.1,0.3,0.3C92.9,28.8,92.7,28.9,92.6,28.9z"/>
	<path d="M87.1,30.4h-0.9c-0.1,0-0.3-0.1-0.3-0.3s0.1-0.3,0.3-0.3h0.9c0.1,0,0.3,0.1,0.3,0.3S87.2,30.4,87.1,30.4z"/>
	<path d="M90.3,30.4h-2c-0.1,0-0.3-0.1-0.3-0.3s0.1-0.3,0.3-0.3h2c0.1,0,0.3,0.1,0.3,0.3S90.4,30.4,90.3,30.4z"/>
	<path d="M92.6,30.4h-1.2c-0.1,0-0.3-0.1-0.3-0.3s0.1-0.3,0.3-0.3h1.2c0.1,0,0.3,0.1,0.3,0.3S92.7,30.4,92.6,30.4z"/>
	<path d="M87.4,31.8h-1.2c-0.1,0-0.3-0.1-0.3-0.3c0-0.1,0.1-0.3,0.3-0.3h1.2c0.1,0,0.3,0.1,0.3,0.3C87.6,31.7,87.5,31.8,87.4,31.8z"
		/>
	<path d="M91.2,31.8h-2.6c-0.1,0-0.3-0.1-0.3-0.3c0-0.1,0.1-0.3,0.3-0.3h2.6c0.1,0,0.3,0.1,0.3,0.3C91.4,31.7,91.3,31.8,91.2,31.8z"
		/>
</g>
<g>
	<circle class="st2" cx="52.7" cy="24.8" r="16.6"/>
	<g>
		
			<linearGradient id="SVGID_00000142876052015388686900000000657214707109086868_" gradientUnits="userSpaceOnUse" x1="44.6815" y1="24.258" x2="49.4272" y2="24.258">
			<stop  offset="0" style="stop-color:#DAE3FE"/>
			<stop  offset="1" style="stop-color:#E9EFFD"/>
		</linearGradient>
		<path style="fill:url(#SVGID_00000142876052015388686900000000657214707109086868_);" d="M46,31.5c-0.5,0-1-0.1-1.3-0.2v-2
			c0.4,0.1,0.7,0.2,1.1,0.2c0.5,0,0.9-0.2,1.1-0.5c0.2-0.3,0.3-0.8,0.3-1.5V17.1l2.3-0.1v10.5c0,1.3-0.3,2.3-0.9,3
			C48,31.2,47.1,31.5,46,31.5z"/>
		
			<linearGradient id="SVGID_00000076604243748858728190000008309438783424232848_" gradientUnits="userSpaceOnUse" x1="52.0134" y1="23.9537" x2="60.6141" y2="23.9537">
			<stop  offset="0" style="stop-color:#DAE3FE"/>
			<stop  offset="1" style="stop-color:#E9EFFD"/>
		</linearGradient>
		<path style="fill:url(#SVGID_00000076604243748858728190000008309438783424232848_);" d="M60.6,27c0,1.2-0.4,2.2-1.3,2.9
			c-0.9,0.7-2.1,1-3.6,1c-1.4,0-2.6-0.3-3.7-0.8v-2.6c0.9,0.4,1.6,0.7,2.2,0.9c0.6,0.2,1.2,0.3,1.7,0.3c0.6,0,1.1-0.1,1.4-0.3
			c0.3-0.2,0.5-0.6,0.5-1.1c0-0.3-0.1-0.5-0.2-0.7c-0.1-0.2-0.4-0.4-0.6-0.6c-0.3-0.2-0.9-0.5-1.7-0.9c-0.8-0.4-1.4-0.7-1.8-1.1
			c-0.4-0.3-0.7-0.8-0.9-1.2c-0.2-0.5-0.4-1-0.4-1.6c0-1.2,0.4-2.1,1.2-2.8c0.8-0.7,1.9-1,3.3-1.1c0.7,0,1.3,0.1,2,0.2
			c0.6,0.2,1.3,0.4,2,0.7l-0.9,2.2c-0.7-0.3-1.3-0.5-1.8-0.6c-0.5-0.1-0.9-0.2-1.4-0.2c-0.5,0-0.9,0.1-1.2,0.4
			c-0.3,0.3-0.4,0.6-0.4,1c0,0.2,0.1,0.5,0.2,0.6c0.1,0.2,0.3,0.4,0.5,0.5c0.2,0.2,0.8,0.5,1.8,0.9c1.2,0.6,2.1,1.2,2.6,1.8
			C60.4,25.3,60.6,26.1,60.6,27z"/>
	</g>
</g>
</svg>
