<?xml version="1.0" encoding="utf-8"?>
<!-- Generator: Adobe Illustrator 28.1.0, SVG Export Plug-In . SVG Version: 6.00 Build 0)  -->
<svg version="1.1" id="Layer_1" xmlns="http://www.w3.org/2000/svg" xmlns:xlink="http://www.w3.org/1999/xlink" x="0px" y="0px"
	 viewBox="0 0 92.3 92.3" style="enable-background:new 0 0 92.3 92.3;" xml:space="preserve">
<style type="text/css">
	.st0{fill:#FF6800;}
	.st1{fill:url(#SVGID_1_);}
	.st2{fill:url(#SVGID_00000101795964042700005360000014144064282704332449_);}
</style>
<g>
	<path class="st0" d="M46.1,92.3C20.7,92.3,0,71.6,0,46.1S20.7,0,46.1,0s46.1,20.7,46.1,46.1S71.6,92.3,46.1,92.3z M46.1,1.4
		C21.4,1.4,1.4,21.4,1.4,46.1s20.1,44.8,44.8,44.8s44.8-20.1,44.8-44.8S70.8,1.4,46.1,1.4z"/>
	<g>
		<circle class="st0" cx="86.1" cy="46.1" r="2.2"/>
		<circle class="st0" cx="6.1" cy="46.1" r="2.2"/>
	</g>
	<g>
		<linearGradient id="SVGID_1_" gradientUnits="userSpaceOnUse" x1="10.5141" y1="46.1279" x2="81.7404" y2="46.1279">
			<stop  offset="0" style="stop-color:#FF6800"/>
			<stop  offset="1" style="stop-color:#E14900"/>
		</linearGradient>
		<path class="st1" d="M46.1,10.5c-19.7,0-35.6,15.9-35.6,35.6s15.9,35.6,35.6,35.6c19.7,0,35.6-15.9,35.6-35.6S65.8,10.5,46.1,10.5
			z M46.5,66.2c-3.4,0-6.8-0.8-9.8-2.4c-0.1,0-0.2,0-0.2,0l-11.3,3.6c-0.1,0-0.3-0.1-0.2-0.2l3.7-10.9c0-0.1,0-0.2,0-0.2
			c-1.9-3.1-2.8-6.7-2.8-10.4c0-0.3,0-0.6,0-0.9c0.5-11.1,9.6-19.7,20.8-19.7c11.4,0,20.5,8.8,20.8,20.1c0,0,0,0.4,0,0.5
			C67.3,56.9,58,66.2,46.5,66.2z"/>
		
			<linearGradient id="SVGID_00000145043853294965051640000017795802922556552116_" gradientUnits="userSpaceOnUse" x1="29.6682" y1="45.5503" x2="63.4229" y2="45.5503">
			<stop  offset="0" style="stop-color:#FF6800"/>
			<stop  offset="1" style="stop-color:#E14900"/>
		</linearGradient>
		<path style="fill:url(#SVGID_00000145043853294965051640000017795802922556552116_);" d="M46.5,28.8c-8.7,0-16,6.5-16.8,15.1
			c-0.1,0.6-0.1,1.1-0.1,1.6c0,3.3,1,6.5,2.8,9.3c0.1,0.1,0.3,0.4,0.4,0.5c0.1,0.1,0.1,0.2,0,0.3l-1.8,5.4c0,0.1,0.1,0.3,0.2,0.2
			l5.7-1.8c0.1,0,0.2,0,0.2,0c0.4,0.2,1.5,0.9,2.2,1.2c2.2,1,4.6,1.6,7.1,1.6c9.3,0,16.9-7.5,16.9-16.7c0-0.4,0-0.8-0.1-1.3
			C62.7,35.6,55.3,28.8,46.5,28.8z M56.1,52.6c-0.5,1.3-2.6,2.4-3.5,2.5c-0.1,0-0.8,0.2-1.1,0.2c-0.7,0-2-0.3-5-1.4
			c-2.3-0.9-4.6-2.6-6.7-5c-0.6-0.7-1.9-2.5-2-2.6c-0.8-1.1-1.5-2.4-1.8-3.5c-0.2-0.6-0.3-1.2-0.3-1.7c0-2.4,1.1-3.6,1.7-4.2
			l0.1-0.1c0.6-0.6,2.3-0.6,2.5-0.6c0.4,0,0.8,0,1.2,0.9c0.1,0.3,1.5,3.5,1.5,3.7c0.1,0.2,0.3,0.6,0,1c0,0-0.2,0.4-0.3,0.6
			c-0.1,0.1-0.8,1-1,1.1c-0.3,0.3-0.4,0.4-0.2,0.8c0.4,0.6,1.3,2.2,2.8,3.4c1.6,1.4,3.9,2.4,4,2.4c0.5,0.2,0.7,0.2,0.9-0.1
			c0.3-0.3,1.3-1.5,1.6-1.9c0.4-0.6,0.9-0.5,1.3-0.3c0.5,0.2,3.1,1.5,3.4,1.6c0,0,0.9,0.4,1,0.6C56.6,50.4,56.6,51.5,56.1,52.6z"/>
	</g>
</g>
</svg>
