<?xml version="1.0" encoding="utf-8"?>
<!-- Generator: Adobe Illustrator 28.1.0, SVG Export Plug-In . SVG Version: 6.00 Build 0)  -->
<svg version="1.1" id="Layer_1" xmlns="http://www.w3.org/2000/svg" xmlns:xlink="http://www.w3.org/1999/xlink" x="0px" y="0px"
	 viewBox="0 0 103.4 117.7" style="enable-background:new 0 0 103.4 117.7;" xml:space="preserve">
<style type="text/css">
	.st0{fill:#010101;}
	.st1{fill:#FFFFFF;}
	.st2{fill:#EF7222;}
	.st3{fill:#606161;}
	.st4{fill:url(#SVGID_1_);}
</style>
<g>
	<g>
		<path class="st0" d="M4.8,22c0.3-0.1,0.2-0.4,0.3-0.6c1.1-3.7,4.1-6,8-6c25.8,0,51.5,0,77.3,0c4.5,0,8.3,3.7,8.3,8.2
			c0,16.9,0,33.7,0,50.6c0,4.5-3.4,7.9-7.9,7.9c-8.9,0-17.8,0-26.7,0c-0.3,0-0.7,0-1.1,0c1.4,3.8,2.8,7.6,4.2,11.4
			c0.8,0,1.7,0,2.5,0c2.5,0,4.4,1.9,4.5,4.5c0,1.1,0,2.1,0,3.2c0,0.8-0.3,1.1-1.1,1.1c-0.2,0-0.4,0-0.6,0c-13.8,0-27.6,0-41.4,0
			c-0.2,0-0.5,0-0.7,0c-0.6,0-0.9-0.4-0.9-0.9c0-1.3-0.1-2.6,0-3.8c0.1-2.1,2-3.9,4.2-4c0.9,0,1.8,0,2.7,0c1.4-3.8,2.8-7.5,4.2-11.4
			c-0.4,0-0.7,0-1,0c-8.7,0-17.4,0-26.1,0c-4.5,0-7.1-1.9-8.4-6.2c0-0.1-0.1-0.1-0.2-0.2C4.8,57.8,4.8,39.9,4.8,22z M25.2,69.4
			c23.9,0,47.8,0,71.6,0c0-14.4,0-28.8,0-43.2c-23.9,0-47.7,0-71.6,0C25.2,40.7,25.2,55,25.2,69.4z M6.6,69.4c5.6,0,11.1,0,16.6,0
			c0-14.4,0-28.8,0-43.2c-5.6,0-11.1,0-16.6,0C6.6,40.7,6.6,55,6.6,69.4z M6.7,24.3c30.1,0,60.1,0,90.1,0c0-0.5,0-0.8,0-1.2
			c0-3-2.9-5.8-5.9-5.8c-26.1,0-52.3,0-78.4,0c-0.3,0-0.7,0-1,0.1C8.4,18,6.1,21.2,6.7,24.3z M78.3,71.4c-17.8,0-35.4,0-53.1,0
			c0,3,0,5.9,0,8.9c17.7,0,35.4,0,53.1,0C78.3,77.3,78.3,74.3,78.3,71.4z M72.3,100.4c0-0.8,0-1.5,0-2.3c0-1.9-0.9-2.8-2.9-2.8
			c-11.8,0-23.6,0-35.4,0c-0.2,0-0.4,0-0.6,0c-1,0.1-2.1,0.9-2.2,1.9c-0.1,1,0,2.1,0,3.2C44.9,100.4,58.5,100.4,72.3,100.4z
			 M42.5,82.2c-1.4,3.8-2.8,7.5-4.2,11.3c1.9,0,3.7,0,5.6,0c0.5-1.7,1-3.5,1.5-5.2c0.3-1,0.6-1.2,1.6-1.2c3,0,6,0,9.1,0
			c1.6,0,1.6,0,2.1,1.6c0.5,1.6,1,3.2,1.4,4.8c1.9,0,3.7,0,5.5,0c-1.4-3.8-2.8-7.6-4.2-11.3C54.8,82.2,48.7,82.2,42.5,82.2z
			 M23.3,71.4c-5.6,0-11.1,0-16.7,0c0,1.1,0,2.1,0,3.1c0,3.1,2.7,5.9,5.9,5.9c3.4,0,6.7,0,10.1,0c0.2,0,0.5,0.1,0.7-0.1
			C23.3,77.3,23.3,74.3,23.3,71.4z M80.2,80.2c0.3,0.1,0.6,0.1,0.9,0.1c3.2,0,6.4-0.1,9.6,0c2.7,0.1,5.4-2,5.9-4.6
			c0.3-1.4,0.1-2.9,0.2-4.3c-5.6,0-11.1,0-16.7,0C80.2,74.3,80.2,77.3,80.2,80.2z M45.9,93.4c4,0,7.8,0,11.7,0
			c-0.4-1.5-0.9-3-1.3-4.5c-3.1,0-6.1,0-9.2,0C46.7,90.4,46.3,91.9,45.9,93.4z"/>
		<path class="st1" d="M25.2,69.4c0-14.4,0-28.8,0-43.2c23.9,0,47.7,0,71.6,0c0,14.4,0,28.7,0,43.2C72.9,69.4,49.1,69.4,25.2,69.4z
			 M59.2,42.7c0.6,0.5,1,0.9,1.5,1.3c0.5,0.4,1,0.8,1.4,1.2c1.1,1.3,2.5,1.8,4.2,1.6c1-0.1,2.1,0,3.1,0c0.7,0,1-0.4,1-0.9
			c0-0.6-0.5-0.8-1-0.9c-0.2,0-0.4,0-0.5,0c-1.2,0-2.4,0-3.6,0c-0.5,0-1-0.1-1.4-0.5c-1.3-1.2-2.7-2.3-4.1-3.5
			c-0.3-0.3-0.7-0.4-1.2-0.4c-2,0-4.1,0-6.1,0c-0.5,0-0.9,0.1-1.1,0.4c-1.1,1.3-2.2,2.7-3.3,4c-0.3,0.4-0.2,0.8,0.1,1
			c0.3,0.3,0.7,0.4,1.1,0.1c0.3-0.2,0.5-0.5,0.7-0.7c0.8-1,1.7-2.1,2.4-3c1.7,0,3.2,0,4.8,0c-0.7,1-1.3,1.9-1.9,2.8
			c-2,3-1.8,1.9-1.8,5.9c0,0.9,0.1,1.7-0.1,2.6c-0.3,0-0.5,0-0.7,0c-2.2,0-4.3,0-6.5,0c-0.8,0-1.1,0.3-1.2,0.9
			c0,0.6,0.4,0.9,1.1,0.9c2.7,0,5.4,0,8.1,0c0.7,0,1.1-0.3,1.1-1.1c0-0.3,0-0.6,0-0.9c0-1.1,0-2.3,0-3.6c1.7,1.5,3.2,2.9,4.8,4.2
			c0,2,0,3.9,0,5.8c0,0.3,0,0.6,0.1,0.8c0.1,0.4,0.3,0.7,0.8,0.7c0.5,0,0.8-0.3,0.9-0.7c0.1-0.2,0-0.5,0-0.7c0-1.9,0-3.7,0-5.6
			c0-0.7-0.2-1.2-0.7-1.7c-1.1-1-2.2-2-3.3-2.9c-0.8-0.7-1.5-1.4-2.3-2.1C56.9,46.1,58.1,44.4,59.2,42.7z M77.2,62.7
			c-0.1-2.7-0.9-3.8-2.8-3.9c-0.7,0-1.5,0.1-2,0.6c-1,0.8-1,2.1-1,3.3c-0.4,0-0.7,0-1.1,0c-10.6,0-21.1,0-31.7,0c-0.3,0-0.7,0-1,0.1
			c-0.4,0.1-0.7,0.4-0.7,0.8c0,0.5,0.3,0.7,0.7,0.8c0.3,0.1,0.7,0.1,1,0.1c10.6,0,21.2,0,31.8,0c0.3,0,0.7-0.1,1,0.1
			c0.1,2.6,0.9,3.7,2.8,3.8c0.8,0,1.5-0.1,2.1-0.7c1-0.9,1-2,1-3.2c2.2,0,4.3,0,6.4,0c0.3,0,0.6,0,0.9-0.1c0.4-0.2,0.6-0.4,0.6-0.8
			c0-0.4-0.2-0.7-0.6-0.8c-0.3-0.1-0.6-0.1-0.9-0.1C81.5,62.7,79.4,62.7,77.2,62.7z M62.3,39.8c2.2-0.1,4-1.6,4-4.1
			c0.1-2.2-1.6-4.1-4-4.1c-2.4,0-4.1,1.7-4.2,4C58.2,37.9,59.7,39.6,62.3,39.8z M64.3,56.5c0.4-0.3,0.7-0.5,1.1-0.7
			c2.2-1.6,3.4-3.9,3.6-6.6c0.1-0.8-0.3-1.3-0.8-1.3c-0.6,0-1,0.4-1,1.2c-0.1,2.4-1.2,4.3-3.2,5.7c-0.3,0.2-0.7,0.4-0.7,0.9
			C63.4,56.1,63.7,56.3,64.3,56.5z M47,48.7c0.5,1.2,1,2.6,2.3,3.6c0.4,0.3,0.8,0.3,1.2,0c0.4-0.4,0.3-0.8,0-1.1
			c-0.7-0.9-1.3-1.9-1.6-3c-0.1-0.5-0.6-0.7-1-0.5C47.3,47.6,46.9,47.9,47,48.7z"/>
		<path class="st2" d="M6.6,69.4c0-14.4,0-28.8,0-43.2c5.5,0,11,0,16.6,0c0,14.4,0,28.7,0,43.2C17.8,69.4,12.2,69.4,6.6,69.4z
			 M14.9,32.4c1.6,0,3.2,0,4.8,0c1,0,1.4-0.3,1.4-0.9c0-0.6-0.4-0.9-1.5-0.9c-3.1,0-6.2,0-9.3,0c-0.2,0-0.4,0-0.6,0
			c-0.5,0.1-0.9,0.3-0.8,0.9c0,0.6,0.4,0.8,0.9,0.9c0.2,0,0.4,0,0.6,0C11.9,32.4,13.4,32.4,14.9,32.4z M14.9,40.5c1.6,0,3.2,0,4.8,0
			c1,0,1.4-0.3,1.4-0.9c0-0.6-0.4-0.9-1.5-0.9c-3.1,0-6.2,0-9.3,0c-0.2,0-0.4,0-0.6,0c-0.5,0.1-0.9,0.3-0.8,0.9
			c0,0.6,0.4,0.8,0.9,0.9c0.2,0,0.4,0,0.6,0C11.9,40.5,13.4,40.5,14.9,40.5z M14,48.8c0.7,0,1.3,0,2,0c0.8,0,1.5,0,2.3,0
			c0.5,0,0.9-0.3,1-0.9c0-0.6-0.4-0.8-0.9-0.9c-0.1,0-0.3,0-0.5,0c-2.6,0-5.1,0-7.7,0c-0.3,0-0.6,0-0.9,0.2
			c-0.3,0.2-0.5,0.4-0.5,0.8c0,0.3,0.2,0.6,0.5,0.7c0.3,0.2,0.6,0.2,0.9,0.2C11.5,48.8,12.7,48.8,14,48.8z M14,56.8
			c1.1,0,2.2,0,3.3,0c0.2,0,0.5,0,0.7,0c0.8,0,1.2-0.3,1.3-0.9c0-0.6-0.4-0.9-1.3-0.9c0,0-0.1,0-0.1,0c-2.6,0-5.1,0-7.7,0
			c-0.2,0-0.4,0-0.5,0c-0.5,0.1-0.9,0.3-0.8,0.9c0,0.6,0.4,0.8,0.9,0.9c0.2,0,0.4,0,0.6,0C11.6,56.8,12.8,56.8,14,56.8z M14.1,63.1
			c-0.8,0-1.6,0-2.4,0c-0.6,0-1.2,0-1.8,0c-0.7,0-1.1,0.4-1.1,0.9c0,0.5,0.4,0.9,1,0.9c0.2,0,0.3,0,0.5,0c2.5,0,5,0,7.5,0
			c0.2,0,0.4,0,0.5,0c0.5-0.1,0.9-0.3,0.9-0.9c0-0.6-0.4-0.8-1-0.9c-0.2,0-0.4,0-0.5,0C16.5,63.1,15.3,63.1,14.1,63.1z"/>
		<path class="st2" d="M6.7,24.3c-0.6-3.1,1.7-6.3,4.8-7c0.3-0.1,0.7-0.1,1-0.1c26.1,0,52.3,0,78.4,0c3,0,5.9,2.8,5.9,5.8
			c0,0.4,0,0.8,0,1.2C66.8,24.3,36.8,24.3,6.7,24.3z M15.2,21.8C15.2,21.8,15.2,21.8,15.2,21.8c0.5,0,1,0,1.5,0
			c0.5,0,0.9-0.3,0.9-0.9c0-0.6-0.4-0.9-0.9-0.9c-1,0-1.9,0-2.9,0c-0.5,0-0.9,0.3-0.9,0.9c0,0.6,0.4,0.8,0.9,0.9
			C14.2,21.8,14.7,21.8,15.2,21.8z M22.4,21.8C22.4,21.8,22.4,21.8,22.4,21.8c0.5,0,0.9,0,1.4,0c0.6,0,1-0.4,1-0.9
			c0-0.6-0.5-0.8-1-0.9c-0.9,0-1.9,0-2.8,0c-0.5,0-0.9,0.3-0.9,0.9c0,0.6,0.4,0.9,0.9,0.9C21.4,21.8,21.9,21.8,22.4,21.8z
			 M29.6,21.8C29.6,21.8,29.6,21.8,29.6,21.8c0.5,0,1,0,1.5,0c0.5-0.1,0.9-0.3,0.9-0.9c0-0.6-0.4-0.9-0.9-0.9c-1-0.1-1.9,0-2.9,0
			c-0.5,0-0.9,0.3-0.9,0.9c0,0.6,0.4,0.9,0.9,0.9C28.6,21.8,29.1,21.8,29.6,21.8z"/>
		<path class="st3" d="M78.3,71.4c0,3,0,5.9,0,8.9c-17.7,0-35.4,0-53.1,0c0-2.9,0-5.9,0-8.9C42.9,71.4,60.5,71.4,78.3,71.4z"/>
		<path class="st3" d="M72.3,100.4c-13.7,0-27.3,0-41.1,0c0-1.1-0.1-2.1,0-3.2c0.1-1,1.2-1.8,2.2-1.9c0.2,0,0.4,0,0.6,0
			c11.8,0,23.6,0,35.4,0c1.9,0,2.8,0.9,2.9,2.8C72.3,98.9,72.3,99.6,72.3,100.4z"/>
		<path class="st3" d="M42.5,82.2c6.2,0,12.2,0,18.4,0c1.4,3.7,2.8,7.5,4.2,11.3c-1.9,0-3.7,0-5.5,0c-0.5-1.6-1-3.2-1.4-4.8
			c-0.4-1.5-0.5-1.6-2.1-1.6c-3,0-6,0-9.1,0c-1,0-1.3,0.2-1.6,1.2c-0.5,1.7-1,3.4-1.5,5.2c-1.9,0-3.7,0-5.6,0
			C39.7,89.7,41.1,85.9,42.5,82.2z"/>
		<path class="st3" d="M23.3,71.4c0,3,0,5.9,0,8.8c-0.2,0.2-0.5,0.1-0.7,0.1c-3.4,0-6.7,0-10.1,0c-3.1,0-5.9-2.7-5.9-5.9
			c0-1,0-2,0-3.1C12.2,71.4,17.7,71.4,23.3,71.4z"/>
		<path class="st3" d="M80.2,80.2c0-2.9,0-5.9,0-8.9c5.5,0,11,0,16.7,0c-0.1,1.5,0.2,2.9-0.2,4.3c-0.6,2.6-3.2,4.7-5.9,4.6
			c-3.2-0.1-6.4,0-9.6,0C80.8,80.3,80.5,80.4,80.2,80.2z M87.6,76.6c0.9,0,1.7,0,2.6,0c0.8,0,1.1-0.3,1.2-0.9c0-0.6-0.4-0.9-1.1-0.9
			c-1.7,0-3.4,0-5.1,0c-0.7,0-1.1,0.4-1.1,0.9c0,0.6,0.4,0.9,1.2,0.9C86,76.6,86.8,76.6,87.6,76.6z"/>
		<path class="st0" d="M59.2,42.7c-1.2,1.7-2.3,3.4-3.5,5.2c0.8,0.7,1.5,1.4,2.3,2.1c1.1,1,2.2,2,3.3,2.9c0.5,0.5,0.8,1,0.7,1.7
			c0,1.9,0,3.7,0,5.6c0,0.2,0,0.5,0,0.7c-0.1,0.4-0.4,0.8-0.9,0.7c-0.5,0-0.7-0.3-0.8-0.7c-0.1-0.3,0-0.5-0.1-0.8c0-1.9,0-3.8,0-5.8
			c-1.5-1.4-3.1-2.7-4.8-4.2c0,1.3,0,2.4,0,3.6c0,0.3,0,0.6,0,0.9c0,0.7-0.4,1.1-1.1,1.1c-2.7,0-5.4,0-8.1,0c-0.7,0-1.1-0.4-1.1-0.9
			c0-0.6,0.4-0.9,1.2-0.9c2.2,0,4.3,0,6.5,0c0.2,0,0.4,0,0.7,0c0.1-0.9,0-1.8,0.1-2.6c0-4-0.2-2.9,1.8-5.9c0.6-0.9,1.2-1.8,1.9-2.8
			c-1.6,0-3.2,0-4.8,0c-0.8,1-1.6,2-2.4,3c-0.2,0.3-0.4,0.5-0.7,0.7c-0.4,0.3-0.8,0.2-1.1-0.1c-0.3-0.3-0.4-0.7-0.1-1
			c1.1-1.3,2.2-2.7,3.3-4c0.3-0.3,0.7-0.5,1.1-0.4c2,0,4.1,0,6.1,0c0.5,0,0.8,0.1,1.2,0.4c1.4,1.2,2.8,2.3,4.1,3.5
			c0.4,0.4,0.8,0.5,1.4,0.5c1.2,0,2.4,0,3.6,0c0.2,0,0.4,0,0.5,0c0.5,0.1,0.9,0.3,1,0.9c0,0.5-0.4,0.9-1,0.9c-1,0-2.1-0.1-3.1,0
			c-1.7,0.2-3.1-0.3-4.2-1.6c-0.4-0.5-0.9-0.8-1.4-1.2C60.3,43.5,59.8,43.2,59.2,42.7z"/>
		<path class="st0" d="M77.2,62.7c2.2,0,4.3,0,6.4,0c0.3,0,0.6,0,0.9,0.1c0.4,0.2,0.6,0.4,0.6,0.8c0,0.4-0.2,0.7-0.6,0.8
			c-0.3,0.1-0.6,0.1-0.9,0.1c-2.1,0-4.2,0-6.4,0c0,1.2,0,2.4-1,3.2c-0.6,0.5-1.3,0.7-2.1,0.7c-1.9-0.1-2.7-1.2-2.8-3.8
			c-0.3-0.2-0.6-0.1-1-0.1c-10.6,0-21.2,0-31.8,0c-0.3,0-0.7,0-1-0.1c-0.4-0.1-0.7-0.4-0.7-0.8c0-0.5,0.3-0.7,0.7-0.8
			c0.3-0.1,0.7-0.1,1-0.1c10.6,0,21.1,0,31.7,0c0.3,0,0.7,0,1.1,0c0-1.2,0-2.5,1-3.3c0.6-0.5,1.3-0.6,2-0.6
			C76.4,58.8,77.2,59.9,77.2,62.7z M75.4,63.7c0-0.7,0-1.4,0-2.1c0-0.7-0.5-1.1-1.1-1.1c-0.7,0-1.1,0.4-1.1,1.1c0,1.3,0,2.7,0,4
			c0,0.7,0.4,1.1,1.1,1.1c0.7,0,1.1-0.4,1.1-1.1C75.4,65,75.4,64.3,75.4,63.7z"/>
		<path class="st0" d="M62.3,39.8c-2.6-0.2-4.1-1.9-4.1-4.2c0-2.3,1.7-4,4.2-4c2.4,0,4.1,1.8,4,4.1C66.3,38.2,64.5,39.6,62.3,39.8z
			 M62.4,33.4c-1.3,0-2.3,0.9-2.4,2.2c0,1.3,1,2.3,2.2,2.3c1.3,0,2.3-1,2.3-2.4C64.5,34.3,63.6,33.4,62.4,33.4z"/>
		<path class="st0" d="M64.3,56.5c-0.6-0.1-0.9-0.4-1-0.9c-0.1-0.5,0.3-0.7,0.7-0.9c2-1.4,3.1-3.2,3.2-5.7c0-0.8,0.4-1.2,1-1.2
			c0.6,0,0.9,0.5,0.8,1.3c-0.2,2.7-1.4,4.9-3.6,6.6C65,56,64.6,56.2,64.3,56.5z"/>
		<path class="st0" d="M47,48.7c0-0.7,0.3-1,0.8-1.2c0.5-0.1,0.9,0.1,1,0.5c0.3,1.1,1,2.1,1.6,3c0.3,0.4,0.4,0.8,0,1.1
			c-0.4,0.3-0.8,0.3-1.2,0C48,51.3,47.4,49.9,47,48.7z"/>
		<path class="st1" d="M14.9,32.4c-1.5,0-3,0-4.6,0c-0.2,0-0.4,0-0.6,0c-0.5-0.1-0.9-0.3-0.9-0.9c0-0.6,0.4-0.8,0.8-0.9
			c0.2,0,0.4,0,0.6,0c3.1,0,6.2,0,9.3,0c1,0,1.5,0.3,1.5,0.9c0,0.6-0.5,0.9-1.4,0.9C18.1,32.4,16.5,32.4,14.9,32.4z"/>
		<path class="st1" d="M14.9,40.5c-1.5,0-3,0-4.6,0c-0.2,0-0.4,0-0.6,0c-0.5-0.1-0.9-0.3-0.9-0.9c0-0.6,0.4-0.8,0.8-0.9
			c0.2,0,0.4,0,0.6,0c3.1,0,6.2,0,9.3,0c1,0,1.5,0.3,1.5,0.9c0,0.6-0.5,0.9-1.4,0.9C18.1,40.5,16.5,40.5,14.9,40.5z"/>
		<path class="st1" d="M14,48.8c-1.3,0-2.6,0-3.8,0c-0.3,0-0.6,0-0.9-0.2c-0.3-0.2-0.5-0.4-0.5-0.7c0-0.4,0.2-0.6,0.5-0.8
			c0.3-0.2,0.6-0.2,0.9-0.2c2.6,0,5.1,0,7.7,0c0.2,0,0.3,0,0.5,0c0.5,0.1,0.9,0.3,0.9,0.9c0,0.6-0.4,0.9-1,0.9c-0.8,0-1.5,0-2.3,0
			C15.4,48.8,14.7,48.8,14,48.8z"/>
		<path class="st1" d="M14,56.8c-1.2,0-2.4,0-3.7,0c-0.2,0-0.4,0-0.6,0c-0.5-0.1-0.9-0.3-0.9-0.9c0-0.6,0.4-0.8,0.8-0.9
			c0.2,0,0.4,0,0.5,0c2.6,0,5.1,0,7.7,0c0,0,0.1,0,0.1,0c0.9,0,1.3,0.3,1.3,0.9c0,0.6-0.4,0.9-1.3,0.9c-0.2,0-0.5,0-0.7,0
			C16.2,56.8,15.1,56.8,14,56.8z"/>
		<path class="st1" d="M14.1,63.1c1.2,0,2.4,0,3.7,0c0.2,0,0.4,0,0.5,0c0.5,0.1,1,0.3,1,0.9c0,0.6-0.4,0.8-0.9,0.9
			c-0.2,0-0.4,0-0.5,0c-2.5,0-5,0-7.5,0c-0.2,0-0.3,0-0.5,0c-0.7-0.1-1-0.4-1-0.9c0-0.5,0.4-0.9,1.1-0.9c0.6,0,1.2,0,1.8,0
			C12.5,63.1,13.3,63.1,14.1,63.1z"/>
		<path class="st1" d="M15.2,21.8c-0.5,0-1,0-1.5,0c-0.5-0.1-0.9-0.3-0.9-0.9c0-0.6,0.4-0.9,0.9-0.9c1-0.1,1.9,0,2.9,0
			c0.5,0,0.9,0.3,0.9,0.9c0,0.6-0.4,0.8-0.9,0.9C16.2,21.8,15.7,21.8,15.2,21.8C15.2,21.8,15.2,21.8,15.2,21.8z"/>
		<path class="st1" d="M22.4,21.8c-0.5,0-1,0-1.5,0c-0.5-0.1-0.9-0.3-0.9-0.9c0-0.6,0.4-0.9,0.9-0.9c0.9,0,1.9,0,2.8,0
			c0.5,0,0.9,0.3,1,0.9c0,0.5-0.3,0.9-1,0.9C23.3,21.8,22.9,21.8,22.4,21.8C22.4,21.8,22.4,21.8,22.4,21.8z"/>
		<path class="st1" d="M29.6,21.8c-0.5,0-1,0-1.5,0c-0.5,0-0.9-0.3-0.9-0.9c0-0.6,0.4-0.9,0.9-0.9c1,0,1.9,0,2.9,0
			c0.5,0,0.9,0.3,0.9,0.9c0,0.6-0.4,0.8-0.9,0.9C30.5,21.8,30.1,21.8,29.6,21.8C29.6,21.8,29.6,21.8,29.6,21.8z"/>
		<path class="st1" d="M87.6,76.6c-0.8,0-1.6,0-2.5,0c-0.7,0-1.1-0.3-1.2-0.9c0-0.6,0.4-0.9,1.1-0.9c1.7,0,3.4,0,5.1,0
			c0.7,0,1.1,0.4,1.1,0.9c0,0.6-0.4,0.9-1.2,0.9C89.3,76.6,88.5,76.6,87.6,76.6z"/>
		<path class="st2" d="M75.4,63.7c0,0.6,0,1.3,0,1.9c0,0.7-0.4,1.1-1.1,1.1c-0.7,0-1.1-0.4-1.1-1.1c0-1.3,0-2.7,0-4
			c0-0.7,0.5-1.2,1.1-1.1c0.6,0,1,0.5,1.1,1.1C75.4,62.3,75.4,63,75.4,63.7z"/>
		<path class="st2" d="M62.4,33.4c1.3,0,2.2,0.9,2.2,2.2c0,1.4-0.9,2.4-2.3,2.4c-1.3,0-2.3-1-2.2-2.3C60,34.3,61,33.4,62.4,33.4z"/>
	</g>
	
		<linearGradient id="SVGID_1_" gradientUnits="userSpaceOnUse" x1="92.2031" y1="61.4027" x2="83.7986" y2="87.2692" gradientTransform="matrix(-1 0 0 -1 166.3553 120.126)">
		<stop  offset="0" style="stop-color:#FAEF59"/>
		<stop  offset="0.6732" style="stop-color:#EF7222"/>
		<stop  offset="1" style="stop-color:#D11E4B"/>
	</linearGradient>
	<path class="st4" d="M75.2,35.9c-0.1,0-0.2,0-0.3,0c-1.6,0-2.9-1.1-2.9-2.4c0-1.3,1.4-2.3,3-2.3c0.9,0,1.8,0.1,2.6,0.3
		c0.8,0.2,1.6,0.4,2.4,0.7c1.5,0.6,2.8,1.4,3.8,2.2c1.1,0.9,2,1.8,2.8,2.8c0.8,1,1.5,2.1,1.9,3.3c0.2,0.6,0.4,1.2,0.5,1.8
		c0,0.3,0.1,0.6,0.1,0.9c0,0.3,0,0.7-0.1,1S89,45,88.8,45.4c-0.2,0.4-0.4,0.8-0.9,1.3c-0.2,0.2-0.6,0.4-0.9,0.5
		c-0.3,0.1-0.7,0.2-1.1,0.3s-0.7,0-1,0c-0.2,0-0.3,0-0.4-0.1c-0.1,0-0.2,0-0.4-0.1c-0.5-0.1-0.9-0.3-1.2-0.4c-0.4-0.2-0.7-0.3-1-0.5
		c-0.6-0.4-1.1-0.7-1.6-1.1c-0.2-0.2-0.5-0.3-0.7-0.5c-0.2-0.1-0.5-0.3-0.7-0.4c-0.5-0.3-0.9-0.5-1.4-0.7c-1-0.3-1.9-0.4-2.8-0.1
		l-0.2,0.1l-0.1,0l0,0c0,0-0.1,0-0.1,0.1c-0.1,0-0.1,0.1-0.1,0.1c0,0.1,0,0.1,0,0.2c0,0.1,0.1,0.1,0.2,0.2c0.1,0.1,0.2,0.2,0.2,0.3
		c0.7,0.7,1.6,1.3,2.7,1.9c0.5,0.3,1.1,0.7,1.6,1.1c0.2,0.2,0.5,0.4,0.7,0.7c0.1,0.1,0.2,0.2,0.3,0.4l0.1,0.2c0,0.1,0.1,0.1,0.1,0.2
		c0.2,0.3,0.3,0.6,0.4,0.9c0.1,0.3,0.1,0.7,0,1c0,0.1-0.1,0.2-0.1,0.3c-0.1,0.1-0.1,0.2-0.2,0.3c-0.2,0.2-0.4,0.3-0.6,0.3
		c-0.3,0.1-0.7,0.2-1.1,0.3c-0.7,0.1-1.5,0.1-2.2-0.1c-0.3-0.1-0.7-0.2-1-0.4c-0.3-0.2-0.6-0.3-0.8-0.5C74.4,51.1,74.2,51,74,51
		c-0.2,0-0.4,0.2-0.5,0.4c-0.3,0.4-0.1,0.9-0.2,1.5c-0.1,0.5-0.2,1.1-0.6,1.5c-0.2,0.2-0.4,0.5-0.6,0.6c-0.2,0.2-0.6,0.3-0.9,0.3
		c0.3,0,0.6-0.1,0.8-0.3c0.2-0.2,0.4-0.4,0.5-0.6c0.3-0.5,0.4-1,0.4-1.5c0-0.2,0-0.5-0.1-0.8c0-0.3,0-0.6,0.1-0.9
		c0.1-0.3,0.4-0.6,0.8-0.7c0.1,0,0.2,0,0.4,0c0.1,0,0.2,0,0.3,0c0.2,0,0.4,0.1,0.5,0.2c0.3,0.1,0.6,0.3,0.8,0.4
		c0.3,0.1,0.5,0.2,0.8,0.3c0.6,0.1,1.1,0.1,1.7,0c0.3-0.1,0.5-0.2,0.7-0.3c0.1-0.1,0.2-0.1,0.2-0.1c0,0,0-0.1,0.1-0.2
		c0.1-0.3-0.1-0.8-0.4-1.1c0,0-0.1-0.1-0.1-0.1l-0.1-0.1c-0.1-0.1-0.2-0.2-0.3-0.3c-0.2-0.2-0.4-0.3-0.6-0.5
		c-0.4-0.3-0.9-0.6-1.5-0.9c-0.5-0.3-1.1-0.5-1.7-0.9c-0.6-0.3-1.2-0.7-1.7-1.1c-0.1-0.1-0.2-0.2-0.4-0.3c-0.1-0.1-0.2-0.2-0.4-0.4
		c-0.3-0.3-0.4-0.8-0.4-1.3c0-0.5,0.2-0.9,0.6-1.3c0.2-0.2,0.4-0.3,0.6-0.5c0.1,0,0.1-0.1,0.2-0.1l0.1-0.1l0.3-0.1
		c0.7-0.3,1.6-0.5,2.4-0.5c0.8,0,1.7,0.1,2.4,0.3c0.7,0.2,1.4,0.5,2.1,0.8c0.3,0.1,0.6,0.3,0.9,0.5c0.3,0.2,0.6,0.3,0.8,0.5
		c0.5,0.3,1,0.6,1.5,0.8c0.2,0.1,0.5,0.2,0.7,0.3c0.2,0.1,0.4,0.1,0.6,0.1c0,0,0.1,0,0.1,0c0,0,0.1,0,0.1,0c0,0,0,0,0,0
		c-0.1,0-0.2,0-0.3,0.1c-0.1,0,0,0,0-0.1c0-0.1,0-0.3,0-0.4c0-0.2,0-0.4,0-0.6c0-0.2-0.1-0.4-0.1-0.6c-0.1-0.4-0.3-0.8-0.5-1.2
		c-0.4-0.8-1-1.5-1.7-2.3c-0.7-0.7-1.5-1.4-2.3-1.9c-0.8-0.5-1.7-1-2.6-1.2c-0.4-0.1-0.9-0.2-1.3-0.3C76.1,35.9,75.7,35.9,75.2,35.9
		L75.2,35.9z"/>
</g>
</svg>
