<?xml version="1.0" encoding="utf-8"?>
<!-- Generator: Adobe Illustrator 28.1.0, SVG Export Plug-In . SVG Version: 6.00 Build 0)  -->
<svg version="1.1" id="Layer_1" xmlns="http://www.w3.org/2000/svg" xmlns:xlink="http://www.w3.org/1999/xlink" x="0px" y="0px"
	 viewBox="0 0 92.3 92.3" style="enable-background:new 0 0 92.3 92.3;" xml:space="preserve">
<style type="text/css">
	.st0{fill:#FF6800;}
	.st1{fill:url(#SVGID_1_);}
</style>
<g>
	<path class="st0" d="M46.1,92.3C20.7,92.3,0,71.6,0,46.1S20.7,0,46.1,0s46.1,20.7,46.1,46.1S71.6,92.3,46.1,92.3z M46.1,1.4
		C21.4,1.4,1.4,21.4,1.4,46.1s20.1,44.8,44.8,44.8s44.8-20.1,44.8-44.8S70.8,1.4,46.1,1.4z"/>
	<g>
		<circle class="st0" cx="86.1" cy="46.1" r="2.2"/>
		<circle class="st0" cx="6.1" cy="46.1" r="2.2"/>
	</g>
	<linearGradient id="SVGID_1_" gradientUnits="userSpaceOnUse" x1="10.5141" y1="46.1279" x2="81.7404" y2="46.1279">
		<stop  offset="0" style="stop-color:#FF6800"/>
		<stop  offset="1" style="stop-color:#E14900"/>
	</linearGradient>
	<path class="st1" d="M46.1,10.5c-19.7,0-35.6,15.9-35.6,35.6c0,19.7,15.9,35.6,35.6,35.6s35.6-15.9,35.6-35.6
		C81.7,26.5,65.8,10.5,46.1,10.5z M63.3,58.1c-0.8,2.2-4.5,4.1-6.1,4.3c-0.2,0-1.4,0.3-1.9,0.3c-1.2,0-3.4-0.5-8.6-2.5
		c-4-1.6-8-4.6-11.5-8.6c-1.1-1.3-3.3-4.4-3.4-4.4c-1.5-2-2.6-4.1-3.1-6.1c-0.3-1.1-0.5-2.1-0.5-3c0-4.1,2-6.2,2.9-7.2l0.2-0.2
		c1-1.1,4-1.1,4.3-1.1c0.7,0,1.4,0,2,1.6c0.2,0.5,2.5,6.1,2.7,6.4c0.2,0.4,0.4,1,0.1,1.8c0,0-0.4,0.7-0.6,1c-0.1,0.1-1.4,1.7-1.7,2
		c-0.5,0.5-0.7,0.8-0.3,1.4c0.6,1,2.3,3.7,4.8,5.9c2.8,2.4,6.8,4.1,6.9,4.2c0.8,0.4,1.2,0.3,1.5-0.1c0.5-0.6,2.2-2.5,2.7-3.3
		c0.7-1.1,1.6-0.8,2.3-0.5c0.8,0.3,5.3,2.5,5.9,2.8c0,0,1.5,0.7,1.8,1.1C64.1,54.2,64.1,56,63.3,58.1z"/>
</g>
</svg>
