<?xml version="1.0" encoding="utf-8"?>
<!-- Generator: Adobe Illustrator 28.1.0, SVG Export Plug-In . SVG Version: 6.00 Build 0)  -->
<svg version="1.1" id="Layer_1" xmlns="http://www.w3.org/2000/svg" xmlns:xlink="http://www.w3.org/1999/xlink" x="0px" y="0px"
	 viewBox="0 0 103.4 117.7" style="enable-background:new 0 0 103.4 117.7;" xml:space="preserve">
<style type="text/css">
	.st0{fill:url(#SVGID_1_);}
	.st1{fill:#606161;}
	.st2{fill:url(#SVGID_00000042705577491493466960000002741351796765503659_);}
	.st3{fill:#E3F4FF;}
	.st4{fill:#FD6096;}
	.st5{fill:#006BE0;}
	.st6{fill:#43A3F9;}
	.st7{fill:#009959;}
	.st8{fill:#00D27E;}
	.st9{fill:#FDB659;}
	.st10{fill:#FEDE93;}
	.st11{fill:#AA4D1A;}
	.st12{fill:#EF7222;}
</style>
<linearGradient id="SVGID_1_" gradientUnits="userSpaceOnUse" x1="-791.8955" y1="940.2811" x2="-809.442" y2="886.2787" gradientTransform="matrix(-1 0 0 1 -721.6447 -872)">
	<stop  offset="0" style="stop-color:#FAEF59"/>
	<stop  offset="0.6732" style="stop-color:#EF7222"/>
	<stop  offset="1" style="stop-color:#D11E4B"/>
</linearGradient>
<path class="st0" d="M72.5,20.6c-0.2,0-0.4,0-0.6,0c-3.4,0-6.1-2.3-6-5s2.8-4.9,6.2-4.8c1.9,0,3.7,0.2,5.5,0.6
	c1.7,0.4,3.4,0.8,5,1.5c3.1,1.2,5.8,2.9,8,4.7c2.3,1.8,4.1,3.8,5.8,5.9c1.6,2,3.1,4.4,4,6.8c0.5,1.2,0.8,2.5,1,3.8
	c0.1,0.7,0.1,1.3,0.2,2c0,0.7,0,1.4-0.1,2.1s-0.3,1.5-0.6,2.3c-0.3,0.8-0.9,1.8-1.9,2.7c-0.5,0.4-1.2,0.8-1.9,1.1
	c-0.7,0.3-1.5,0.5-2.2,0.5c-0.7,0.1-1.4,0.1-2,0c-0.3,0-0.6-0.1-0.8-0.1c-0.3,0-0.5-0.1-0.8-0.2c-1-0.2-1.8-0.6-2.6-0.9
	c-0.8-0.3-1.4-0.7-2.1-1.1c-1.3-0.8-2.3-1.5-3.3-2.2c-0.5-0.4-1-0.7-1.5-1s-0.9-0.6-1.4-0.9c-1-0.6-2-1-3-1.4
	c-2-0.7-3.9-0.9-5.8-0.3l-0.3,0.1H71h-0.1c-0.1,0-0.2,0.1-0.2,0.1c-0.1,0.1-0.2,0.1-0.2,0.3c0,0.1-0.1,0.3,0.1,0.5
	c0.1,0.1,0.2,0.3,0.4,0.5c0.2,0.2,0.3,0.4,0.5,0.6c1.4,1.5,3.4,2.7,5.7,4c1.1,0.7,2.3,1.4,3.3,2.3c0.5,0.4,1,0.9,1.4,1.4
	c0.2,0.2,0.4,0.5,0.6,0.7l0.3,0.4c0.1,0.1,0.2,0.3,0.3,0.4c0.4,0.6,0.6,1.2,0.8,1.9c0.1,0.7,0.2,1.4-0.1,2.1
	c-0.1,0.2-0.2,0.4-0.3,0.6c-0.1,0.2-0.3,0.4-0.5,0.6c-0.4,0.3-0.8,0.5-1.2,0.7c-0.7,0.3-1.4,0.5-2.2,0.6c-1.5,0.3-3.2,0.2-4.6-0.2
	c-0.7-0.2-1.4-0.5-2-0.8s-1.2-0.7-1.6-1c-0.5-0.3-1-0.5-1.3-0.4c-0.4,0.1-0.8,0.4-1.1,0.8c-0.5,0.8-0.3,1.9-0.4,3.1
	c-0.1,1.1-0.5,2.2-1.2,3.2c-0.3,0.5-0.7,0.9-1.3,1.3c-0.5,0.4-1.2,0.6-1.9,0.6c0.7,0,1.3-0.3,1.8-0.7s0.8-0.9,1.1-1.3
	c0.5-1,0.8-2,0.8-3.1c0-0.5-0.1-1-0.2-1.6c0-0.6,0-1.2,0.3-1.8s0.8-1.2,1.8-1.4c0.2-0.1,0.5-0.1,0.7-0.1s0.5,0,0.7,0.1
	c0.4,0.1,0.8,0.2,1.1,0.4c0.7,0.3,1.2,0.6,1.7,0.9c0.5,0.2,1.1,0.4,1.7,0.5c1.2,0.2,2.3,0.2,3.4-0.1c0.5-0.1,1.1-0.3,1.6-0.6
	c0.3-0.1,0.4-0.2,0.5-0.3s0.1-0.2,0.1-0.3c0.1-0.6-0.2-1.6-0.8-2.3c-0.1-0.1-0.1-0.2-0.2-0.3L80,48.8c-0.2-0.2-0.4-0.4-0.6-0.6
	c-0.4-0.4-0.8-0.7-1.3-1c-1.1-0.7-2.1-1.3-3.2-1.8c-1.1-0.6-2.3-1.1-3.5-1.8s-2.4-1.4-3.5-2.4c-0.3-0.2-0.5-0.5-0.8-0.7
	c-0.2-0.2-0.5-0.5-0.8-0.9c-0.5-0.7-0.9-1.7-0.9-2.6c0-1,0.5-2,1.3-2.7c0.4-0.4,0.8-0.7,1.3-1c0.1-0.1,0.3-0.1,0.4-0.2l0.3-0.1
	l0.6-0.3c1.5-0.7,3.3-1,5.1-1c1.8,0,3.5,0.2,5,0.6c1.5,0.4,3,1,4.3,1.6c0.7,0.3,1.3,0.6,1.9,1c0.6,0.3,1.2,0.7,1.8,1
	c1.1,0.7,2.2,1.3,3.2,1.8c0.5,0.2,1,0.5,1.4,0.6c0.4,0.2,0.8,0.3,1.2,0.3c0.1,0,0.2,0,0.2,0c0.1,0,0.2,0,0.2,0s0.1,0,0,0
	s-0.5,0.1-0.6,0.2c-0.1,0.1-0.1,0,0-0.2c0-0.2,0.1-0.5,0.1-0.9c0-0.4,0-0.8-0.1-1.2s-0.2-0.9-0.3-1.3c-0.2-0.9-0.6-1.7-1-2.5
	c-0.8-1.6-2-3.2-3.5-4.7c-1.5-1.5-3.1-2.9-4.8-4.1c-1.7-1.1-3.6-2.1-5.5-2.6C77,21,76,20.9,75.1,20.7C74.2,20.6,73.3,20.6,72.5,20.6
	L72.5,20.6z"/>
<path class="st1" d="M75.3,35.9H10.8c-2.8,0-5,2.2-5,5V85c0,2.8,2.3,5,5,5h26.5v5H29c-0.9,0-1.7,0.3-2.4,0.9
	c-0.5,0.7-0.9,1.4-0.9,2.4c0,1.8,1.5,3.3,3.3,3.3h28.1c0.9,0,1.7-0.4,2.5-0.9c0.5-0.7,0.9-1.4,0.9-2.4c0-1.8-1.5-3.3-3.3-3.3h-8.4
	v-5h26.4c2.8,0,5-2.2,5-5V40.9C80.4,38.2,78.1,35.9,75.3,35.9z M44.3,85.5C44,85.8,43.6,86,43.1,86c-0.9,0-1.7-0.8-1.7-1.7
	c0-0.4,0.1-0.9,0.5-1.2c0.3-0.3,0.7-0.5,1.2-0.5s0.9,0.1,1.2,0.5c0.3,0.3,0.5,0.7,0.5,1.2C44.8,84.7,44.7,85.3,44.3,85.5z"/>
<linearGradient id="SVGID_00000108987261710344554940000000595367266995407802_" gradientUnits="userSpaceOnUse" x1="-341.7281" y1="1002.4007" x2="-381.7025" y2="879.3725" gradientTransform="matrix(1 0 0 1 0 -872)">
	<stop  offset="0" style="stop-color:#FAEF59"/>
	<stop  offset="0.6732" style="stop-color:#EF7222"/>
	<stop  offset="1" style="stop-color:#D11E4B"/>
</linearGradient>
<path style="fill:url(#SVGID_00000108987261710344554940000000595367266995407802_);" d="M-351.5,22.7c-1.6-0.1-3.2-0.1-4.9,0.1
	c-1.7,0.3-3.4,0.6-5.1,1.3c-3.5,1.2-6.9,3.4-10.1,6c-3.2,2.7-6.2,5.9-9,9.4s-5,7.2-6.5,11c-0.8,1.9-1.4,3.8-1.8,5.8
	c-0.2,1-0.4,2-0.5,3s-0.2,1.9-0.2,2.8c0,0.9,0.1,1.6,0.2,2.1s0.2,0.7-0.1,0.4c-0.2-0.2-0.9-0.5-1.1-0.4c-0.1,0-0.1,0.1,0,0.1
	c0,0,0.2,0,0.3,0c0.1,0,0.3,0,0.5-0.1c0.6-0.1,1.4-0.3,2.2-0.7c0.8-0.4,1.7-0.8,2.6-1.4c1.8-1.1,3.8-2.6,5.9-4.1
	c1-0.8,2.1-1.5,3.3-2.3c1.2-0.8,2.4-1.5,3.6-2.3c2.5-1.4,5.1-2.7,8-3.6c2.9-0.9,6.1-1.5,9.3-1.4c3.3,0.1,6.6,0.9,9.5,2.4l1.1,0.6
	l0.5,0.3c0.2,0.1,0.5,0.3,0.7,0.4c0.9,0.6,1.7,1.4,2.4,2.2c1.4,1.7,2.3,4,2.4,6.3c0.1,2.2-0.6,4.5-1.6,6.1c-0.5,0.8-1,1.5-1.4,2
	c-0.5,0.6-0.9,1.1-1.4,1.7c-2,2.2-4.2,4-6.4,5.5c-2.2,1.6-4.5,2.8-6.5,4.2c-2.1,1.3-4,2.6-5.7,4.1c-0.8,0.8-1.6,1.6-2.4,2.4
	c-0.4,0.4-0.7,0.9-1.1,1.3l-0.5,0.7c-0.2,0.2-0.3,0.4-0.4,0.6c-1,1.7-1.7,4-1.4,5.3c0.1,0.3,0.1,0.6,0.2,0.7
	c0.1,0.2,0.3,0.4,0.9,0.7c0.9,0.6,1.9,1.1,2.9,1.4c2,0.7,4.3,0.7,6.4,0.2c1.1-0.3,2.1-0.7,3.1-1.2s2-1.3,3.2-2
	c0.6-0.3,1.3-0.7,2-0.9c0.4-0.1,0.8-0.2,1.2-0.2c0.5,0,0.9,0.1,1.4,0.2c1.7,0.6,2.8,2,3.3,3.3c0.5,1.4,0.6,2.9,0.5,4.2
	c-0.1,1.3-0.3,2.5-0.3,3.7c0,2.4,0.4,4.9,1.4,7.2c0.5,1.1,1.1,2.2,2,3.1c0.8,0.9,2,1.6,3.3,1.6c-1.3,0.1-2.6-0.5-3.5-1.3
	c-1-0.8-1.8-1.9-2.4-3.1c-1.3-2.3-2-4.8-2.2-7.4s0.2-5.2-0.7-7.1c-0.5-0.9-1.2-1.6-2-1.8c-0.6-0.2-1.5,0.3-2.5,0.9
	c-0.9,0.7-1.9,1.6-3.1,2.3c-1.1,0.8-2.4,1.4-3.7,1.9c-2.7,1-5.7,1.2-8.6,0.6c-1.4-0.3-2.8-0.8-4.1-1.5c-0.6-0.3-1.5-0.8-2.2-1.5
	c-0.4-0.4-0.7-0.8-0.9-1.3c-0.2-0.4-0.4-0.9-0.5-1.3c-0.5-1.8-0.4-3.4-0.2-5c0.3-1.5,0.7-2.9,1.4-4.3c0.2-0.3,0.4-0.7,0.5-1l0.5-0.9
	c0.4-0.6,0.7-1.2,1.2-1.7c0.8-1.2,1.7-2.2,2.7-3.2c1.9-2.1,4-3.8,6.1-5.4c4.2-3.2,8-5.9,10.5-9.4c0.3-0.4,0.6-0.9,0.9-1.3
	c0.3-0.5,0.5-0.8,0.7-1.1c0.3-0.6,0.2-0.9,0.1-1.2s-0.2-0.4-0.4-0.6c-0.1-0.1-0.3-0.2-0.4-0.3l-0.2-0.1l-0.3-0.1l-0.6-0.3
	c-3.4-1.4-7-0.9-10.7,0.7c-1.9,0.8-3.7,1.9-5.5,3.2c-0.9,0.7-1.8,1.3-2.6,2c-0.9,0.7-1.8,1.5-2.7,2.3c-1.9,1.6-3.8,3.4-6.2,5.2
	c-1.2,0.9-2.4,1.8-3.9,2.6c-1.4,0.8-3,1.6-4.8,2.2c-0.4,0.2-0.9,0.3-1.4,0.4s-0.9,0.2-1.5,0.3c-1.2,0.2-2.4,0.2-3.8,0
	s-2.8-0.6-4.1-1.3c-1.4-0.7-2.6-1.6-3.5-2.6c-2-2.1-3-4.3-3.6-6.2c-0.6-1.9-0.9-3.7-1.1-5.3c-0.2-1.7-0.2-3.3-0.2-4.8s0.1-3,0.3-4.6
	c0.3-3,1-6,1.8-8.9c1.7-5.8,4.4-11.1,7.4-15.9s6.5-9.4,10.7-13.6s9.1-8,14.9-10.9c2.9-1.5,6-2.5,9.3-3.4c3.3-0.8,6.7-1.2,10.2-1.3
	C-344.2,0-339,5-338.9,11.3s-4.9,11.5-11.2,11.6C-350.8,22.8-351.1,22.8-351.5,22.7L-351.5,22.7z"/>
<g>
	
		<rect x="-312.7" y="17.9" transform="matrix(0.2638 -0.9646 0.9646 0.2638 -252.6863 -281.7514)" class="st1" width="3.5" height="13.5"/>
	<polygon class="st1" points="-326.8,108.2 -305.5,30.2 -318.5,26.7 -339.8,104.6 -339.8,104.6 -338.2,110.7 -331.2,112.6 	"/>
	<polygon class="st1" points="-337.5,113.2 -336.4,117.7 -333.1,114.4 	"/>
	<path class="st1" d="M-303.4,22.6l1.3-4.6c0.5-1.8-0.6-3.7-2.4-4.2L-311,12c-1.8-0.5-3.7,0.6-4.2,2.4l-1.3,4.6L-303.4,22.6z"/>
</g>
<rect x="11.6" y="41.7" class="st3" width="63" height="37.8"/>
<path class="st4" d="M46.4,49.3v10.9c0,1.6-1.2,2.8-2.8,2.8H19.3c-1.6,0-2.8-1.2-2.8-2.8V49.3c0-1.6,1.2-2.8,2.8-2.8h24.3
	C45.2,46.6,46.4,47.7,46.4,49.3z"/>
<rect x="51.5" y="67.9" class="st5" width="5" height="6.6"/>
<rect x="56.4" y="67.9" class="st6" width="13.3" height="6.6"/>
<rect x="51.5" y="57.2" class="st7" width="5" height="6.6"/>
<rect x="56.4" y="57.2" class="st8" width="13.3" height="6.6"/>
<rect x="51.5" y="46.6" class="st9" width="5" height="6.6"/>
<rect x="56.4" y="46.6" class="st10" width="13.3" height="6.6"/>
<path class="st3" d="M34.5,52.9l-3.7-2.1c-0.4-0.1-0.7-0.3-1.1-0.3c-1.2,0-2.1,0.9-2.1,2.1v4.2c0,1.2,0.9,2.1,2.1,2.1
	c0.3,0,0.7-0.1,1.1-0.5l3.7-2.1c0.7-0.3,1.1-0.9,1.1-1.7C35.5,53.9,35.1,53.3,34.5,52.9z"/>
<path d="M43.6,63.7H19.3c-2,0-3.6-1.6-3.6-3.5V49.3c0-2,1.6-3.5,3.6-3.5h24.3c2,0,3.6,1.6,3.6,3.5v10.9
	C47.2,62.2,45.6,63.7,43.6,63.7z M19.3,47.4c-1.1,0-2,0.9-2,2v10.9c0,1,0.9,2,2,2h24.3c1.1,0,2-0.9,2-2v-11c0-1-0.9-2-2-2H19.3V47.4
	z"/>
<path class="st3" d="M74.7,80.1h-63c-0.4,0-0.8-0.4-0.8-0.8V41.7c0-0.4,0.4-0.8,0.8-0.8h63c0.4,0,0.8,0.4,0.8,0.8v37.6
	C75.5,79.8,75.1,80.1,74.7,80.1z M12.4,78.6h61.4V42.5H12.4V78.6z"/>
<path d="M56.4,53.9h-5c-0.4,0-0.8-0.4-0.8-0.8v-6.6c0-0.4,0.4-0.8,0.8-0.8h5c0.4,0,0.8,0.4,0.8,0.8c0,0.4-0.4,0.8-0.8,0.8h-4.1v5
	h4.1c0.4,0,0.8,0.4,0.8,0.8S56.8,53.9,56.4,53.9z"/>
<path d="M69.6,53.9H56.4c-0.4,0-0.8-0.4-0.8-0.8v-6.6c0-0.4,0.4-0.8,0.8-0.8h13.3c0.4,0,0.8,0.4,0.8,0.8v6.6
	C70.4,53.5,70,53.9,69.6,53.9z M57.2,52.3h11.7v-5H57.2V52.3z"/>
<path d="M56.4,64.7h-5c-0.4,0-0.8-0.4-0.8-0.8v-6.6c0-0.4,0.4-0.8,0.8-0.8h5c0.4,0,0.8,0.4,0.8,0.8s-0.4,0.8-0.8,0.8h-4.1v5h4.1
	c0.4,0,0.8,0.4,0.8,0.8S56.8,64.7,56.4,64.7z"/>
<path d="M69.6,64.7H56.4c-0.4,0-0.8-0.4-0.8-0.8v-6.6c0-0.4,0.4-0.8,0.8-0.8h13.3c0.4,0,0.8,0.4,0.8,0.8v6.6
	C70.4,64.3,70,64.7,69.6,64.7z M57.2,63h11.7v-5H57.2V63z"/>
<path d="M56.4,75.3h-5c-0.4,0-0.8-0.4-0.8-0.8v-6.6c0-0.4,0.4-0.8,0.8-0.8h5c0.4,0,0.8,0.4,0.8,0.8c0,0.4-0.4,0.8-0.8,0.8h-4.1v5
	h4.1c0.4,0,0.8,0.4,0.8,0.8S56.8,75.3,56.4,75.3z"/>
<path d="M69.6,75.3H56.4c-0.4,0-0.8-0.4-0.8-0.8v-6.6c0-0.4,0.4-0.8,0.8-0.8h13.3c0.4,0,0.8,0.4,0.8,0.8v6.6
	C70.4,74.9,70,75.3,69.6,75.3z M57.2,73.6h11.7v-5H57.2V73.6z"/>
<path class="st3" d="M91.5,97.1c0,1.6-1.3,2.8-2.9,2.8H75.9c-1.6,0-2.9-1.3-2.9-2.8c0-0.8,0-25.2,0-26.8s1.3-2.8,2.9-2.8h12.8
	c1.6,0,2.9,1.3,2.9,2.8C91.5,72,91.5,96.1,91.5,97.1z"/>
<path class="st6" d="M75.1,83V71.1c0-0.8,0.6-1.5,1.4-1.5h2.9v0.1c0,0.5,0.4,0.9,0.9,0.9h3.8c0.5,0,0.9-0.4,0.9-0.9v-0.1h2.7
	c0.9,0,1.5,0.7,1.5,1.5v25.3c0,0.8-0.7,1.5-1.5,1.5h-11c-0.9,0-1.5-0.7-1.5-1.5L75.1,83L75.1,83z"/>
<path class="st1" d="M87.9,98.2H76.7c-1,0-1.9-0.8-1.9-1.9V71.1c0-1.1,0.7-1.9,1.8-1.9h2.9c0.2,0,0.3,0.2,0.3,0.3v0.1
	c0,0.3,0.3,0.6,0.6,0.6h3.8c0.3,0,0.6-0.3,0.6-0.6v-0.1c0-0.2,0.2-0.3,0.3-0.3h2.7c1,0,1.9,0.8,1.9,1.9v4c0,0.2-0.2,0.3-0.3,0.3
	c-0.2,0-0.3-0.2-0.3-0.3v-4c0-0.6-0.5-1.1-1.1-1.1h-2.5c-0.1,0.6-0.6,1.1-1.3,1.1h-3.8c-0.6,0-1.1-0.5-1.3-1.1h-2.5
	c-0.6,0-1.1,0.5-1.1,1.1v25.3c0,0.6,0.5,1.1,1.1,1.1h11.2c0.6,0,1.1-0.5,1.1-1.1v-8.2c0-0.2,0.2-0.3,0.3-0.3c0.2,0,0.3,0.2,0.3,0.3
	v8.1C89.8,97.4,88.9,98.2,87.9,98.2z"/>
<path class="st1" d="M88.7,100.3H75.9c-1.8,0-3.3-1.4-3.3-3.2V70.3c0-1.8,1.4-3.2,3.3-3.2h12.8c1.8,0,3.3,1.4,3.3,3.2v1.4v3.7
	c0,0.2-0.2,0.3-0.3,0.3l0,0c-0.2,0-0.3-0.2-0.3-0.3v-3.7v-1.4c0-1.4-1.1-2.5-2.5-2.5h-13c-1.4,0-2.5,1.1-2.5,2.5v26.8
	c0,1.4,1.1,2.5,2.5,2.5h12.8c1.4,0,2.5-1.1,2.5-2.5v-9.3c0-0.2,0.2-0.3,0.3-0.3l0,0c0.2,0,0.3,0.2,0.3,0.3v9.3
	C91.9,98.9,90.4,100.3,88.7,100.3z"/>
<g>
	<path class="st11" d="M89.4,84.1c1.1,0,2.1,0.3,3,0.7c-0.6,2-1.7,3.3-3,3.3V84.1z"/>
	<path class="st11" d="M89.4,88.2L89.4,88.2c-1.9,0-3.6-0.8-4.8-2l0,0c0.5-0.5,1.1-1,1.8-1.3C87,86.8,88.2,88.2,89.4,88.2z"/>
	<path class="st11" d="M89.4,81.6v2.5c-1.1,0-2.1,0.3-3,0.7c-0.3-1-0.5-2-0.5-3.2H89.4L89.4,81.6z"/>
	<path class="st11" d="M92.9,81.6H96c0,1.8-0.7,3.3-1.8,4.5c-0.5-0.5-1.1-1-1.8-1.3C92.7,83.9,92.9,82.8,92.9,81.6z"/>
	<path class="st11" d="M91.6,75.4c1,0.3,1.9,0.9,2.7,1.7c-0.5,0.5-1.1,1-1.8,1.3c-0.6-2-1.7-3.3-3-3.3
		C90.2,75.1,90.9,75.2,91.6,75.4L91.6,75.4z"/>
	<path class="st12" d="M96.1,81.6H93c0-1.2-0.2-2.3-0.5-3.2c0.7-0.3,1.3-0.8,1.8-1.3C95.4,78.3,96.1,79.9,96.1,81.6z"/>
	<path class="st12" d="M94.2,86.1c-0.7,0.7-1.7,1.4-2.7,1.7c-0.7,0.2-1.4,0.3-2.1,0.3c1.3,0,2.5-1.4,3-3.3
		C93.1,85.2,93.7,85.6,94.2,86.1z"/>
	<path class="st11" d="M92.9,81.6h-3.5v-2.5c1.1,0,2.1-0.3,3-0.7C92.7,79.4,92.9,80.4,92.9,81.6z"/>
	<path class="st12" d="M89.4,81.6h3.5c0,1.2-0.2,2.3-0.5,3.2c-0.9-0.5-1.9-0.7-3-0.7V81.6z"/>
	<path class="st12" d="M92.4,78.4c-0.9,0.5-1.9,0.7-3,0.7V75C90.7,75.1,91.9,76.4,92.4,78.4z"/>
	<path class="st12" d="M89.4,84.1v4.1c-1.3,0-2.5-1.4-3-3.3C87.3,84.4,88.3,84.1,89.4,84.1z"/>
	<path class="st12" d="M89.4,79.1v2.5h-3.5c0-1.2,0.2-2.3,0.5-3.2C87.3,78.8,88.3,79.1,89.4,79.1z"/>
	<path class="st11" d="M89.4,75.1v4.1c-1.1,0-2.1-0.3-3-0.7C87,76.4,88.1,75.1,89.4,75.1L89.4,75.1z"/>
	<path class="st12" d="M89.4,75.1L89.4,75.1c-1.3,0-2.4,1.4-3,3.3c-0.7-0.3-1.3-0.8-1.8-1.3C85.8,75.8,87.5,75.1,89.4,75.1z"/>
	<path class="st11" d="M86.4,78.4c-0.3,1-0.5,2-0.5,3.2h-3.1c0-1.8,0.7-3.3,1.8-4.5C85.1,77.6,85.8,78.1,86.4,78.4z"/>
	<path class="st12" d="M85.9,81.6c0,1.2,0.2,2.3,0.5,3.2c-0.6,0.3-1.3,0.8-1.8,1.3l0,0c-1.1-1.2-1.8-2.8-1.8-4.5H85.9L85.9,81.6z"/>
	<path d="M89.4,88.5c-1.4,0-2.7-1.4-3.4-3.6c-0.3-1-0.5-2.1-0.5-3.3c0-1.2,0.2-2.3,0.5-3.3c0.7-2.2,1.9-3.6,3.3-3.6c0,0,0,0,0.1,0
		c1.4,0,2.7,1.4,3.4,3.6c0.3,1,0.5,2.1,0.5,3.3c0,1.2-0.2,2.3-0.5,3.3C92.2,87.2,90.8,88.5,89.4,88.5z M89.4,75.4L89.4,75.4
		c-1.1,0-2.1,1.2-2.7,3.1c-0.3,1-0.5,2-0.5,3.1s0.2,2.2,0.5,3.1c0.6,1.9,1.6,3.1,2.7,3.1s2.1-1.2,2.7-3.1c0.3-1,0.5-2,0.5-3.1
		s-0.2-2.2-0.5-3.1C91.5,76.6,90.5,75.4,89.4,75.4L89.4,75.4z"/>
	<path d="M89.4,79.5c-1.1,0-2.2-0.3-3.2-0.7c-0.7-0.3-1.3-0.8-1.9-1.4c-0.1-0.1-0.1-0.3,0-0.5c0.2-0.1,0.3-0.1,0.5,0
		c0.5,0.5,1,0.9,1.7,1.2c0.9,0.5,1.8,0.7,2.9,0.7c1,0,2-0.2,2.9-0.7c0.6-0.3,1.2-0.7,1.7-1.2c0.1-0.2,0.3-0.2,0.5,0
		c0.1,0.1,0.2,0.3,0,0.5c-0.5,0.6-1.1,1-1.9,1.4C91.6,79.2,90.6,79.5,89.4,79.5z"/>
	<path d="M94.2,86.5c-0.1,0-0.2-0.1-0.3-0.1c-0.5-0.5-1-0.9-1.7-1.2c-0.9-0.5-1.8-0.7-2.9-0.7c-1,0-2,0.2-2.9,0.7
		c-0.6,0.3-1.2,0.7-1.7,1.2c-0.1,0.1-0.3,0.2-0.5,0c-0.1-0.1-0.2-0.3,0-0.5c0.5-0.6,1.1-1,1.8-1.4c1-0.5,2.1-0.7,3.2-0.7
		s2.2,0.3,3.2,0.7c0.7,0.3,1.3,0.8,1.9,1.4C94.4,86,94.4,86.2,94.2,86.5C94.4,86.5,94.3,86.5,94.2,86.5z"/>
	<path d="M96.1,82H82.8c-0.2,0-0.3-0.2-0.3-0.3c0-0.2,0.2-0.3,0.3-0.3h13.3c0.2,0,0.3,0.2,0.3,0.3C96.4,81.8,96.3,82,96.1,82z"/>
	<path d="M89.4,88.5c-0.2,0-0.3-0.2-0.3-0.3V75.1c0-0.2,0.2-0.3,0.3-0.3c0.2,0,0.3,0.2,0.3,0.3v13.1C89.8,88.4,89.6,88.5,89.4,88.5z
		"/>
	<path d="M89.4,88.5L89.4,88.5c-1.9,0-3.7-0.8-5.1-2.1c-1.3-1.3-1.9-3-1.9-4.8s0.7-3.5,1.9-4.8c1.3-1.4,3.1-2.1,5-2.1l0,0
		c0.7,0,1.5,0.1,2.2,0.3l0,0c1,0.3,2,1,2.8,1.8c1.3,1.3,1.9,3,1.9,4.8s-0.7,3.5-1.9,4.8c-0.8,0.8-1.8,1.4-2.8,1.8
		C91,88.4,90.2,88.5,89.4,88.5z M89.4,75.4c-1.7,0-3.3,0.7-4.5,1.9c-1.1,1.2-1.7,2.7-1.7,4.3c0,1.6,0.6,3.1,1.7,4.3
		c1.2,1.2,2.8,1.9,4.5,1.9l0,0c0.7,0,1.4-0.1,2-0.3c1-0.3,1.8-0.8,2.5-1.6c1.1-1.2,1.7-2.7,1.7-4.3c0-1.6-0.6-3.1-1.7-4.3
		c-0.7-0.7-1.6-1.3-2.5-1.6l0,0C90.8,75.5,90.1,75.4,89.4,75.4L89.4,75.4L89.4,75.4z"/>
</g>
<path class="st3" d="M80.7,79.7h-1.8c-0.1,0-0.3-0.1-0.3-0.3c0-0.1,0.1-0.3,0.3-0.3h1.8c0.1,0,0.3,0.1,0.3,0.3
	C81,79.5,80.9,79.7,80.7,79.7z"/>
<path class="st3" d="M81,81.4h-3.2c-0.1,0-0.3-0.1-0.3-0.3c0-0.1,0.1-0.3,0.3-0.3H81c0.1,0,0.3,0.1,0.3,0.3
	C81.3,81.2,81.2,81.4,81,81.4z"/>
<path class="st3" d="M80.7,83.1h-4.4c-0.1,0-0.3-0.1-0.3-0.3s0.1-0.3,0.3-0.3h4.4c0.1,0,0.3,0.1,0.3,0.3S80.9,83.1,80.7,83.1z"/>
<path class="st3" d="M81.3,84.8h-3.5c-0.1,0-0.3-0.1-0.3-0.3c0-0.1,0.1-0.3,0.3-0.3h3.5c0.1,0,0.3,0.1,0.3,0.3
	C81.6,84.7,81.4,84.8,81.3,84.8z"/>
</svg>
