<?xml version="1.0" encoding="utf-8"?>
<!-- Generator: Adobe Illustrator 28.1.0, SVG Export Plug-In . SVG Version: 6.00 Build 0)  -->
<svg version="1.1" id="Layer_1" xmlns="http://www.w3.org/2000/svg" xmlns:xlink="http://www.w3.org/1999/xlink" x="0px" y="0px"
	 viewBox="0 0 103.4 117.7" style="enable-background:new 0 0 103.4 117.7;" xml:space="preserve">
<style type="text/css">
	.st0{fill:#FF0B00;}
	.st1{fill:#606161;}
	.st2{fill:#F60034;}
	.st3{fill:#FEB604;}
	.st4{fill:none;stroke:#606161;stroke-miterlimit:10;}
	.st5{opacity:0.2;fill:#FDF6E6;}
	.st6{fill:url(#SVGID_1_);}
	.st7{fill:#FEBB09;}
	.st8{fill:#010305;}
	.st9{fill:#02A2CB;}
	.st10{fill:#FCB610;}
</style>
<path class="st0" d="M79.2,6.9l4,1.8c0.3,0.1,0.4,0.4,0.4,0.7l-0.4,1.8c-0.2,1,0.3,2,1.2,2.4l0,0l1.5-4c0.3-0.7-0.1-1.6-0.8-1.9
	l-5.3-2.3L77,4.3L71.9,2c-0.8-0.3-1.6,0-2,0.7L68,6.5l0,0c0.9,0.4,2,0.1,2.6-0.8l1.1-1.6c0.1-0.2,0.4-0.3,0.6-0.2l4.1,1.8
	c-1,2.5-2.1,5.1-3.2,7.6l-0.6,1.5c-1.1,2.5-2.2,5.1-3.3,7.5l-1.9-0.6c-0.7-0.2-1.4,0.1-1.7,0.8l0,0l3,1.3l2.8,1.2l3,1.3l0,0
	c0.3-0.7,0-1.4-0.6-1.8l-1.8-1c1-2.5,2.1-5.1,3.2-7.6l0.6-1.5C76.9,11.9,78,9.4,79.2,6.9z"/>
<g>
	<g>
		<g>
			<path class="st1" d="M88.1,71.4L84.9,72c0,0-0.1,0-0.1,0l-0.1-1.2c0,0,0,0,0,0l2.7-0.6c0,0,0,0,0,0L88.1,71.4L88.1,71.4z"/>
			<path class="st1" d="M88.2,65.6l-3.4-3.7c-0.1-0.1-0.1,0-0.1,0.1l0.8,3.8c0.2,0,0.3,0.1,0.3,0.3c0,0.2-0.1,0.4-0.3,0.5
				c-0.2,0-0.4-0.1-0.5-0.3c0-0.2,0.1-0.3,0.2-0.4L84.4,62c0-0.1-0.1-0.1-0.1,0l-1.9,4.9c0,0,0,0.1,0,0.1l2.3,3.4c0,0,0,0,0.1,0
				l2.7-0.6c0,0,0.1,0,0.1-0.1L88.2,65.6C88.2,65.6,88.2,65.6,88.2,65.6z"/>
		</g>
		
			<rect x="86.5" y="71.5" transform="matrix(0.9797 -0.2004 0.2004 0.9797 -14.1916 19.2787)" class="st2" width="3.3" height="16.5"/>
	</g>
	<g>
		
			<rect x="89.9" y="66.8" transform="matrix(0.9996 -2.666485e-02 2.666485e-02 0.9996 -1.9678 2.4674)" class="st3" width="3.3" height="16.5"/>
		<g>
			<path class="st4" d="M93,66.8l-3.3,0.1c0,0,0,0,0,0l0.2-1.2c0,0,0,0,0,0l2.8-0.1c0,0,0,0,0,0L93,66.8C93,66.8,93,66.8,93,66.8z"
				/>
			<path class="st4" d="M94.1,61.1l-2.7-4.3c0-0.1-0.1,0-0.1,0l0.1,3.9c0.2,0,0.3,0.2,0.3,0.4c0,0.2-0.2,0.4-0.4,0.4
				c-0.2,0-0.4-0.2-0.4-0.4c0-0.2,0.1-0.3,0.3-0.4L91,56.9c0-0.1-0.1-0.1-0.1,0l-2.7,4.4c0,0,0,0,0,0.1l1.6,3.7c0,0,0,0,0.1,0
				l2.7-0.1c0,0,0.1,0,0.1-0.1L94.1,61.1C94.1,61.1,94.1,61.1,94.1,61.1z"/>
		</g>
	</g>
	<g>
		<polygon class="st1" points="98.6,71.1 95.4,70.3 95.7,69 98.9,69.8 98.6,71.1 		"/>
		
			<rect x="93.4" y="70.5" transform="matrix(0.9706 0.2406 -0.2406 0.9706 21.7328 -20.5529)" class="st2" width="3.3" height="16.5"/>
		<g>
			<polygon class="st4" points="98.9,69.3 99.5,66.8 98.6,63.7 96.5,66.1 95.9,68.6 			"/>
			<line class="st4" x1="97.4" y1="65" x2="99.1" y2="65.4"/>
		</g>
	</g>
	<g>
		<path class="st1" d="M91.2,103.9L91.2,103.9c-4.2,0-7.5-3.4-7.5-7.5V82.9c0-0.6,0.5-1,1-1h13.3c0.6,0,1,0.5,1,1v13.2
			C99,100.4,95.5,103.9,91.2,103.9z"/>
		<rect x="83.6" y="84.3" class="st5" width="15.3" height="2"/>
		<rect x="83.6" y="87.7" class="st5" width="15.3" height="2"/>
	</g>
</g>
<g>
	
		<linearGradient id="SVGID_1_" gradientUnits="userSpaceOnUse" x1="60.9706" y1="987.3017" x2="29.4663" y2="890.3416" gradientTransform="matrix(1 0 0 1 0 -872)">
		<stop  offset="0" style="stop-color:#FAEF59"/>
		<stop  offset="0.6732" style="stop-color:#EF7222"/>
		<stop  offset="1" style="stop-color:#D11E4B"/>
	</linearGradient>
	<path class="st6" d="M53.5,30.4c-1.3-0.1-2.5-0.1-3.9,0.1c-1.3,0.2-2.7,0.5-4,1c-2.7,1-5.4,2.7-8,4.7c-2.6,2.1-4.9,4.6-7.1,7.4
		c-2.2,2.8-3.9,5.6-5.1,8.6c-0.6,1.5-1.1,3-1.4,4.6c-0.2,0.8-0.3,1.6-0.4,2.4c-0.1,0.8-0.1,1.5-0.1,2.2s0.1,1.3,0.1,1.7
		c0.1,0.4,0.1,0.5,0,0.4c-0.2-0.2-0.7-0.4-0.9-0.3c-0.1,0-0.1,0,0,0.1c0,0,0.1,0,0.3,0c0.1,0,0.2,0,0.4,0c0.5-0.1,1.1-0.3,1.7-0.6
		s1.3-0.7,2.1-1.1c1.4-0.9,3-2,4.6-3.2c0.8-0.6,1.7-1.2,2.6-1.8c0.9-0.6,1.9-1.2,2.8-1.8c2-1.1,4.1-2.1,6.3-2.9s4.8-1.2,7.4-1.1
		c2.6,0.1,5.2,0.7,7.5,1.9l0.8,0.5l0.4,0.2c0.1,0.1,0.4,0.2,0.5,0.3c0.7,0.5,1.3,1.1,1.9,1.8c1.1,1.3,1.8,3.2,1.9,5
		c0.1,1.7-0.5,3.5-1.3,4.8c-0.4,0.6-0.8,1.2-1.1,1.6c-0.4,0.4-0.7,0.9-1.1,1.3c-1.5,1.7-3.3,3.1-5.1,4.3c-1.8,1.2-3.5,2.2-5.2,3.3
		c-1.6,1-3.1,2.1-4.5,3.3c-0.7,0.6-1.3,1.2-1.9,1.9c-0.3,0.3-0.6,0.7-0.8,1l-0.4,0.5c-0.1,0.2-0.2,0.3-0.3,0.5
		c-0.8,1.3-1.3,3.1-1.1,4.2c0.1,0.3,0.1,0.5,0.2,0.6c0.1,0.1,0.3,0.3,0.7,0.6c0.7,0.5,1.5,0.8,2.3,1.1c1.6,0.5,3.4,0.6,5.1,0.1
		c0.8-0.2,1.7-0.6,2.5-1s1.6-1,2.5-1.6c0.5-0.3,1-0.6,1.6-0.7c0.3-0.1,0.6-0.1,1-0.2c0.4,0,0.7,0,1.1,0.1c1.4,0.4,2.2,1.6,2.6,2.6
		c0.4,1.1,0.4,2.3,0.4,3.3c-0.1,1-0.2,2-0.2,2.9c0,1.9,0.3,3.9,1.1,5.7c0.4,0.9,0.9,1.7,1.6,2.5c0.7,0.7,1.6,1.2,2.6,1.2
		c-1,0.1-2-0.4-2.8-1c-0.8-0.7-1.4-1.5-1.9-2.4c-1-1.8-1.5-3.8-1.7-5.9s0.2-4.1-0.6-5.6c-0.4-0.7-1-1.3-1.6-1.4
		c-0.5-0.1-1.2,0.2-1.9,0.7s-1.5,1.2-2.4,1.8C52,91.2,51,91.7,50,92.1c-2.1,0.8-4.5,0.9-6.8,0.4c-1.1-0.2-2.2-0.7-3.2-1.2
		c-0.5-0.2-1.1-0.6-1.7-1.2c-0.3-0.3-0.5-0.7-0.7-1s-0.3-0.7-0.4-1c-0.4-1.4-0.3-2.7-0.1-3.9c0.2-1.2,0.6-2.3,1.1-3.4
		c0.1-0.3,0.3-0.6,0.4-0.8l0.4-0.7c0.3-0.5,0.6-0.9,0.9-1.4c0.6-0.9,1.3-1.7,2.1-2.6c1.5-1.6,3.2-3,4.8-4.3c3.3-2.5,6.3-4.6,8.3-7.4
		c0.3-0.3,0.5-0.7,0.7-1c0.3-0.4,0.4-0.7,0.5-0.9c0.2-0.5,0.2-0.7,0.1-0.9c-0.1-0.2-0.2-0.3-0.3-0.5c-0.1-0.1-0.2-0.2-0.3-0.2h-0.1
		L55.4,60l-0.5-0.2c-2.7-1.1-5.5-0.7-8.4,0.5c-1.5,0.6-2.9,1.5-4.3,2.5c-0.7,0.5-1.4,1-2.1,1.6c-0.7,0.6-1.4,1.2-2.1,1.8
		c-1.5,1.3-3,2.7-4.9,4.1c-0.9,0.7-1.9,1.4-3,2s-2.4,1.2-3.8,1.7c-0.3,0.1-0.7,0.2-1.1,0.3s-0.7,0.2-1.2,0.2c-0.9,0.1-1.9,0.2-3,0
		c-1.1-0.1-2.2-0.5-3.3-1c-1.1-0.5-2-1.3-2.8-2.1c-1.6-1.7-2.3-3.4-2.8-4.9s-0.7-2.9-0.9-4.2C11.1,61,11,59.7,11,58.5
		s0.1-2.4,0.2-3.6c0.3-2.4,0.8-4.7,1.4-7c1.4-4.5,3.5-8.8,5.8-12.5c2.4-3.8,5.1-7.4,8.4-10.7s7.2-6.3,11.8-8.6
		c2.3-1.2,4.7-2,7.3-2.7c2.6-0.6,5.3-1,8-1c5-0.1,9,3.9,9.1,8.8s-3.9,9-8.8,9.1C54.1,30.4,53.8,30.4,53.5,30.4L53.5,30.4z"/>
	<g>
		
			<rect x="84.1" y="26.6" transform="matrix(0.2638 -0.9646 0.9646 0.2638 32.1766 105.9152)" class="st1" width="2.7" height="10.6"/>
		<polygon class="st1" points="73,97.7 89.7,36.3 79.5,33.5 62.7,94.9 62.7,94.9 64,99.7 69.4,101.2 		"/>
		<polygon class="st1" points="64.5,101.7 65.4,105.2 68,102.6 		"/>
		<path class="st1" d="M91.4,30.3l1-3.6c0.4-1.4-0.5-2.9-1.9-3.3L85.4,22c-1.4-0.4-2.9,0.5-3.3,1.9l-1,3.6L91.4,30.3z"/>
	</g>
</g>
<g>
	<path class="st7" d="M65,51.9c-0.6,0-1.2-0.1-1.8-0.3c-1.6-0.5-3-1.6-3.8-3c-1.7-3.1-0.5-6.9,2.5-8.6c1.5-0.8,3.2-1,4.8-0.5
		c1.6,0.5,3,1.6,3.8,3c1.7,3.1,0.5,6.9-2.5,8.6C67.1,51.6,66.1,51.9,65,51.9z M65,39.6c-1,0-2,0.2-2.8,0.7c-2.9,1.6-3.9,5.2-2.4,8
		c0.8,1.4,2,2.4,3.5,2.8c1.5,0.4,3.1,0.3,4.5-0.5c2.9-1.6,3.9-5.2,2.4-8c-0.8-1.4-2-2.4-3.5-2.8C66.1,39.7,65.5,39.6,65,39.6z"/>
	<g>
		<path class="st8" d="M61.1,38.7c0.3,0.5,0.5,0.9,0.8,1.4c0.6,1.1,1.2,2.2,1.8,3.3c0.7,1.3,1.5,2.7,2.2,4c0.6,1.2,1.3,2.3,1.9,3.5
			c0.3,0.6,0.6,1.1,0.9,1.7c0,0,0,0,0,0c0.2,0.3,0.7,0,0.5-0.3c-0.3-0.5-0.5-0.9-0.8-1.4c-0.6-1.1-1.2-2.2-1.8-3.3
			c-0.7-1.3-1.5-2.7-2.2-4c-0.6-1.2-1.3-2.3-1.9-3.5c-0.3-0.6-0.6-1.1-0.9-1.7c0,0,0,0,0,0C61.4,38,60.9,38.3,61.1,38.7L61.1,38.7z"
			/>
		<path class="st8" d="M71.9,41.4c-0.5,0.3-0.9,0.5-1.4,0.8c-1.1,0.6-2.2,1.2-3.3,1.8c-1.3,0.7-2.7,1.5-4,2.2
			c-1.2,0.6-2.3,1.3-3.5,1.9c-0.6,0.3-1.1,0.6-1.7,0.9c0,0,0,0,0,0c-0.3,0.2,0,0.7,0.3,0.5c0.5-0.3,0.9-0.5,1.4-0.8
			c1.1-0.6,2.2-1.2,3.3-1.8c1.3-0.7,2.7-1.5,4-2.2c1.2-0.6,2.3-1.3,3.5-1.9c0.6-0.3,1.1-0.6,1.7-0.9c0,0,0,0,0,0
			C72.6,41.7,72.3,41.2,71.9,41.4L71.9,41.4z"/>
	</g>
</g>
<g>
	<g>
		<path class="st9" d="M38.2,103c10.4,8.3,19.7,7.9,25.7,6.1c6.5-2,10.5-6,10.6-6l0.4,0.4c0,0-4.2,4.1-10.8,6.2
			c-6.1,1.9-15.6,2.3-26.2-6.1L38.2,103z"/>
	</g>
	<g>
		<path class="st9" d="M74.1,102.8c0-0.6,0.5-1.1,1.1-1.1c0.6,0,1.1,0.5,1.1,1.1c0,0.6-0.5,1.1-1.1,1.1
			C74.5,103.8,74.1,103.4,74.1,102.8z"/>
	</g>
	<g>
		<path class="st9" d="M37,102.8c0-0.6,0.5-1.1,1.1-1.1c0.6,0,1.1,0.5,1.1,1.1c0,0.6-0.5,1.1-1.1,1.1C37.5,103.8,37,103.4,37,102.8z
			"/>
	</g>
	<g>
		
			<rect x="55.4" y="109.5" transform="matrix(-1 -1.224647e-16 1.224647e-16 -1 112.6892 220.8201)" class="st9" width="1.8" height="1.8"/>
	</g>
</g>
<g>
	<g>
		<path class="st7" d="M33.6,86.3c-2.3,0.6-4.7,0.7-7,0.5C24.3,86.6,22,86,19.8,85c-1.2-0.5-2.4-1.2-3.4-1.9
			c-0.1-0.1-0.2,0.1-0.1,0.2c2,1.3,4.1,2.4,6.4,3c2.3,0.6,4.7,0.9,7,0.8c1.3-0.1,2.7-0.3,4-0.6C33.8,86.4,33.8,86.2,33.6,86.3
			L33.6,86.3z"/>
	</g>
	<path class="st7" d="M29,86.9c-1,1.7-2.4,3.7-4.1,5.1c-0.9,0.8-2,1.5-3.3,1.8c-0.6,0.2-1.3,0.2-1.7,0c-0.7-0.4-0.6-1.2-0.2-1.9
		c0.5-0.7,1.2-1.3,2-1.8C23.8,88.6,26.5,87.8,29,86.9"/>
	<path class="st7" d="M22.5,86.1c-1,1.1-2.4,2.5-3.9,3.3c-0.8,0.4-1.8,0.8-2.8,0.9c-0.5,0-1,0-1.3-0.3c-0.5-0.4-0.3-1,0.2-1.5
		c0.5-0.5,1.2-0.8,1.8-1.1C18.3,86.7,20.5,86.4,22.5,86.1"/>
	<path class="st7" d="M21.6,85.9c-2,0-4.4-0.3-6.4-1c-1.1-0.4-2.3-1-3.2-1.9c-0.4-0.4-0.8-1-0.8-1.5c0-0.8,0.8-1.1,1.6-1.1
		c0.9,0,1.8,0.4,2.6,0.8C17.6,82.3,19.6,84.2,21.6,85.9"/>
	<path class="st7" d="M26.9,87c-1.4-0.8-3.1-2.1-4.3-3.5c-0.7-0.8-1.4-1.8-1.7-2.8c-0.2-0.5-0.3-1.1-0.1-1.5
		c0.2-0.6,0.9-0.5,1.5-0.2c0.6,0.4,1.1,1.1,1.6,1.7C25.1,82.5,25.9,84.8,26.9,87"/>
	<path class="st7" d="M30.5,86.9c-0.9-0.5-2-1.3-2.8-2.2c-0.4-0.5-0.9-1.1-1.1-1.8c-0.1-0.3-0.2-0.7-0.1-1c0.1-0.4,0.6-0.4,0.9-0.1
		c0.4,0.3,0.7,0.7,1,1.1C29.3,84.1,29.9,85.6,30.5,86.9"/>
</g>
<path class="st0" d="M17.5,23.3l-1.1-3.3c-0.8-2.2-2.5-3.9-4.7-4.7l-3.3-1.1l3.4-1.2c2.1-0.8,3.8-2.4,4.5-4.5l1.2-3.4l0.9,2.7
	c0.8,2.6,2.9,4.7,5.6,5.6l2.7,0.9l-2.8,1.1c-2.4,0.9-4.1,1.7-5.2,5.2L17.5,23.3z"/>
<g>
	<path class="st10" d="M44.8,46c-2.6,0-4.7-2.1-4.7-4.7c0-2.6,2.1-4.7,4.7-4.7c2.6,0,4.7,2.1,4.7,4.7C49.5,43.9,47.4,46,44.8,46z
		 M44.8,38.1c-1.8,0-3.3,1.5-3.3,3.3c0,1.8,1.5,3.3,3.3,3.3c1.8,0,3.3-1.5,3.3-3.3C48.1,39.6,46.6,38.1,44.8,38.1z"/>
</g>
</svg>
