<?xml version="1.0" encoding="utf-8"?>
<!-- Generator: Adobe Illustrator 28.1.0, SVG Export Plug-In . SVG Version: 6.00 Build 0)  -->
<svg version="1.1" id="Layer_1" xmlns="http://www.w3.org/2000/svg" xmlns:xlink="http://www.w3.org/1999/xlink" x="0px" y="0px"
	 viewBox="0 0 92.3 92.3" style="enable-background:new 0 0 92.3 92.3;" xml:space="preserve">
<style type="text/css">
	.st0{fill:#FF6800;}
	.st1{fill:url(#SVGID_1_);}
	.st2{fill:url(#SVGID_00000092452538580568740230000012117894304550282669_);}
</style>
<g>
	<path class="st0" d="M46.1,92.3C20.7,92.3,0,71.6,0,46.1S20.7,0,46.1,0s46.1,20.7,46.1,46.1S71.6,92.3,46.1,92.3z M46.1,1.4
		C21.4,1.4,1.4,21.4,1.4,46.1s20.1,44.8,44.8,44.8s44.8-20.1,44.8-44.8S70.8,1.4,46.1,1.4z"/>
	<g>
		<circle class="st0" cx="86.1" cy="46.1" r="2.2"/>
		<circle class="st0" cx="6.1" cy="46.1" r="2.2"/>
	</g>
	<g>
		<linearGradient id="SVGID_1_" gradientUnits="userSpaceOnUse" x1="27.4475" y1="40.3749" x2="64.8073" y2="40.3749">
			<stop  offset="0" style="stop-color:#FF6800"/>
			<stop  offset="1" style="stop-color:#E14900"/>
		</linearGradient>
		<path class="st1" d="M63.8,34.8l-17.6,9.8l-17.6-9.8c-0.3-0.2-0.8-0.1-1,0.3c-0.2,0.3-0.1,0.8,0.3,1l17.9,10
			c0.1,0.1,0.2,0.1,0.3,0.1h0.1c0.1,0,0.2,0,0.3-0.1l17.9-10c0.3-0.2,0.5-0.6,0.3-1C64.5,34.7,64.1,34.6,63.8,34.8z"/>
		
			<linearGradient id="SVGID_00000016790362817576120560000002060457949132441786_" gradientUnits="userSpaceOnUse" x1="10.5141" y1="46.1279" x2="81.7404" y2="46.1279">
			<stop  offset="0" style="stop-color:#FF6800"/>
			<stop  offset="1" style="stop-color:#E14900"/>
		</linearGradient>
		<path style="fill:url(#SVGID_00000016790362817576120560000002060457949132441786_);" d="M46.1,10.5c-19.7,0-35.6,15.9-35.6,35.6
			s15.9,35.6,35.6,35.6c19.7,0,35.6-15.9,35.6-35.6S65.8,10.5,46.1,10.5z M66.9,56.7c0,1.7-1.4,3.1-3.1,3.1H28.4
			c-1.7,0-3.1-1.4-3.1-3.1V35.5c0-1.7,1.4-3.1,3.1-3.1h35.4c1.7,0,3.1,1.4,3.1,3.1V56.7z"/>
	</g>
</g>
</svg>
