<?xml version="1.0" encoding="utf-8"?>
<!-- Generator: Adobe Illustrator 28.3.0, SVG Export Plug-In . SVG Version: 6.00 Build 0)  -->
<svg version="1.1" id="Layer_2_00000180360909001968671980000011941295909675066519_"
	 xmlns="http://www.w3.org/2000/svg" xmlns:xlink="http://www.w3.org/1999/xlink" x="0px" y="0px" viewBox="0 0 474.7 311.4"
	 style="enable-background:new 0 0 474.7 311.4;" xml:space="preserve">
<style type="text/css">
	.st0{fill:#FBECDA;}
</style>
<g>
	<path class="st0" d="M234.7,140.7c-6.3-0.4-14.8-0.1-12.2,8.3c2.3,4.4,8.4,3.2,12.4,3.3l0,0c4-0.1,11.4,1,12.7-4.1
		C249.1,140.1,240.7,140.2,234.7,140.7z M244.5,147.3c-1,3.2-6.4,1.8-9.7,2c-3.2,0.2-8.8,1.1-9.5-2.2c-0.1-0.6-0.1-1.4,0.2-1.9
		c1.5-2.6,7.2-1.4,9.4-1.4l0,0C237.7,143.8,245.6,142.2,244.5,147.3z"/>
	<path class="st0" d="M441.8,82.7c-0.6-2.8-5.5-2.6-8.9-2.9V78c0,0,0,0,0,0c0,0,0,0,0,0c0,0,0,0,0-0.1c2.3-1.6,6.5-3.9,7-5.6
		c0.4-0.8,0.8-1.8,0.6-2.8c-0.2-1.1-1.2-1.8-2.2-2.1c-0.3-0.1-0.7-0.2-1-0.2c-0.7,0-1.9,0.1-2.8,0c-5.3-0.4,7.7-6.2,7.4-12
		c0-2.8-2.9-2.6-5.3-2.8c-0.7-0.1-1.3-0.1-1.9-0.3c-0.2-0.1-0.2-0.3-0.1-0.5c2.1-3.3,7.1-8.6,3.9-12.2c-3.7-4.3-17.5,8.6-13.5,2
		c1.5-2.7,3.1-5.6,3.1-8.7c0.1-1.9,0.1-3.9-0.9-5.5c-3.9-5.3-9.3,3-12.6,5.8c-1.5,1.2-1-2-1.1-2.6c0.2-2,0.7-4,0.3-6
		c-0.5-2.6-1.8-5.1-3.4-7.2c-0.5-0.8-1.3-1.7-2.2-2c-2.2-0.8-4.4,3.4-5.9,5.8c-0.5,0.7-1.2,1.7-1.7,1.6c-1.5-0.4-1.5-7.6-3.9-10
		c-1.6-2-4.4-3.1-6.9-2.4c-5.8,1.8-3.5,11.1-4.8,15.8c-0.1,0.5-0.3,0.9-0.6,1.3c-3.2-2.4-3.6-9.9-5.3-13.6c-1.7-3.7-5.1-7.1-9.1-7
		c-1.5,0-3,0.6-3.7,1.9c-1,1.8,0.1,3.9,1,5.7c8,16,8.1,39.3-1.1,56.1l-51.6,25.8c-17.4,2.8-34.8,4.4-52.4,5.9
		c-1.4,0.1-2.8-0.5-3.9-1.4c-11.7-11-30.6-12.9-43.7-3.4c-1.2,0.8-2.3,1.7-3.3,2.7c-1.4,1.3-3,2.8-5,2.7
		c-12.4-0.9-25.4-1.5-38.3-3.2l-58.2-29.1c0,0.1,0.1,0.1,0.1,0.2c0,0-0.1,0-0.1,0c-2.3-4.8-3.9-10.1-5.2-16
		c-2.8-13-2.2-27.7,4.4-39.5c1.5-2.6,0.7-5.6-2.1-6.3c-1.2-0.3-2.7-0.1-3.9,0.3c-7.9,2.7-8.4,14.4-11.8,20.4c-0.1,0-0.2-0.1-0.3-0.2
		c-0.1-0.2-0.1-0.4-0.2-0.6c-1-5.6,0.8-16.6-6.4-16.8c-1.1,0-2,0.2-3,0.6c-3.3,1.5-4.5,5.3-5.2,8.6c-0.2,0.8-0.2,1.9-0.5,2.7
		c-0.2,0.4-0.4,0.7-0.6,0.7c-0.3,0-0.7-0.2-0.9-0.5c-0.5-0.5-0.8-1.1-1.2-1.7c-1.3-2.3-2.8-6.7-6.2-4.9c-0.7,0.4-1.4,1.2-1.8,1.9
		c-1.8,2.9-3.6,6-3.4,9.4c0.1,1.6,0.5,3.2,0.4,4.8c0,5.8-7.3-9.2-12.2-5.9c-2.9,1.7-2.5,5.7-2.1,8.6c0.5,2.9,2.7,5.2,3.6,8
		c1,4.3-9.3-6.4-13-3.9c-4.1,2.4-1.1,8.5,1.6,11.5c0.4,0.6,1.3,1.3,1.1,2.1c-0.4,0.7-1.5,0.5-2.2,0.5c-0.8,0-1.6,0-2.3,0.1
		c-1.2,0.2-2.3,0.6-2.6,1.9c-1.2,5,7.8,9.9,8.5,11.9c0.1,0.4-0.1,0.6-0.8,0.8c-0.4,0.1-0.8,0-1.3,0c-5.4-0.6-6.8,3.6-2.8,7.2
		c1.6,1.6,3.7,2.4,5.5,3.6v2c-0.6,0.1-1.2,0.1-1.6,0.1c-1.1,0-2.3,0-3.5,0.1c-1.4,0.1-2.8,0.4-3.7,1.4c-0.8,0.9-0.7,2.3-0.1,3.3
		c0.7,1.4,2,2.3,3.3,3.1c0.9,0.7,3.8,1.6,5.5,2.6v2c-0.4,0.1-0.8,0.3-1.2,0.4c-3,1.1-4.7,3.4-3.7,6.5c0.9,2.3,2.7,3.8,4.9,4.8
		c0,0,0,0,0,0c0,0,0,0,0,0v28.2l130.1,65.1c0.6,3.2,1.4,6.3,2.2,9.5c0.2,0.7,0.5,1.3,0.8,1.9c0.3,0.6,0.7,1.2,1.2,1.7H84.6v91.9h306
		v-91.9h-99.3c0.4-0.4,0.8-0.8,1.1-1.3c1.2-2.6,2-5.2,2.7-7.9c0,0,0.1,0,0.1-0.1c0,0,0,0,0,0l137.8-68.9v-30.2c0,0,0,0,0,0
		c0,0,0-0.1,0-0.1c2.1-1,3.8-2.5,4.6-4.9c0.4-1.5,0.3-3-0.7-4.2c-0.9-1.3-2.5-1.7-3.9-2.3v-2c-0.1,0-0.1,0-0.1,0.1c0,0,0-0.1,0-0.1
		C436.4,89.2,442.1,87.3,441.8,82.7z M367.8,95.8c7.9-5.3,15.7-10.7,23.9-15.6c1.8-1,3.6-2,5.6-2.3c0.9-0.1,2.2-0.3,2.8,0.2l0,0
		c0.2,0.2,0.3,0.6,0.4,0.9c0.2,1.3-0.1,2.6-0.8,3.7c-3,4.9-10.9,7.7-14.7,9.5c-6.1,2.8-12.2,5.8-18.5,8.2c-1.3,0.5-3.9,1.9-5.2,1.1
		c-0.7-0.5,0-1.3,0.7-1.9C363.6,98.3,366.1,96.9,367.8,95.8z M363.1,91.8c0.3-0.7,0.9-1.3,1.5-1.8c4.8-3.7,8.9-8.1,13.5-12.1
		c3.6-3,7.1-6.1,10.8-8.9c2-1.4,6.2-3.8,6.3,0.3l0,0c0.2,3.7-3.2,5.8-5.8,7.7c-4.4,3.4-8.6,7-13.4,9.9c-1.4,0.9-2.8,1.7-4.2,2.6
		c-1.1,0.7-2.3,1.4-3.3,2.2c-1.3,0.9-3.9,4.3-5.5,2.6C362.5,93.7,362.7,92.6,363.1,91.8z M370.7,103.4c1.2-0.7,2.5-1.4,3.7-2
		c4-1.8,7.9-3.8,11.8-5.8c3.3-1.7,9.3-5.8,14-5.5c0.9,0.1,2.2,0.6,2.4,1.5l0,0c0,0.7-0.9,1.5-1.5,2c-1.6,1.3-3.5,2-5.3,2.8
		c-6.5,3-13.2,5-20,7.1c-2.1,0.6-4.3,1.1-6.4,1.4C367.7,105.2,370.2,103.6,370.7,103.4z M407.3,97.7c3.6-0.4,7.3-0.7,10.9-1.2
		c2.9-0.3,5.9-0.8,8.9-0.4c1.7,0.3,5,1.1,4.3,3.4c-0.4,1.1-1.6,1.9-2.6,2.4c-1.4,0.6-2.9,0.9-4.3,1.2c-3.7,0.9-7.6,0.9-11.4,0.5
		c-3-0.2-5.9,0-8.9-0.4c-0.8-0.1-1.5-0.3-2-0.6c-0.7-0.4-1.3-1.2-1.7-2.1c-0.2-0.3-0.4-0.7-0.4-1.1l0,0
		C399.9,97.9,406,97.8,407.3,97.7z M433.5,84c0.3,0.1,0.5,0.2,0.6,0.5c0.3,1.3-2,2.5-2.9,3.1c-6.8,3.7-11.7,4.7-18.2,6.5
		c-1.9,0.6-4.5,1.7-6.7,1.8c-0.6,0-1.4,0-1.7-0.4l0,0c-0.4-1.1,0.6-2.7,1.1-3.6c0.2-0.3,0.5-0.6,0.8-0.8c0.8-0.6,1.7-1.1,2.6-1.5
		c3.3-1.5,7-2.2,10.5-3.5C424.2,84.3,428.7,82.8,433.5,84z M432.1,74.2c-0.5,0.6-1.2,1.2-1.8,1.7c-6,4.2-12.8,7.3-19.4,10.4
		c-2.6,1.1-5.4,2.6-8.2,1.3c-0.3-0.2-0.7-0.4-0.9-0.7l0,0c-0.7-1.6,2.4-3.7,3.6-4.4c2-1.2,4.1-2.2,6.1-3.2
		c6.7-3.1,13.2-7.6,20.8-7.3C433.6,72,432.7,73.5,432.1,74.2z M434.8,57L434.8,57c0.3,0.2,0.3,0.5,0.3,0.7c-0.1,1.2-0.7,2.2-1.5,3.1
		c-5.4,6.5-13.2,10.3-20.4,14.5c-2.4,1.2-4.6,3.2-7.2,3.9c-1.2,0.3-1.9-0.1-2.2-1.2c-0.3-0.9-0.5-2.1-0.3-3.1
		c0.5-1.7,2.9-2.4,4.2-3.4c1.8-1.1,3.6-2.3,5.3-3.5C419.5,64.1,426.7,54.2,434.8,57z M432.3,45.3c0.8,0.1,1.9,0.4,1.9,1.3l0,0
		c0,0.2-0.2,0.5-0.3,0.7c-2.3,2.9-5.6,5-8.5,7.3c-0.9,0.7-1.8,1.4-2.6,2.2c-5.3,4.6-11,8.6-16.6,12.7c-1.5,1.2-3.1,2.5-4.8,3.4
		c-0.6,0.3-1.3,0.7-2,0.8c-0.8,0.2-1.1,0-0.8-0.8c0.7-2,2.1-3.9,3.5-5.5c0.8-0.9,1.6-1.6,2.3-2.5c0.3-0.3,0.5-0.7,0.8-1
		c0.2-0.2,0.4-0.4,0.7-0.6c3.6-3.1,6.4-7.1,10-10.1C419.2,50.6,428,45,432.3,45.3z M410,46.2c2.7-3,5.4-6,8-9.1c0.9-1,2-2,3.2-2.5
		c0.2-0.1,0.5-0.1,0.7,0l0,0c0.2,0.1,0.4,0.4,0.4,0.6c0.7,2-0.1,4.2-1.1,6.1c-0.6,1.1-1.4,2.2-2.2,3.3c-0.5,0.6-1,1.2-1.5,1.8
		c-5.6,6.3-11,12.8-17,18.6c-1.1,1.3-4.2,0.5-5-0.7c-0.7-2,4.5-6.4,5.7-8.1C404.2,52.8,407.1,49.5,410,46.2z M399,35.8
		c0.2-0.5,0.4-1.1,0.7-1.8c1.2-2.5,3.6-8.7,6.4-9.1c0.8,0,1.3,0.8,1.7,1.5c1.1,2.7,0.5,5.8,0.4,8.7c-0.1,6.4-0.4,9.5-4.9,14.3
		c-1,1.1-2.1,2.2-3,3.5c-0.7,1-4.4,6.6-5.6,5.8l0,0c-0.2-0.3-0.2-0.8-0.2-1.1c0-0.6,0-1.3,0-1.9c0.2-2.3,0.7-4.4,1.2-6.6
		C396.7,44.6,397.1,40,399,35.8z M385.5,45.4c0.4-2.3,1.1-4.7,1.4-7c0.1-0.6,0.2-1.3,0.2-1.9c0.3-4.4,1-8.9,1.3-13.3
		c0.2-1.8,0.4-3.6,1-5.3c0.1-0.4,0.3-1,0.7-1.2c0.7-0.4,1.5,0.2,2.1,0.8c0.7,0.8,1.2,1.7,1.7,2.6c2.5,5.7,2.9,9.6,1.7,15.7
		c-1.3,6.5-3.2,13-5.9,19.1l0,0c-0.8,0.6-1.9-0.6-2.3-1.3c-1.1-1.6-1.8-3.6-2.1-5.4C385.2,47.4,385.4,46.4,385.5,45.4z M373.1,22.2
		c-0.6-2.1-1.1-4.3-1.1-6.5c0-0.4,0-1,0.1-1.5c0.1-0.4,0.1-0.7,0.4-0.8l0,0c0.2-0.1,0.5,0.1,0.7,0.2c2.3,1.4,3.6,3.9,4.4,6.4
		c3,8.5,6.3,17.4,4.5,26.5c-0.1,0.8-0.5,1.1-1.3,1.1c-1.4,0.1-2.8,0.2-4.2,0.5c-0.6,0.1-0.7-0.4-0.8-0.8c-0.2-2.1,0.1-4.2,0.3-6.3
		C376.7,34.5,375,28.4,373.1,22.2z M365.7,76.3c0.3-1,0.8-2,1.3-2.9c2.4-3.8,4.4-7.9,5.7-12.2c0.3-0.8,0.5-1.6,0.8-2.4
		c0.5-1.5,1.2-3,2.2-4.3c0.7-0.9,1.6-1.7,2.7-2c0.9-0.2,2-0.2,2.8,0.3c1.2,0.8,1.7,2.4,1.6,3.8c-0.2,1.9-1.5,3.3-2.8,4.6
		c-0.7,0.7-1.4,1.4-2.2,2.1c-4.2,3.9-6.9,9.6-11.4,13.2c-0.2,0.1-0.5,0.4-0.7,0.4l0,0C365.6,76.7,365.7,76.5,365.7,76.3z
		 M374.8,72.2c1.7-2,3.6-3.8,5.5-5.7c0.9-0.9,1.8-1.9,2.6-2.8c1.4-1.7,2.6-3.9,4.4-5.2c1.5-1.1,2.4-0.3,2.7,1.2
		c0.5,2.4-1.3,4.8-2.7,6.6c-0.5,0.6-1.1,1.3-1.7,1.8c-7.4,5.9-13.9,12.7-21.1,18.8c-1,0.8-2,1.5-3.1,2.1c-0.2,0.1-0.3,0.2-0.5,0.2
		c-0.1,0-0.1,0-0.1-0.1l0,0C365.5,83.7,370.2,77.8,374.8,72.2z M359.8,107.1c0.4-0.3,0.9-0.2,1.5-0.2c0.2,0,0.4,0,0.6,0.1
		c0.3,0.1,0.2,0.4,0,0.6c-0.4,0.4-1,0.4-1.6,0.5c-0.3,0-0.6,0.1-0.8-0.1l0,0C359.2,107.6,359.6,107.3,359.8,107.1z M358.5,112.1
		c0.8-1.4,3.5-1.7,5.1-2c1.4-0.2,2.7-0.4,4.1-0.8c7.1-2,14.1-4.4,21-7.1c1.5-0.5,3-0.9,4.5-0.9c1.9-0.1,3.8,1.5,2,3.1
		c-1.4,1.2-3.3,1.8-4.9,2.5c-1.1,0.5-2.3,0.9-3.5,1.4c-8.1,3.1-16.9,3-25.3,4.8c-0.6,0.1-1.2,0.2-1.8,0.2c-0.4,0-1-0.1-1.2-0.4l0,0
		C358.4,112.6,358.4,112.3,358.5,112.1z M311.9,132.6L311.9,132.6c0.2-0.1,0.4-0.2,0.6-0.2c0.5-0.1,1.1-0.3,1.6-0.4
		c0.8-0.2,1.6-0.5,2.4-0.6c0.9-0.2,1.3-0.1,1.7,0.7c2.2,3.5,3.9,10.6-1.6,10c-0.5-0.1-0.8-0.2-1.2-0.5c-1-0.7-1.6-2-2.1-3.1
		C313.1,137.5,310.8,133.6,311.9,132.6z M310.6,122.6c0-0.6-0.3-2.3,0.3-2.6l0,0c0.2-0.1,0.8-0.1,1.2,0c0.8,0.1,1.6,0.2,2.2,0.7
		c0.4,0.2,0.6,0.6,0.7,1c1.4,2.8,2,8.4-2.1,7.8C311.6,128.6,310.8,124.4,310.6,122.6z M319,117.5c1.1-0.2,1.7,1,2.2,1.8
		c0.8,1.4,1.4,3.3,1.7,4.9c0.1,0.5,0.3,1.7-0.2,1.9l0,0C319.7,126.3,315.8,118.8,319,117.5z M320.2,129.5L320.2,129.5
		c0.2-0.5,1.3-0.5,1.8-0.6c1.4-0.1,2.9,0.1,4.2,0.6c1.1,0.4,2,1.3,2.6,2.3c0.9,1.5,1.6,3.3,1.1,5c-0.8,2.7-4.1,3.7-5.9,1.2
		c-1.1-1.4-1.6-3.3-2.2-4.9c-0.4-1-0.8-1.9-1.3-2.9C320.4,130.1,320.2,129.8,320.2,129.5z M328.3,110.3L328.3,110.3
		c0.2-0.2,1.3-0.5,1.5-0.2c0.2,0.5-0.2,1.2-0.6,1.5c-0.3,0.2-0.8,0-1.1-0.3C327.9,111,328.1,110.5,328.3,110.3z M329.5,116.9
		c0.4-0.2,0.7,0.1,1,0.4c1,1,3.5,4.3,2.7,5.6l0,0c-0.1,0.1-0.4-0.1-0.5-0.2c-0.3-0.2-0.7-0.6-1-0.9
		C330.8,120.9,328,118.1,329.5,116.9z M330.9,126.8c0.1-0.3,0.3-0.6,0.6-0.8l0,0c0.2-0.1,0.4-0.2,0.6-0.2c3.3-0.3,5.8,2.2,7.1,5
		c0.4,0.8,0.7,1.7,0.6,2.5c-0.1,1.3-1.4,2.1-2.5,2.4c-2.6,0.7-4.7-1.1-5.7-3.3C330.6,130.6,330,128.6,330.9,126.8z M339.4,114.5
		c0.1-0.5,0.7-1,1.3-0.7c0.5,0.2,0.7,0.8,0.9,1.3c0.1,0.4,0.8,2.6,0.3,2.8l0,0c-0.1,0-0.2,0-0.3-0.1c-0.3-0.2-0.5-0.4-0.7-0.6
		c-0.5-0.5-1-1-1.3-1.6C339.4,115.1,339.3,114.8,339.4,114.5z M341.4,122.5L341.4,122.5c0.3-0.1,0.7,0.1,1,0.2
		c2.5,1.2,5.9,3.1,7.1,5.7c0.8,1.9,0,3.6-2.1,3.8C343.1,132.6,336.7,124.5,341.4,122.5z M347.7,109.7c1.8-0.4,4.6,2.2,3,3.9l0,0
		c-1,0.7-3.1-1.2-3.6-2.1C346.8,110.7,346.8,109.9,347.7,109.7z M347.3,106L347.3,106c0.2-0.3,0.6-0.4,0.9-0.5
		c1.1-0.3,2.2-0.4,3.1-0.2c0.6,0.1,1,0.6,0.8,1.2c-0.1,0.5-0.7,0.5-1.1,0.5c-0.5,0-0.9,0.1-1.5,0.1c-0.7,0-1.4,0-2-0.5
		C347.3,106.5,347.2,106.2,347.3,106z M348.2,123.4c-0.3-0.2-0.6-0.4-0.7-0.7l0,0c-0.3-0.7,0.3-1.5,0.8-2c2.1-1.9,5.2-0.1,7.7,0.3
		c2.1,0.5,8.7,1.4,9.1,4.3c0,0.4-0.4,0.8-0.7,0.9c-0.6,0.3-1.3,0.6-2,0.9c-2,0.8-4.3,1.2-6.4,0.7
		C353.1,127.1,350.6,125.1,348.2,123.4z M355.9,118.3c-0.8-0.1-1.5-0.2-2.3-0.2c-0.6,0-1.3,0-1.9-0.2c-0.3-0.1-0.5-0.3-0.5-0.4l0,0
		c0-0.2,0.5-0.4,0.7-0.4c1.7-0.5,3.5-0.9,5.3-1.2c4-0.6,8.1-0.8,12.1-1.1c2.5-0.1,5-0.1,7.5-0.2c1.6-0.1,4.5-0.4,5.6,0.8
		c0.3,0.4,0.1,0.8-0.3,1.1C374.8,122.4,364.5,119.5,355.9,118.3z M354.1,91.1c2.4-2,5.6,4,2.3,5.7c-0.2,0.1-0.4,0.2-0.6,0.1l0,0
		c-0.3-0.1-0.4-0.3-0.5-0.6c-0.2-0.4-0.4-0.9-0.6-1.3c-0.2-0.5-0.5-1.1-0.7-1.6C353.7,92.5,353.4,91.7,354.1,91.1z M354.4,102.7
		c0.2-0.2,0.5-0.6,0.9-0.5l0,0c0.5,0.3,0.4,1.1,0.2,1.6c-0.2,0.6-1.7,1.2-2,0.4C353.4,103.6,354,103.1,354.4,102.7z M352.7,110.3
		c0.3-0.5,1.3-0.3,1.4,0.2c0.2,0.6-0.2,1.6-0.9,1.6l0,0C352.8,112,352.5,110.7,352.7,110.3z M352,96.3L352,96.3
		c0.2,0.1,0.2,0.4,0.2,0.6c0,0.4,0,0.8,0,1.2c-0.1,1.5-0.6,4.3-2.5,3.6c-0.8-0.6-1.1-1.8-1.2-2.7c-0.1-0.5-0.1-1.1,0.4-1.4
		C349.4,97,351.3,95.9,352,96.3z M346.1,94L346.1,94c0.3-0.6,1.6-0.9,2.2-0.9c0.3,0,0.9,0.1,0.6,0.5c-0.7,0.6-2,1.2-2.6,0.9
		C346.1,94.4,346,94.2,346.1,94z M345.1,99.2c0-0.8,0.5-1.2,1.2-0.7c0.8,0.7,1,1.8,1.3,2.8c0,0.4,0.2,0.9-0.1,1.3l0,0
		c-0.3,0.2-0.7,0.2-1,0.2C345.1,102.6,345,100.7,345.1,99.2z M343.6,113.1L343.6,113.1c0.5-0.2,0.9,0.4,1.1,0.7c0.7,1,1.5,2.9,0.8,4
		c-0.2,0.4-0.8,0.5-1.1,0.2c-0.2-0.2-0.3-0.5-0.5-0.7C343.5,116.1,342.6,114,343.6,113.1z M342.2,106.5c0.6,0.2,0.6,0.9,0.3,1.3
		c-0.3,0.4-0.7,0.7-1.1,0.7l0,0c-0.4-0.1-0.7-0.6-0.7-1C340.6,106.9,341.7,106.4,342.2,106.5z M340.6,99c1-0.1,1.4,1.1,1.3,2
		c-0.1,1.1-0.9,3-2.3,2.6l0,0c-0.7-0.4-1.1-1.9-1.1-2.7c0-0.6,0.4-1,0.9-1.3C339.7,99.4,340.2,99.1,340.6,99z M337.6,95.2
		c0.4-0.3,1.1-0.5,1.5-0.1l0,0c0.3,0.4,0,1.1-0.3,1.4c-0.3,0.3-0.9,0.7-1.3,0.3C336.9,96.4,337.1,95.6,337.6,95.2z M334.7,100.7
		L334.7,100.7c0.2-0.2,0.6-0.3,0.8-0.2c1.4,0.1,2.4,1.9,2.1,3.3c-0.1,0.2-0.2,0.5-0.4,0.6c-0.4,0.3-1.1,0.2-1.5-0.1
		c-0.6-0.5-0.8-1.3-1-2.1C334.7,101.8,334.4,101.1,334.7,100.7z M334,106.7L334,106.7c0.5-0.2,1,0.1,1.5,0.2c0.9,0.4,1.9,0.9,2,1.9
		c0.1,0.6-0.4,1.1-1,1.2c-1.1,0.2-1.8-0.6-2.6-1.5c-0.2-0.3-0.5-0.6-0.5-1C333.5,107.2,333.7,106.8,334,106.7z M333.5,113L333.5,113
		c0.3,0,0.5,0.3,0.7,0.5c0.2,0.3,0.5,0.7,0.8,1.1c1.1,1.7,2.8,4.5,2.2,6.4c-0.2,0.5-0.6,0.8-1.1,0.9c-0.4,0.1-0.7-0.1-0.9-0.3
		C333.1,119.8,330,113.3,333.5,113z M331.1,102L331.1,102c0.2,0.2,0.2,0.5,0.2,0.8c-0.1,1.3-0.5,2.4-1.6,3.1c-0.3,0.2-0.7,0.4-1,0.2
		c-0.6-0.4-0.6-1.1-0.8-1.8c-0.1-0.4-0.2-0.8,0-1.2c0.4-0.6,1.2-0.9,2.1-1.1C330.4,101.9,330.8,101.8,331.1,102z M327.4,96.8
		c0.2-0.3,0.6-0.4,1-0.4c0.5-0.1,1.4-0.3,1.8,0l0,0c0.2,0.2,0.2,0.6,0.2,0.9c0,1-1.1,2-2.1,1.5c-0.5-0.2-0.8-0.8-0.9-1.3
		C327.3,97.2,327.3,97,327.4,96.8z M325.5,125.2c-1.3-0.7-2.7-5.7-3.4-7.2c-0.1-0.3-0.2-0.6-0.2-0.8l0,0c0-0.5,0.6-0.8,1-0.5
		c1.2,0.6,3.7,3.1,3.9,4.5C327.1,122.4,327.3,125.7,325.5,125.2z M325.6,111.3L325.6,111.3c0.1,0.1,0.2,0.3,0.3,0.4
		c0,0.1,0.1,0.2,0,0.3c-0.1,0-0.2-0.2-0.3-0.3c0-0.1-0.1-0.1-0.1-0.2C325.4,111.4,325.5,111.3,325.6,111.3z M326,107.5
		c-0.9,0.2-1.1-0.7-1.2-1.3c-0.2-0.8-0.8-3.5,0.3-3.5l0,0c1.2,0.5,1.6,2.6,1.6,3.8C326.6,106.9,326.4,107.4,326,107.5z M324,97.7
		L324,97.7c0.3-0.4,0.9-0.4,1.3-0.2c0.3,0.2,0.5,0.5,0.7,0.8c0.2,0.4,0.4,1,0.1,1.4c-0.6,0.6-1.5-0.3-1.8-0.9
		C324,98.4,323.7,98,324,97.7z M321.1,110.8L321.1,110.8c0.2-0.8,1.3-0.8,1.9-0.5c0.6,0.4,0.8,1.2,0.5,1.8c-0.1,0.3-0.4,0.4-0.8,0.4
		C322,112.4,321.1,111.6,321.1,110.8z M319.2,98c0.8,0.3,0.7,1.3,0.5,1.9c-0.2,0.5-0.7,1-1.2,0.9l0,0c-0.2-0.1-0.4-0.4-0.5-0.7
		C317.7,99.3,318.1,97.6,319.2,98z M316.7,106.1c0-0.8,0.3-1.2,1.1-1.3c0.7-0.2,1.6-0.3,2.3-0.4c0.4-0.1,0.8,0,1,0.4
		c0.5,1.9-1,3.5-3,3.7c-0.3,0-0.8,0.1-1-0.1l0,0C316.5,108,316.7,106.7,316.7,106.1z M315.3,99.6c0.3-0.1,0.5,0.2,0.6,0.4
		c0.3,0.4,0.6,1.4,0.1,1.7l0,0c-0.2,0-0.3-0.1-0.4-0.2c-0.4-0.3-0.5-0.7-0.5-1.2C315.1,100.1,315.1,99.7,315.3,99.6z M315.8,111.9
		c0.4-0.1,0.9-0.2,1.2,0.1l0,0c0.1,0.2,0.2,0.4,0.1,0.6c-0.1,0.9-1.3,2.1-2.2,1.5C313.9,113.4,314.7,112.2,315.8,111.9z
		 M313.5,104.3c0.2,0,0.3,0,0.5,0l0,0c0.3,0.1,0.4,0.6,0.4,0.9c0.1,0.2,0.1,0.5,0.2,0.7c0.2,0.8,0.4,1.7,0.1,2.6
		c-0.2,0.4-0.7,0.6-1.1,0.6C311.6,109.1,311.3,104.9,313.5,104.3z M309.3,100.6c0.4-0.3,1-0.5,1.4-0.3c0.4,0.2,0.5,0.8,0.3,1.2l0,0
		c-0.2,0.5-0.7,0.9-1.1,1.2c-0.7,0.5-1,0.1-1.1-0.6C308.8,101.4,308.9,100.9,309.3,100.6z M310.3,111.5L310.3,111.5
		c1.1,0.1,1.3,1.6,1.3,2.5c0.1,0.5-0.1,1-0.6,1.1c-1.3,0.5-2.7-0.5-3.1-1.9c-0.1-0.5,0.2-0.8,0.6-1C309,112,309.7,111.5,310.3,111.5
		z M301.9,122.9L301.9,122.9c0.4-0.6,1.3-0.6,1.6,0.1c0.9,1.5,2.1,5,1.3,6.2c-0.2,0.4-0.8,0.3-1.1,0c-1.3-1.4-2-3.4-2-5.4
		C301.7,123.5,301.7,123.2,301.9,122.9z M301.5,114L301.5,114c0.6-0.8,2.9-0.3,2.2,0.9c-0.3,0.7-1.3,1.1-1.9,0.6
		C301.4,115.2,301.2,114.5,301.5,114z M307.3,133.3c1.8,0.4,2.7,3.9,2.9,6c0.3,2.1-0.8,4.1-3,4.5c-2.8,0.4-4.5-2.7-5.7-4.8
		c-0.5-0.9-1-1.8-1.5-2.7c-0.1-0.2-0.3-0.5-0.3-0.8l0,0c0.2-0.8,3-0.7,3.8-1C304.9,134.3,306,133.1,307.3,133.3z M306.9,119.3
		c0-0.2,0-0.5,0.2-0.6l0,0c1.9,0.1,2.7,5.8,2.7,7.6c0,0.2,0,0.5-0.2,0.5c-0.1,0.1-0.3-0.1-0.4-0.2
		C307.7,125,306.8,121.5,306.9,119.3z M305.7,101.8c0.5-0.8,1.2-0.6,1.3,0.3c0.1,0.4,0.1,1.1-0.1,1.4l0,0c-0.2,0.1-0.4,0.1-0.6,0
		C305.6,103.3,305.3,102.4,305.7,101.8z M303.9,106L303.9,106c0.5-0.5,2.4,0.3,3,0.5c0.5,0.2,1.2,0.4,1.5,0.9c0.1,0.2,0,0.4,0,0.6
		c-0.4,1.2-1.6,2.2-2.9,2.5c-1,0.3-1.3,0-1.5-1C303.7,108.5,303.2,106.9,303.9,106z M301.9,107.7c1.4,1.2,0.1,4.5-1.1,2.8l0,0
		c-0.4-0.6-0.3-1.4-0.1-2.1C300.8,107.9,301.4,107.3,301.9,107.7z M298.8,102.7L298.8,102.7c0.2-0.2,0.6-0.3,1-0.3
		c0.4,0,1-0.2,1.3,0.1c0.4,0.4,0.2,1.1-0.2,1.4c-0.6,0.6-2.3,1.2-2.4-0.1C298.5,103.4,298.5,102.9,298.8,102.7z M297.9,122.4
		c0.9,0.2,1.9,1.7,2.3,2.6c0.6,1.2,2.3,4.9,1.4,5.4l0,0c-0.1,0-0.2,0-0.3-0.1c-2.3-1.3-3.4-4.1-4-6.6
		C297.1,123.2,297.1,122.3,297.9,122.4z M296.1,103.3c0.3,0.1,0.7,0.3,0.9,0.6l0,0c0.1,0.2,0.1,0.5,0.1,0.8c0,1-0.9,0.2-1.2-0.2
		c-0.2-0.2-0.3-0.4-0.3-0.7C295.5,103.5,295.8,103.3,296.1,103.3z M293.3,107.9c0.5-0.9,1.8-0.7,2.6-0.3c0.4,0.2,0.8,0.4,1.1,0.7
		l0,0c0.3,0.5,0.1,1.2-0.1,1.8c-0.4,0.7-1.1,1.3-1.9,1.7c-0.4,0.2-0.9,0.5-1.3,0.3C293,111.7,292.8,108.6,293.3,107.9z M296.8,116.1
		c-0.3,0.6-1.6-0.2-1.7-0.7l0,0c0.1-0.4,0.7-0.7,1.1-0.7C296.8,114.8,297,115.6,296.8,116.1z M292.6,122.5L292.6,122.5
		c0.3,0.1,0.4,0.3,0.5,0.6c1,2.3,2.2,5.5,1.9,8.2c-0.1,0.6-0.3,1.3-0.7,1.7c-0.6,0.5-1.9,0.7-2.4,0c-1.2-1.7-2.9-5.8-3.1-7.9
		c0-1.4,1.1-2,2.4-2.4C291.7,122.6,292.3,122.4,292.6,122.5z M289.2,130.3c0.2,0.6,0.7,2.1,0.5,2.4l0,0c-0.6,0.1-1.5-0.6-2.3-1.3
		c-1.4-1.4-2.9-3.5-3.7-5.3c-0.5-1.1-1.1-2.8,0-3.4c0.4-0.2,1-0.1,1.4,0.1C287.1,124.2,288.3,127.9,289.2,130.3z M288.6,115
		c0.7,0.2,2.6,1,2.2,1.9c-0.2,0.3-0.5,0.6-0.9,0.6l0,0c-0.8,0.1-1.2-0.8-1.5-1.4C288.4,115.8,287.9,114.9,288.6,115z M290.6,109.4
		c0.9,0.1,1.3,0.9,1.4,1.7l0,0c0.3,2-2.3,2.5-2.9,0.4C288.8,110.6,289.4,109.3,290.6,109.4z M286.3,104.1c0.2-0.3,0.6-0.4,0.9-0.4
		c1,0,1.6,0.9,2,1.9c0.1,0.2,0.2,0.5,0,0.7l0,0c-0.2,0.2-0.5,0.2-0.7,0.2c-1.1,0-2.3-0.5-2.4-1.6
		C286.1,104.7,286.1,104.3,286.3,104.1z M286.3,116.3c0.5,0.5,1.4,1.4,1,2.1l0,0c-0.3,0.3-0.9,0.4-1.3,0.3
		C285.2,118.5,284.9,115.1,286.3,116.3z M283.8,108.9c0.3-0.1,0.8-0.3,1.1-0.2l0,0c0.3,0.1,0.4,0.5,0.4,0.8c0.2,1.7-1.5,4.2-3,3.5
		c-0.5-0.3-0.5-1-0.5-1.5C281.9,110.2,282.5,109.4,283.8,108.9z M280.7,104.4c0.4-0.4,1.4-0.4,1.8,0l0,0c0.2,0.2,0.2,0.6,0.2,1
		c0,0.3-0.1,0.6-0.2,0.9c-0.3,0.4-0.8,0.9-1.4,0.6C280.3,106.4,280,105.1,280.7,104.4z M277.5,110.5c0.1-0.3,0.3-0.6,0.6-0.8
		c0.6-0.2,1.4,0.2,1.7,0.7l0,0c0.2,0.3,0.3,0.8,0.4,1.2c0.1,0.6,0.4,1.5-0.1,2c-0.4,0.4-1,0.1-1.4-0.1
		C277.8,112.9,277.2,111.7,277.5,110.5z M277.8,115.5c1.4,0.7,0.6,2.4-0.5,3.1c-0.4,0.3-1,0.5-1.4,0.3l0,0c-0.3-0.3-0.4-0.7-0.4-1.1
		C275.4,116.5,276.4,114.7,277.8,115.5z M275.2,125.2c0.7-0.8,1.9-1,2.9-1.1c0.5,0,1.2-0.1,1.6,0.2l0,0c0.2,0.2,0.3,0.5,0.4,0.7
		c0.3,0.9,0.7,1.9,1,3c0.5,1.6,1,3.7,0.4,5.2c-0.3,0.6-0.8,1.2-1.4,1.5c-0.8,0.5-1.8,0.6-2.6,0.3c-2-0.7-2.1-3.8-2.4-5.9
		c-0.1-0.4-0.1-0.7-0.2-1.1C274.8,127,274.5,125.9,275.2,125.2z M187.8,128.3c0.7-1.4,1.6-3,3.2-3.3c0.3-0.1,0.8-0.1,1.1,0.1l0,0
		c1.2,1.2-1.6,5.1-2.3,6.3c-0.4,0.6-0.7,1.2-1.1,1.8c-0.5,0.6-1.1,1.2-1.8,1.4c-0.9,0.2-1.4,0.1-1.2-1
		C185.9,131.9,187.2,129.4,187.8,128.3z M187.3,117.6c-0.4,1.5-2.1,2.5-2.7,1l0,0c-0.1-0.5,0.4-0.9,0.7-1.1c0.3-0.2,1.7-0.9,2-0.4
		C187.4,117.2,187.3,117.4,187.3,117.6z M192.9,149.9c0.6,0.4,1.2,0.7,1.9,0.8c1.8,0.2,3.7-0.9,4.4-2.6c0.5-1.4,0.2-2.7,2.1-2.9
		c1.2-0.1,2.4,0.1,3.6,0.1c3,0.1,6.1-0.3,9,0.2c0.2,0,0.3,0.1,0.4,0.2l0,0c0.7,1,0.6,3.4,0.7,4.7c0,1.4,0.1,2.7,0.3,4.1
		c0.3,3.3,1.7,6.2,4.2,8.4c2.3,2.1,5.3,3.3,8.4,3.7c2.1,0.2,4.2,0.1,6.3,0.1c2.3,0,4.6,0,6.9-0.1c8.2-0.3,14.7-7.4,13.5-15.6
		c-0.1-1.5-0.3-3.1,0.2-4.5c0.7-2.4,4.8-1.1,6.7-1.2c1.7,0,3.4,0,5.1,0.1c0.3,0,0.7,0,1,0.2c1.1,0.5,1,2.3,2,3.7
		c0.6,1,2.2,1.6,3.4,1.5c3.1,0,3.5-2.6,4.6-4.9c0.8-0.8,3-0.5,4.1-0.5c1.6,0,2.2,0.3,2.8,1.9c0.5,1.7,0.5,3.7,1,5.4
		c3.1,15.2,2.9,31-0.2,46.2c-0.4,2.7-0.5,6-3.8,6.1c-30.3-0.2-60.6-0.3-90.8,0.2c-1.8,0-3.5-0.1-5.2-0.4c-1-0.2-1.4-1.2-1.7-2.1
		c-3.7-16.4-4.3-33.5-1-50c0.4-2.1,0.4-4.6,1.5-6.5c0.4-0.7,1.1-0.8,1.8-0.9C192.9,144.4,189.6,147.2,192.9,149.9z M263.3,135
		c-1.5-0.1-3-0.2-4.4,0c-1.2,0-2.6,0.2-3.6-0.5l0,0c-2.4-3.2-3.3-3.7-7.3-3.7c-8.9,0.3-17.8,0.2-26.7,0c-7.3-0.1-3.3,5.3-12.6,4.1
		c-1.5,0-2.9,0-4.3,0c-1.1-0.1-3,0.2-2.8-1.4c8.3-41,52.4-45.9,64.5-3.8c0.3,1.3,0.6,2.6,0.7,3.9C266.9,135.3,264.5,135,263.3,135z
		 M267.5,138.6L267.5,138.6c0.5,0.6,0.6,1.7,0.6,2.5c0,0.6-0.3,1-1,1.1c-1.6,0.3-3.3,0-4.9,0c-1.5,0-3,0.1-4.9,0
		c-0.4,0-0.8,0-1.2-0.1c-0.6-0.1-1-0.1-1.2-0.7c-0.1-0.7-0.1-1.4-0.1-2.2c0-0.3,0.2-0.7,0.4-0.9c0.9-0.7,2.8-0.4,4-0.4
		C261.6,138.5,265.8,137.2,267.5,138.6z M251.8,148.8c0.1,4.9-0.4,10.3-5.2,13c-2.2,1.2-4.5,1.5-6.9,1.6c-2.7,0.1-5.3,0.1-8,0.1
		c-2.4-0.1-4.7-0.2-6.9-1c-5.5-2.2-6.9-7.6-6.9-13c0.3-20.4-3.1-14.9,17.1-15.6l0,0c3.9,0,7.9,0.2,11.8-0.1c3.9-0.3,5.6,0.2,5.2,4.5
		C251.7,141.8,251.8,145.3,251.8,148.8z M202.8,138c0.9,0,1.7,0.1,2.6,0.1c1.2,0,2.4,0,3.6,0c0.5,0,1,0,1.5,0c1,0,3.5-0.5,4,0.5
		c0.4,0.8,0.3,2.1,0.1,2.9c-0.2,0.6-0.9,0.7-1.5,0.8c-2.4,0.2-4.9-0.3-7.3-0.1c-1.1,0-4.7,0.4-5.4-0.5l0,0c-0.4-0.6-0.2-2.3,0.2-2.8
		C201.1,138.1,202,138,202.8,138z M272.4,105.5c0.3-0.6,1.3-1,1.8-0.4l0,0c0.2,0.2,0.1,0.6,0.1,0.9c0,0.3,0,0.6-0.2,0.9
		c-0.2,0.3-0.8,0.7-1.2,0.6c-0.2-0.1-0.3-0.2-0.3-0.4C272.4,106.6,272.2,106,272.4,105.5z M271.3,111c1.1,0,1.2,1.2,0.7,1.9
		c-0.4,0.7-1.6,0.9-2,0.1c-0.1-0.3-0.1-0.6-0.2-0.8c0-0.3-0.1-0.6,0-0.8l0,0C270.1,110.9,270.8,110.9,271.3,111z M268.7,105.9
		L268.7,105.9c0.3-0.3,0.7-0.3,1-0.3c0.2,0,0.5-0.1,0.7,0.1c0.3,0.2,0.3,0.8,0.3,1.2c0,0.4,0,1-0.2,1.3c-0.3,0.4-0.9,0.3-1.3,0
		c-0.4-0.3-0.8-0.7-0.8-1.2C268.4,106.6,268.4,106.2,268.7,105.9z M228.1,94.7c23.2-4.6,39.6,17,44.3,37.3c0.7,2.8,3.6,13.8,1,15.4
		c-0.4,0.2-0.8,0-1.1-0.2c-0.8-0.7-0.9-1.8-1-2.9c-0.1-1.8-0.1-3.5-0.3-5.2c-0.3-2.5-0.9-4.9-1.4-7.4c-2.9-11.3-8.8-22.2-18.4-29.1
		c-5.9-4.3-13-6.7-20.3-5.7c-6.5,0.9-12.5,3.9-17.2,8.4c-10.3,9.7-16,24.7-16.7,38.7c-0.1,1.2-0.2,3.6-1.8,3.6l0,0
		c-0.9-0.1-1-1.2-1.1-1.9c-0.1-1.1-0.1-2.2,0-3.4c0.3-2.8,1-5.7,1.6-8.4C199.2,116.7,210.1,98.6,228.1,94.7z M196.9,118.6
		c0-0.2,0.1-0.4,0.1-0.7c0,0,0,0,0,0c0,0,0.1,0.1,0.1,0.1c0.1,0.3,0.1,0.6-0.2,0.8l0,0C196.8,118.8,196.9,118.7,196.9,118.6z
		 M201.3,107.2c0.2-0.3,0.6-0.4,1-0.3c1.7,0.4,0.2,4.2-1.2,2l0,0C200.9,108.4,200.9,107.6,201.3,107.2z M196.1,111.9
		c0.5-0.5,1.2,0,1.5,0.5c0.7,1.2-0.7,3.2-2,3.4c-0.2,0-0.4,0-0.6-0.1l0,0c-0.3-0.3-0.1-1,0-1.4C195.2,113.5,195.5,112.4,196.1,111.9
		z M194.7,106.4c0.2,0.2,0.3,0.5,0.3,0.8c0,0.3,0,0.5,0,0.8c0,0,0,0,0,0c-0.3,1.8-2.4,0.2-2.3-1C192.7,105.9,194,105.8,194.7,106.4z
		 M189.7,111.7c0.1-0.6,0.6-1.1,1.2-1c1.4,0.2,2.8,1.2,2.7,2.7c0,0.4-0.1,1-0.3,1.4l0,0c-0.3,0.3-0.8,0.4-1.2,0.2
		c-0.9-0.3-1.6-1.1-2-2C189.9,112.6,189.7,112.1,189.7,111.7z M189.9,117.9c0.5,0.5,0.4,1.3,0.3,1.9c-0.1,0.4-0.1,0.8-0.4,0.9l0,0
		c-0.5,0.2-1.4-0.1-1.5-0.6C188.1,119.6,189,117.3,189.9,117.9z M186.2,107.2c0.3-0.9,0.8-1.5,1.8-1.6c0.3,0,0.8,0,1,0.2l0,0
		c0.3,0.3,0.1,0.8,0,1.1c-0.4,1.1-1.5,2.2-2.5,1.5c-0.2-0.1-0.3-0.3-0.4-0.5C186,107.8,186.1,107.5,186.2,107.2z M184.2,111.5
		c1.1-0.6,2.1,0.4,2.1,1.5l0,0c0.1,1-0.7,2.2-1.8,1.9C183.1,114.6,182.9,112.1,184.2,111.5z M182.8,124.5L182.8,124.5
		c0.5-0.1,1.1,0.2,1.5,0.3c0.7,0.2,1.6,0.5,2.1,1.1c1.1,1.9-1.8,6.5-2.8,8.5c-0.5,0.7-1.4,0.5-2.1,0.2c-0.5-0.2-0.8-0.6-1-1
		c-1.1-2.4,0.5-6.2,1.7-8.4C182.3,124.9,182.5,124.6,182.8,124.5z M178.9,105.8c0.1-0.1,0.3-0.1,0.3,0c0.2,0.3-0.2,1.1-0.5,1.2l0,0
		c-0.1,0-0.1-0.2-0.1-0.3C178.5,106.4,178.6,106,178.9,105.8z M178.4,110.7c0.5-1.1,2.4-1.7,3.3-0.8l0,0c0.5,0.7,0.5,3.2,0.1,3.9
		c-0.2,0.3-0.7,0.2-1,0.1C179.4,113.4,177.8,112.2,178.4,110.7z M177.8,126.8c-0.8,1.9-1.5,4.2-3.4,5.4c-0.2,0.1-0.4,0.2-0.6,0.2
		l0,0c-0.2-0.1-0.2-0.4-0.2-0.6c0.2-2.4,1.7-6.7,3.9-7.4C178.7,124.1,178,126.2,177.8,126.8z M168.3,135.4c1.3-0.1,2.4,1,3.6,1.2
		c0.7,0.2,1.5,0.3,2.3,0.5c0.3,0.1,0.7,0.2,0.9,0.4l0,0c0.5,0.6-0.9,3.1-1.3,3.9c-1,1.8-2.8,4.6-5.1,4.5c-1.6,0-3.1-1.5-3.4-3.2
		C164.9,140.5,166,135.7,168.3,135.4z M168.3,120.4L168.3,120.4c1.2,2.7-1.1,6.5-2.3,9c-0.1,0.2-0.3,0.6-0.5,0.5
		C164.6,128.7,166.5,120,168.3,120.4z M176.8,116.8c-0.1,0.1-0.2,0.3-0.4,0.3c-0.2,0-0.2-0.3-0.3-0.4c-0.1-0.3,0.1-0.8,0.4-0.8l0,0
		c0.1,0,0.2,0.2,0.3,0.3C177,116.3,177,116.6,176.8,116.8z M176.5,104.9c0.4,0.4,0.4,1.2,0,1.5c-0.6,0.3-1.2,0-1.7-0.3
		c-0.3-0.2-0.6-0.3-0.7-0.6l0,0C173.6,104.4,176,104.2,176.5,104.9z M173.5,109.7c0.3-0.3,0.7-0.2,1,0.1c0.7,0.9,0.5,3-0.6,3.2
		c-0.2,0-0.4,0-0.6-0.1l0,0c-0.3-0.2-0.3-0.6-0.4-1C172.8,111.1,173,110.3,173.5,109.7z M172.4,124.5L172.4,124.5c0.1,0,0.2,0,0.3,0
		c0.5,0.1,1,0.4,0.9,0.9c0,1.9-0.6,5.3-2.1,5.9c-0.4,0.1-0.9-0.1-1.1-0.5c-0.6-1.2,0.3-3.4,0.8-4.5c0.2-0.4,0.4-0.8,0.6-1.3
		C171.9,124.9,172.1,124.6,172.4,124.5z M168.7,103.7L168.7,103.7c0.2-0.2,0.6-0.3,0.9-0.2c0.5,0.3,0.5,1.2,0,1.5
		c-0.3,0.2-0.8,0.2-1-0.2C168.4,104.5,168.4,104,168.7,103.7z M166.9,109.3L166.9,109.3c0.4-0.7,1.8-1.1,2.6-1.3
		c0.3-0.1,0.5-0.1,0.8-0.2c0.3-0.1,0.7-0.2,1,0c0.9,0.8,0.4,2.7,0.1,3.8c-0.6,2.3-2.8,0.6-3.7-0.6
		C167.3,110.6,166.8,109.9,166.9,109.3z M165.2,102.3c0.4,0.1,0.8,0.1,1,0.4c0.4,0.4,0.3,1.2,0.3,1.7c-0.1,0.8-0.6,0.6-1.1,0.1
		c-0.4-0.4-0.8-0.8-0.9-1.3l0,0C164.3,102.7,164.6,102.2,165.2,102.3z M163.8,115.6c0.1-0.8,0.3-1.8,1.1-2.1
		c0.5-0.2,1.2,0.3,1.7,0.6c0.4,0.3,0.9,0.6,0.9,1.1c-0.2,1-1.1,1.7-2.1,1.8c-0.5,0-1.1,0-1.4-0.3l0,0
		C163.6,116.6,163.7,116,163.8,115.6z M164.5,122.2L164.5,122.2c1.2,1-0.7,5.5-0.9,6.6c-0.6,2.4-2,4.1-3.9,1.5
		c-0.9-1.4-0.6-3.1-0.1-4.6c0.2-0.7,0.5-1.5,1-2.1c0.7-1,1.9-1.5,3.1-1.5C163.9,122,164.3,122.1,164.5,122.2z M123.8,119
		c0.2,0.1,0.4,0.1,0.5,0.3l0,0c0.1,0.3-0.2,0.5-0.4,0.6c-1.3,0.7-2.8,0.6-4.3,0.7c-0.6,0-1.3,0.1-1.9,0.2c-2.6,0.4-5.3,0.8-7.9,1.2
		c-5,0.8-10.3,0.5-14.8-2c-0.6-0.4-2.6-1.4-2.5-2.1c0.4-1.4,3.3-1.6,4.6-1.7c3.1-0.2,6.5,0.2,9.6,0.6
		C112.5,117.2,118.2,117.8,123.8,119z M120.1,105.3L120.1,105.3c0-0.1,0.2-0.1,0.3-0.1c0.4,0.1,0.8,0.2,1,0.6c0,0.3-0.5,0.6-0.7,0.5
		c-0.2-0.1-0.3-0.4-0.4-0.6C120.1,105.5,120.1,105.4,120.1,105.3z M128.3,112L128.3,112c0.4,0.3,0.2,0.8,0.1,1.2
		c-0.5,1.1-2,2.5-3.3,2.7c-0.5,0.1-0.8-0.4-0.9-0.8C123.7,113,126.4,111.2,128.3,112z M111,125.7c0.7-0.6,1.6-1,2.5-1.3
		c3.7-1.3,7.7-2.1,11.7-2.6l0,0c1.5,0,3.9,1.7,2.7,3.3c-0.7,0.8-1.7,1.4-2.6,1.9c-0.7,0.4-1.3,0.8-1.9,1.2c-3.2,2-6.6,2-10.2,1
		c-1-0.3-2.2-0.4-2.9-1.2C109.8,127.3,110.4,126.2,111,125.7z M125.6,130.9c0.9-2.1,3.5-3.9,5.4-5.1c0.8-0.4,2.5-1.6,3.2-1.2l0,0
		c0.7,0.5,1.3,1.4,1.3,2.2c0,0.4,0,0.8-0.1,1.1c-1.3,3.2-5.3,8-9,5.8C125.5,133,125.1,132,125.6,130.9z M134.3,116
		c0.6-0.7,1.9-0.2,1.7,0.7c-0.1,0.8-0.9,1.7-1.7,2.4c-0.2,0.2-0.6,0.7-0.9,0.6l0,0C133,119.2,133.7,116.7,134.3,116z M143.8,127.9
		L143.8,127.9c4,3.9-3,13.1-7.5,8.9c-0.3-0.3-0.6-0.6-0.7-1C135,131.6,139.7,127,143.8,127.9z M141.8,124.9L141.8,124.9
		c-0.5-1.3,1.9-4.4,2.8-5.4c0.3-0.4,0.9-0.8,1.4-0.5c0.6,0.4,0,2.1-0.4,2.9C145,122.7,142.9,125.5,141.8,124.9z M145.4,112.1
		L145.4,112.1c0.3-0.3,0.9-0.2,1.2-0.1c0.3,0.1,0.6,0.2,0.7,0.5c0.2,0.6-0.8,1.4-1.5,0.9C145.4,113.2,145.2,112.5,145.4,112.1z
		 M147.7,132.3c0.2-0.3,0.5-0.5,0.8-0.6c0.6-0.2,1.3-0.3,1.9-0.4c1.3-0.2,2.7-0.4,4.1-0.1c0.2,0,0.5,0.1,0.6,0.3l0,0
		c0.1,0.2-0.1,0.5-0.3,0.7c-0.8,1.2-1.4,2.5-1.9,3.9c-0.7,1.7-1.1,4.1-2.7,5.2c-1,0.7-2.3,0.4-3.3-0.3
		C144.1,138.7,145.5,134.6,147.7,132.3z M155.5,137.2c0.4-1.1,1.2-3.1,2.1-3.6l0,0c1.1-0.4,2.3,0.5,3.5,0.6c0.7,0.1,1.6,0,2.3,0.4
		c0.9,0.6-0.5,3.2-0.8,4c-1.1,2-1.6,5.1-4.1,5.4c-0.8,0.1-1.7-0.1-2.4-0.6C154.3,142,154.9,139.1,155.5,137.2z M160.7,108.2
		c0.1-0.4,0.2-0.9,0.3-1.3c0.2-0.6,0.5-0.8,1.1-0.4c2.2,1.5,1.1,5.7-1.2,4.3l0,0C160.2,110.2,160.6,108.9,160.7,108.2z M160.5,114.6
		L160.5,114.6c0.2,0.3-0.1,0.7-0.2,1c-0.6,1-1.4,0.1-1.8-0.7c-0.3-0.7,0.2-0.8,0.8-0.7C159.7,114.3,160.3,114.3,160.5,114.6z
		 M159.9,101.3L159.9,101.3c1,0,0.1,2.3-0.6,2.3c-0.2,0-0.2-0.3-0.3-0.5C159,102.4,159.2,101.5,159.9,101.3z M155.5,100.8
		c0.3-0.9,1.2-0.9,1.7-0.2c0.3,0.5,0.5,1.1,0.2,1.6c-0.2,0.3-0.4,0.6-0.7,0.6l0,0c-0.4,0-0.9-0.4-1.2-0.7
		C155.2,101.8,155.3,101.3,155.5,100.8z M154.4,106.4L154.4,106.4c0.2-0.2,0.6-0.1,0.8,0c0.8,0.2,1.6,0.4,2.4,0.6
		c0.6,0.1,1,0.5,1,1.1c0,0.7,0.1,1.4-0.1,2.1c-0.3,1.1-1.7,0.5-2.4,0.2c-1-0.5-1.8-1.4-1.9-2.5C154.3,107.3,154.1,106.7,154.4,106.4
		z M154.9,120.1c0.2-0.4,0.5-0.9,1-0.8c3.4,0.6,0,8.6-3.2,8.9l0,0c-1.3-0.6,1-5.6,1.5-6.6C154.4,121.1,154.7,120.5,154.9,120.1z
		 M152.1,113.9c0.2-0.8,0.8-1.9,1.5-1.8c0.3,0,0.6,0.3,0.6,0.6l0,0c0.1,0.3-0.1,0.6-0.2,0.9c-0.3,0.5-0.7,0.7-1.2,0.9
		c-0.2,0.1-0.6,0.1-0.7-0.2C152.1,114.2,152.1,114.1,152.1,113.9z M149.2,100.9c0.1-0.5,0.3-1,0.7-1.3l0,0c0.4-0.2,1.1-0.3,1.4,0.1
		c0.5,0.7-0.7,1.8-1.3,2C149.5,101.9,149.1,101.5,149.2,100.9z M149.9,104.9c0.5-0.4,0.9,0.2,0.9,0.7c0.1,0.9,0,1.8-0.4,2.8
		c-0.1,0.3-0.3,0.6-0.5,0.8l0,0c-0.5,0.3-1.1,0.1-1.1-0.5C148.8,107.5,149.2,105.4,149.9,104.9z M148.9,113.7
		c0.1-0.2,0.1-0.4,0.3-0.6c0.4-0.4,1.2-0.5,1.2,0.2c0,0.5-0.4,1.5-0.9,1.6c-0.3,0.1-0.6-0.1-0.7-0.4l0,0
		C148.8,114.3,148.9,114,148.9,113.7z M148.1,124.6c0.2-1.9,1.4-4.2,3-5.3c0.6-0.4,1.3-0.8,1.8-0.5c1.5,1.1-1.2,5.1-1.8,6.5
		c-0.4,0.6-0.8,1.5-1.6,1.7C148.7,127,148.1,125.6,148.1,124.6L148.1,124.6z M145.1,98.9c0.3-1,1.4-1,2.3-0.5
		c0.5,0.2,0.6,0.7,0.4,1.2c-0.3,0.9-0.9,1.4-1.8,1.1c-0.4-0.1-0.8-0.4-1-0.7l0,0C145,99.6,145,99.2,145.1,98.9z M144.3,104.1
		L144.3,104.1c0.6-0.4,2.8,0.5,2.9,1.2c0.3,0.7,0,2.1-0.7,2.5c-0.3,0.2-0.6,0.2-0.9,0.1c-1-0.3-1.5-1.4-1.6-2.4
		C144,105,143.9,104.4,144.3,104.1z M142.6,115.5c0.4,0.5,0.9,1.2,0.9,1.9l0,0c0,0.3-0.1,0.6-0.2,0.8c-0.3,0.7-0.6,1.3-1,1.9
		c-0.3,0.6-0.7,1.2-1.1,1.8c-0.4,0.5-0.7,1.1-1.2,1.5c-0.6,0.6-1.6,0.1-1.8-0.7c-0.1-0.2-0.1-0.5,0-0.7c0.2-2.4,1-5.1,2.9-6.6
		C141.7,115.1,142.2,115.1,142.6,115.5z M141.2,108.6c0.4,0.1,0.7,0.6,0.7,1c0,0.3-0.2,0.6-0.4,0.9c-0.7,1-1.6,1.7-2.7,1.5
		c-0.3-0.1-0.6-0.2-0.8-0.4l0,0C137.1,110.1,139.7,108.5,141.2,108.6z M139.6,102.4c0.3,0,0.7,0,0.9,0.2l0,0c0.5,0.6,0.1,2-0.2,2.6
		c-0.3,0.7-0.8,1.1-1.5,1.2c-1.4,0.2-1-1.5-0.9-2.3C138.2,103.3,138.7,102.5,139.6,102.4z M136.3,97.2L136.3,97.2
		c0.6-0.5,2.8,0.3,2,1.2c-0.6,0.7-1.6,0.4-2-0.4C136.2,97.8,136.1,97.4,136.3,97.2z M133.6,102c0.1-0.4,0.5-0.9,0.8-0.9l0,0
		c0.3,0,0.6,0.2,0.8,0.3c0.3,0.2,0.7,0.5,1,0.7c0.4,0.3,0.6,0.7,0.6,1.2c-0.1,0.6-0.2,1.3-0.6,1.8c-0.7,0.8-1.6,0.2-2.1-0.5
		C133.6,103.8,133.4,102.8,133.6,102z M132.9,109.2c0.2-0.3,1-0.1,1.2,0.2c0.1,0.2-0.1,0.6-0.3,0.6
		C133.4,110.1,132.8,109.6,132.9,109.2L132.9,109.2z M131.2,115.1c1.6-0.9,0.8,4.9-0.5,5.3l0,0c-0.7,0.2-1.4-0.4-1.3-1.1
		C129.6,117.7,130,116,131.2,115.1z M129.8,100.3c0.6,0.3,0.4,1.6,0.4,2.1c0,0.8-0.1,1.7-0.8,2.1c-0.4,0.2-0.9,0.5-1.3,0.4l0,0
		c-0.4-0.2-0.2-1-0.2-1.4C127.9,102.5,128.4,100,129.8,100.3z M126.7,95.4c0.5-0.4,1.2,0,1.7,0.1c0.3,0.1,0.6,0.2,0.8,0.4
		c0.2,0.3,0.1,0.7-0.2,0.9l0,0C128.5,97.3,126,96.2,126.7,95.4z M123.1,99.3c0-0.3,0-0.7,0.3-1c0.7-0.4,1.6,0.3,2.2,0.7
		c0.4,0.3,0.9,0.6,1.1,1l0,0c0.3,0.9-0.2,2-0.5,2.8c-0.2,0.4-0.5,0.8-0.9,0.9C123.5,103.9,123.1,101,123.1,99.3z M123.1,107.8
		c0.8-1.1,3.4-0.5,4.6-0.2c0.4,0.1,0.9,0.3,0.4,0.7c-1.2,0.7-3.7,1.2-4.9,0.5l0,0C123,108.5,123,108.1,123.1,107.8z M122.4,112.5
		c0.3,0.2,0.4,0.5,0.2,0.9c-0.1,0.3-0.3,0.6-0.5,0.7l0,0c-0.3,0.1-0.7-0.1-0.8-0.4c-0.2-0.3,0-1,0.3-1.3
		C121.8,112.2,122.2,112.3,122.4,112.5z M119.2,92.8c0.2-0.2,0.5-0.3,0.8-0.4l0,0c0.6,0,1.5,0.6,1.7,1.2c0.1,0.3,0,0.7-0.1,1
		c-0.4,1.2-0.9,2.3-1.4,3.4c-0.2,0.3-0.4,0.7-0.8,0.8c-0.3,0-0.6-0.1-0.8-0.3C116.6,97.3,117.4,94.3,119.2,92.8z M116.9,114
		c0.1,0.3,0.2,0.6,0.1,0.9l0,0c-0.2,0.2-0.5,0.3-0.8,0.3c-2.6,0.3-5.2-0.6-7.7-1.1c-3.8-0.8-7.8-0.8-11.6-1.6
		c-5-1.2-10.2-2.3-14.8-4.8c-0.8-0.4-1.6-0.9-2.3-1.4c-0.7-0.5-1.1-1.3-0.7-2.1c1.2-2.3,7.4-0.2,9.4,0.4c5,1.6,9.8,3.7,14.8,5.2
		c2.3,0.7,4.7,1.4,7.1,1.8C112.5,112.2,115.8,111.9,116.9,114z M73.3,92.5c0.4-0.4,1.1-0.6,1.8-0.7c1-0.1,1.9,0.1,3.1,0.4
		c4.7,1.4,9.2,4.2,12.2,5.7c4.2,2.1,8.3,4.2,12.6,6.2c1.3,0.7,2.9,1.5,3.6,2.9l0,0C102.1,106.4,68.7,98.3,73.3,92.5z M114.3,103.6
		L114.3,103.6c-0.9,0.5-2,0.3-3,0.1c-1.3-0.4-2.5-1.1-3.8-1.6c-5.2-2-10-4.6-15.1-6.8c-4.8-2.1-10.1-4-14.3-7.4
		c-2.1-1.8-4-4.2-3.4-7.1c0.1-0.7,0.6-1.1,1.3-1.1c0.8,0,1.6,0,2.3,0.2c4.3,1,7.9,4,11.7,6.2c5.9,3.4,11.3,7.5,17.1,11.1
		C108.2,97.8,115.8,102.1,114.3,103.6z M82.3,69L82.3,69c3.9-0.2,7.7,4.5,10.4,6.8c4.9,4.2,9.6,8.7,14.5,13c0.7,0.6,1.1,0.9,1.8,1.6
		c1.1,1.1,4.9,4.8,3.6,6.2c-0.6,0.5-1.5,0.4-2.2,0.1c-1-0.5-1.8-1.4-2.7-2c-3.5-2.6-7.2-4.8-10.8-7.2c-2.8-1.9-5.5-4.1-8.3-6.1
		c-2-1.5-4.1-3-6-4.7C80.6,75,77.9,69.3,82.3,69z M92.6,42.7c0.1-6.8,2.3-13.4,4.5-19.8c0.4-1.1,0.7-2.3,1.3-3.3
		c0.8-1.5,2.3-4.1,4.1-4.3c0.7,0,0.9,0.8,0.9,1.4c0.7,5.6-2.6,11-3.5,16.4c-0.5,3.1-0.7,6.2-0.7,9.3c0,0.8,0.2,1.6,0.3,2.3
		c0.2,1.4,0.9,4.3-0.2,5.4l0,0c-0.8,0.4-5.4-0.2-6-0.6c-0.2-0.1-0.3-0.6-0.3-0.9C92.7,46.6,92.5,44.7,92.6,42.7z M93.3,55.1
		c2.1-2.1,4.5-1.2,6,1c1.6,2.1,2.4,4.8,3.2,6.7c1.1,2.9,2.1,5.8,3.6,8.5c1,1.9,2.6,3.5,3.5,5.5c0.3,0.6,0.8,2,0.3,2.5l0,0
		c-0.6,0.3-1.6-0.5-2.1-1c-0.4-0.4-0.7-0.8-1.1-1.2c-3.1-4.2-6.2-8.4-10-12.1c-0.9-0.9-1.8-1.8-2.6-2.8c-0.4-0.5-0.8-1-1.1-1.6
		C92.3,58.8,92,56.6,93.3,55.1z M92.2,65c1.9,2.3,4.1,4.3,6.2,6.5c5.5,6.3,11.5,12.5,16,19.5l0,0c0,0,0,0-0.1,0
		c-0.1,0-0.2-0.1-0.3-0.1c-1-0.6-2.1-1.1-3.1-1.8c-0.4-0.3-0.9-0.7-1.3-1c-4-3.7-8.2-7.3-12.2-11c-3.1-2.8-6.7-5.1-9.4-8.4
		c-1.4-1.9-3.8-5.3-2.6-7.7c0.6-1.2,1.8-1.6,2.9-0.7C90,61.5,90.9,63.5,92.2,65z M79.5,26.6c0.7-2.3,1.5-4.9,3.2-6.7
		c0.6-0.6,1.4-1.2,2.3-1.3c0.5-0.1,0.9,0.3,1.1,0.8c1.8,4.1,1.5,8.9,1.7,13.1c0.2,2.8,0.5,5.6,0.8,8.4c0.1,1.2,0.3,2.4,0.5,3.5
		c0.2,1.1,0.7,2.1,0.8,3.2c0.2,2.4,0.4,3.7-0.7,5.9c-0.6,1.1-1.9,4.8-3.7,3.9l0,0c-0.2-0.2-0.3-0.4-0.4-0.7
		c-2.2-6.3-4.3-12.8-5.6-19.3C78.7,33.9,78.4,30.1,79.5,26.6z M68.7,26.3c3.1-0.7,5,3.1,6,5.4c2.6,5.8,4.5,11.8,5.3,18.1
		c0.1,0.9,0.2,1.7,0.4,2.6c0.4,2.5,1.2,4.9,1.2,7.4c0,0.7,0,1.5-0.5,1.9l0,0c-0.5,0.4-1.4,0-1.8-0.5c-3.1-3.6-5.9-7.5-9.1-10.9
		c-1.5-1.7-2.6-3.7-3-6c-0.7-4-0.5-8.1-0.6-12.1C66.6,30.4,66.5,26.9,68.7,26.3z M53.8,36.4c2,0.3,4.1,3,5.4,4.5
		c4.4,5.3,9.2,10.2,13.6,15.4c0.9,1.1,1.8,2.3,2.8,3.3c1.1,1.3,5.1,4.9,4.2,6.6l0,0c-0.7,1-2.3,1.6-3.3,1.4
		c-1.5-0.3-2.6-1.5-3.6-2.5c-4.7-5-9.4-9.9-13.8-15.1c-1.1-1.3-2.2-2.7-3.1-4.1c-1.2-1.8-2.4-3.9-2.9-6
		C52.6,39.1,52.4,36.3,53.8,36.4z M41.3,47.9L41.3,47.9c2.9-3,9.2,2.2,12.2,3.4c8.1,3.9,12.5,11.2,18.9,17.1
		c0.6,0.6,1.1,1.2,1.7,1.8c0.9,1,1.6,2,2.2,3.1c1.2,2.7,0,3.1-2.3,1.9c-2.2-1.2-4.2-3.1-6.1-4.6c-2-1.5-4-2.9-6-4.4
		c-4.5-3.3-8.6-7-13-10.4C47.1,54.6,40.2,50.1,41.3,47.9z M40.6,61.3c-0.2-0.3-0.4-0.5-0.5-0.8l0,0c-0.2-0.5-0.1-1.1,0.3-1.4
		c8.2-2.4,13.9,5.3,20.2,9.6c0.6,0.4,1.2,0.9,1.8,1.3c1.4,1,2.9,2,4.4,2.9c1,0.6,2,1.1,3,1.7c2.2,1.4,2.7,3.1,1.7,5.5
		c-0.4,0.9-1.2,1.4-2.2,1.2c-0.7-0.2-1.5-0.6-2.2-1c-4.2-2.3-8.5-4.6-12.6-7c-3.2-2-6.4-4-9.2-6.6C43.5,65,42.1,63.2,40.6,61.3z
		 M43.2,73.7c2-0.6,6,0.4,8.1,1c3.5,1.3,6.7,3.6,10.2,5c3.7,1.6,7.8,3,10.7,5.9c0.7,0.7,2.1,2.4,1.9,3.3l0,0
		c-0.4,0.8-1.4,1.1-2.3,1.3c-0.8,0.1-1.6,0.1-2.4-0.1c-0.9-0.2-1.8-0.4-2.6-0.8c-3.9-1.5-7.7-3.4-11.5-5.3
		C53.8,83.3,38.8,75.5,43.2,73.7z M41.8,88.2c-0.5-0.6-1-1.7-0.5-2.1l0,0c0.3-0.2,0.7-0.3,1.1-0.3c4.5-0.7,8.3,0.2,12.3,1.7
		c3,1.1,6.1,2.1,9.1,3.2c1,0.4,1.9,0.7,2.9,1.1c0.7,0.3,1.4,0.6,2.1,0.9c0.3,0.1,0.5,0.3,0.7,0.5c0.2,0.2,0.3,0.4,0.4,0.7
		c0.5,0.9,1.5,2.9,1.1,3.6c-0.3,0.5-1.3,0.4-1.8,0.3c-1.5-0.1-3.1-0.6-4.5-1c-3.6-1-7.2-1.8-10.8-2.8C50.1,92.9,44.4,91.2,41.8,88.2
		z M43.8,101.6L43.8,101.6c-0.3-1.1,0.4-2.2,1.3-2.8c0.9-0.6,1.9-0.9,3-1c3.4-0.4,6.9,0.4,10.3,0.8c5.5,0.6,11,1,16.4,2.2
		c0.3,0.1,0.6,0.2,0.7,0.5c0.3,1-0.6,2.3-1.2,3.2c-0.3,0.4-0.7,0.8-1.2,0.9c-2.7,0.5-5.5,0.7-8.3,0.8c-1.2,0.1-2.3,0.1-3.5,0.1
		c-4.5,0-9.1,0.3-13.3-1.5C46.6,104.1,44.3,102.8,43.8,101.6z M54.2,114.8c-0.9-3.9,9.4-4.9,14.1-5.4c2.4-0.2,5-1.1,7.3-0.7
		c2.2,0.5,4,2.1,6.2,2.7c1.1,0.3,2.3,0.4,3.2,1.1c0.2,0.2,0.4,0.6,0.3,0.8c-0.2,0.4-0.7,0.5-1.1,0.5c-0.7,0.1-1.3,0.2-2,0.3
		c-2,0.3-4,0.5-6,0.8c-2.5,0.4-5.1,0.9-7.7,0.9l0,0C65.9,115.6,55.3,118.2,54.2,114.8z M65.6,124.5c-0.7-0.1-1.5-0.2-2.2-0.4
		c-0.5-0.2-1.3-0.3-1.4-0.9c-0.3-1.8,2-2.7,3.5-3.2c3.2-1.1,6.4-1.1,9-1.9c2.4-0.6,4.9-1,7.4-1.4c1.4-0.3,6.5-2,7.7-0.8l0,0
		c0.2,0.2,0.2,0.6,0.3,0.9c0.2,1,0.6,2.6,0,3.4c-1.5,1.4-5.7,1.6-7.8,2.3c-3.6,1-7.3,1.5-11,1.9C69.3,124.6,67.5,124.7,65.6,124.5z
		 M70.8,132.7c-0.4-0.8,0-1.8,0.7-2.4c1.5-1.4,3.9-2.1,5.8-3c2.9-1.4,6-2.5,9.1-3.4c3.8-1.3,7.6-2.4,11.2,0.2
		c0.2,0.1,0.3,0.3,0.4,0.4l0,0c0.8,1.5-3.1,2.3-4.2,2.7c-0.5,0.1-1,0.3-1.5,0.5c-6,2.5-10.6,4.6-17.6,5.8
		C73.4,133.6,71.5,133.8,70.8,132.7z M83.2,137.4c-1,0-2.3,0.2-2.6-0.9c-0.2-0.7,0.1-1.4,0.7-1.8c1.2-0.9,2.6-1.5,4-2
		c1.2-0.5,2.4-0.8,3.6-1.3c3.4-1.5,6.9-2.9,10.3-4.4c1-0.4,2.1-0.9,3.1-1.2c0.5-0.1,1.2-0.3,1.6,0.1c0.8,0.7,1.3,3.2,1.3,4.3
		c0.1,0.9-0.8,1.3-1.5,1.7c-0.7,0.3-1.5,0.6-2.3,0.9C95.5,134.4,89.5,137.4,83.2,137.4L83.2,137.4z M88.9,145c-0.7-1.6,2-3.2,3.2-4
		c0.9-0.6,1.8-1.2,2.7-1.8c0.6-0.4,1.3-0.9,2-1.3c0.5-0.3,1-0.6,1.5-0.9c4.2-2.3,9.5-6.5,13.9-2.9l0,0c0.9,1.3-3,3-3.8,3.6
		c-4.9,3.2-8.5,5.9-15,7.9C92,146,89.7,146.5,88.9,145z M103.7,151.5c-0.8-0.1-1.6-0.3-2.3-0.7c-0.3-0.2-0.6-0.4-0.8-0.7l0,0
		c-0.7-1.4,2-3.9,3-5c0.6-0.7,1.2-1.3,1.9-1.9c1.6-1.5,3.4-2.8,5.2-4c2.1-1.5,4.1-3.1,6.2-4.5c1.1-0.7,2.3-1.3,3.5-1.1
		c1,0.1,2.1,1.2,2.9,2.2c0.6,0.7,0.9,1.4,0.5,2.3c-0.3,0.6-0.7,1-1.1,1.5c-2.6,2.5-5.2,4.9-8.1,7
		C111.5,148.8,107.7,151.9,103.7,151.5z M115.8,157.1c-0.3,0-0.6-0.1-0.8-0.3l0,0c-0.1-0.2-0.2-0.4-0.1-0.6c0.7-5,4.9-8.9,7.8-12.9
		c1.5-2,3.3-4.6,5.7-5.6c2-0.8,3.3,0.5,4.4,2.1c1,1.5,1.3,2.7,0.3,4.2c-1,1.4-2.2,2.6-3.4,3.8C125.7,151.4,121.6,157.6,115.8,157.1z
		 M133,159.3c-0.6,0.3-1.3,0.7-1.9,0.9c-0.3,0.1-0.6,0.2-0.9,0.2l0,0c-0.8-0.1-1.4-0.9-1.5-1.7c-0.6-5.5,3.6-10.4,7.1-14.3
		c0.6-0.6,1.3-1.3,2-1.8c1.4-1,3.2-1.4,4.8-0.4c1.5,1,2.6,2.6,1.7,4.3c-0.2,0.4-0.5,0.9-0.8,1.3c-1.9,2.5-3.6,5.2-5.6,7.5
		C136.5,157,134.8,158.3,133,159.3z M146.4,163.1c-1,1-2.3,1.8-3.7,1.6c-0.7-0.1-1.7-0.4-2.1-1.2l0,0c-0.2-0.3-0.2-0.8-0.2-1.2
		c0.1-4.3,1.5-8.2,3.8-12c0.7-1.3,1.3-2.6,2.2-3.7c0.6-0.8,1.5-1.3,2.5-1.6c2.1-0.6,4.5-0.2,5.7,1.7c1.1,1.8-0.8,3.7-1.5,5.3
		c-1.2,2.2-2.4,4.4-3.6,6.5C148.8,160.2,147.8,161.8,146.4,163.1z M165.1,152.3c-0.1,0.4-0.3,0.8-0.5,1.1c-1.9,3.5-3,7.3-4.7,10.9
		c-0.4,0.9-1,1.7-1.7,2.3c-0.7,0.6-1.8,1-2.8,1c-1.9-0.1-2.9-2-2.9-3.8l0,0c-0.2-4.1,2.1-8.5,3.7-12.1c0.4-0.9,0.7-1.7,1.3-2.5
		c1.4-2,3.8-3.1,6.1-1.2C165.2,149.1,165.8,150.5,165.1,152.3z M173,150.2c-0.1,4.1-1.5,8.5-1.9,12.7c-0.1,0.5-0.1,1.1-0.2,1.7
		c-0.2,1.5-0.4,3.1-1.3,4.4c-0.5,0.7-1.3,0.9-2,0.5c-4.4-2.6-0.4-9.8,0.5-13.9c0.2-0.7,0.5-1.5,0.8-2.3c0.7-1.7,1.4-3.4,3.1-4.1
		c0.2-0.1,0.5-0.1,0.8,0l0,0C173,149.4,173,149.9,173,150.2z M116.2,285.8h-4.9v4.5h4.5v1.3h-4.5v5.2H110v-12.3h6.2V285.8z
		 M128.3,297c-3.2,0-5.3-2.5-5.3-6.3c0-3.8,2.1-6.3,5.3-6.3c3.2,0,5.3,2.5,5.3,6.3C133.6,294.4,131.5,297,128.3,297z M125.4,266.2
		c-4.1-5.5-8.2-11-12.2-16.5l-3.9,5.3v7.7c0,2.9,0.6,6,3.9,6.6H97.9c3.3-0.6,3.9-3.7,3.9-6.6c0-9.9,0-21.2,0-31.1
		c0-2.9-0.6-6-3.9-6.6h15.3c-3.3,0.6-3.9,3.7-3.9,6.6v21.2l16.2-21.9c1.2-1.6,4.2-5.2,0.5-5.9c3.2,0,6.3,0,9.5,0
		c-3.3,0.6-6.1,3-8.3,5.9l-9.3,12.6l13.2,17.8c3.5,4.7,6,8.1,11.6,8.1C136.9,270.2,128.9,270.8,125.4,266.2z M149.4,296.8H148
		l-2.9-4.5h-2.6v4.5h-1.4v-12.3h4.2c2.2,0,3.6,1.6,3.6,4c0,1.9-1.1,3.2-2.5,3.6l3,4.6V296.8z M151.2,224.9h15.3
		c-3.3,0.6-3.9,3.7-3.9,6.6c0,9.9,0,21.2,0,31.1c0,2.9,0.6,6,3.9,6.6h-15.3c3.3-0.6,3.9-3.7,3.9-6.6c0-9.9,0-21.2,0-31.1
		C155,228.6,154.4,225.5,151.2,224.9z M178.5,284.7l-3.3,12.3h-1l-1.7-5.8l-0.9-3.7h0l-0.9,3.7L169,297h-1l-3.3-12.3v-0.2h1.4
		l1.2,4.7l1.2,5.2h0l2.6-9.7h0.9l2.7,9.7h0l1.1-5.3l1.2-4.6h1.4V284.7z M190.2,297c-3.2,0-5.3-2.5-5.3-6.3c0-3.8,2.1-6.3,5.3-6.3
		c3.2,0,5.3,2.5,5.3,6.3C195.6,294.4,193.4,297,190.2,297z M182,231.3l0,32.1c0,2.9,0.6,5.3,3.9,5.9c-3,0-6.1,0-9.1,0
		c3.3-0.6,3.9-3,3.9-5.9l0-32.6c0-2.9-0.6-5.3-3.9-5.9h10.8l12.1,30.5l12.1-30.5h11.4c-3.3,0.6-3.9,3.7-3.9,6.6v31.1
		c0,2.9,0.6,6,3.9,6.6h-15.3c3.3-0.6,3.9-3.7,3.9-6.6c0-10.9,0-23.2,0-34.1l-15.4,38.9C191.7,255.9,186.5,242.8,182,231.3z
		 M212.8,296.8h-1.4v-8.6l-3.2,5.2h-0.4l-3.2-5.2v8.6h-1.4v-12.5h0.5l4.3,7l4.3-7h0.5V296.8z M227.3,296.8h-6.3v-12.3h6.2v1.3h-4.8
		v4h4.6v1.3h-4.6v4.4h4.9V296.8z M243.4,297h-0.5l-6.7-9.5l0.1,3.4v5.9h-1.4v-12.5h0.5l6.7,9.4l-0.1-3.5v-5.8h1.4V297z M238.4,231.3
		l0,32.1c0,2.9,0.6,5.3,3.9,5.9c-3,0-6.1,0-9.1,0c3.3-0.6,3.9-3,3.9-5.9l0-32.6c0-2.9-0.6-5.3-3.9-5.9h10.8l12.1,30.5l12.1-30.5
		h11.4c-3.3,0.6-3.9,3.7-3.9,6.6v31.1c0,2.9,0.6,6,3.9,6.6h-15.3c3.3-0.6,3.9-3.7,3.9-6.6c0-10.9,0-23.2,0-34.1l-15.4,38.9
		C248.1,255.9,242.9,242.8,238.4,231.3z M267,285.8h-4.9v4.5h4.5v1.3h-4.5v5.2h-1.4v-12.3h6.2V285.8z M282.9,296.8h-1.4l-1.1-3h-5.2
		l-1.1,3h-1.4v-0.2l4.9-12.3h0.6l4.8,12.3V296.8z M293.2,297c-2,0-4.2-1-4.2-3.5h1.4c0.1,1.6,1.6,2.3,2.8,2.3c1.6,0,2.7-0.9,2.7-2.3
		c0-1.6-1.5-2.1-2.9-2.3c-1.9-0.2-3.8-0.9-3.8-3.2c0-2.1,1.5-3.6,3.9-3.6c1.8,0,3.8,1,3.9,3.3h-1.3c-0.1-1.6-1.5-2-2.6-2
		c-1.6,0-2.5,0.9-2.5,2.1c0,1.7,1.4,2,2.7,2.2c2.1,0.3,4,1.1,4,3.5C297.3,295.5,295.7,297,293.2,297z M312.9,296.8h-1.4V291h-5.3
		v5.8h-1.4v-12.3h1.4v5.2h5.3v-5.2h1.4V296.8z M337,297c-3.2,0-5.3-2.5-5.3-6.3c0-3.8,2.1-6.3,5.3-6.3c3.2,0,5.3,2.5,5.3,6.3
		C342.4,294.4,340.2,297,337,297z M358.4,297h-0.5l-6.7-9.5l0.1,3.4v5.9h-1.4v-12.5h0.5l6.7,9.4l-0.1-3.5v-5.8h1.4V297z
		 M331.6,230.5l1.5-5.6c12.8,0,25.6,0,38.3,0l1.5,5.6v5.6c-0.6-5.9-4.8-9.8-10.5-9.8H356v36.4c0,2.9,0.6,6,3.9,6.6h-15.3
		c3.3-0.6,3.9-3.7,3.9-6.6v-36.4h-6.4c-5.7,0-9.9,3.9-10.5,9.8V230.5z M325.1,295.6v1.2h-4.9v-1.2h1.8v-10h-1.6v-1.2h4.7v1.2h-1.6
		v10H325.1z M319.8,224.9l1.5,5.6v5.6c-0.6-5.9-4.8-9.8-10.5-9.8c-3.3,0-6.5,0-9.8,0c0,6.5,0,13.7,0,20.2h4.9c5.1,0,8-1.1,8.7-7
		v15.3c-0.8-5.8-3.7-7-8.7-7H301c0,6.5,0,13.7,0,20.2c3.3,0,6.5,0,9.8,0c5.7,0,9.9-3.9,10.5-9.8v5.6l-1.5,5.6h-30.2
		c3.3-0.6,3.9-3.7,3.9-6.6v-31.1c0-2.9-0.6-6-3.9-6.6C299.7,224.9,309.7,224.9,319.8,224.9z M289.5,210c-1.2,1.9-3.8,1.6-5.8,1.6
		c-33.6,0.2-67.2-0.2-100.8,0.1c-2.2-0.1-4-0.8-4.8-3c-6-21.8-6-45.2-0.1-67c0.7-2.3,2.5-3.8,4.9-3.7c2.3,0.4,6.8-1.2,8.4,0.7l0,0
		c1.7,4.8-4.7,3-7.5,3.6c-1.4,0.4-2.2,1.6-2.6,3c-4.7,19.4-4.5,40,0.2,59.4c0.7,2,2.5,2.8,4.5,2.9c32.1-0.2,64.2,0.1,96.3,0
		c1.9,0.1,4-0.5,4.8-2.4c5.2-19.1,5.1-39.5,0.5-58.8c-0.8-5.4-4.4-4.1-9.1-4.3c-0.7,0-1.2-0.4-1.3-1.1c-0.2-0.8-0.2-2,0.2-2.5
		c1-1,4.2-0.2,5.6-0.4c2.7-0.2,6.5-0.5,7.2,2.9C296.4,163.3,296.7,187.9,289.5,210z M294.9,146c-1-1.5-1.3-3.5-1.8-5.2
		c-0.3-1-0.6-2-1.1-2.9c-0.1-0.3-0.3-0.6-0.2-0.9l0,0c0.1-0.4,0.6-0.6,1-0.8c4.1-1.8,6.5,3.8,6.6,7.5c0,0.4,0,0.7-0.2,1.1
		C298.6,146,295.8,147.2,294.9,146z M298.6,165.7c-0.1,0.2-0.5,0.5-0.6,0.1c-0.5-1.5-1.9-7-0.8-8.1l0,0c0.2,0,0.3,0.3,0.4,0.5
		C298.4,160.2,299.6,164,298.6,165.7z M309.5,165.2c-0.4,1.3-1.9,2.7-3.3,2.1c-1.8-0.9-2.8-4-3.8-5.7c-1.2-2.3-2.1-4.8-3.2-7.2
		c-0.5-1.1-1.5-3.2-1-4.3l0,0c0.2-0.3,0.5-0.5,0.8-0.8c2.2-1.8,4.5-3.7,6.2-0.3c1.3,2.7,2.3,5.5,3.1,8.4
		C309,159.6,310.2,162.9,309.5,165.2z M322.7,161.9c0.1,3-3.4,4.5-5.5,2.4c-1.5-1.4-2-3.5-2.8-5.3c-1.1-2.5-2.1-5.1-3.3-7.6
		c-0.4-0.8-0.9-1.7-0.9-2.7c0-0.9,0.5-1.7,1.1-2.4c1.3-1.4,3-1.6,4.5-0.7c1.6,0.9,2.4,2.6,3.1,4.3c1,2.5,2.2,4.8,3,7.4
		C322.3,158.8,322.7,160.3,322.7,161.9L322.7,161.9z M327.1,158.2c-1.9-2.7-3-6-4.9-8.7c-0.7-1.1-2-3-1.5-4.2
		c0.9-2.2,4.6-2.3,6.4-1.4c0.9,0.4,1.4,1.1,1.9,2c2.4,4.4,5.3,8.7,5.7,13.8l0,0C334.5,165,328.5,160.3,327.1,158.2z M345.1,158.2
		c-1.7,0.2-3.2-1.2-4.5-2.2c-3.8-3.2-7.1-7.4-9.6-11.8c-0.2-0.3-0.4-0.7-0.3-1.1l0,0c3.4-9.3,14.8,4.4,15.9,10.6
		C346.9,155.3,347,157.8,345.1,158.2z M360.1,154.8L360.1,154.8c-0.5,0.4-1.6,0.2-2.2,0.1c-2.2-0.4-4-1.6-5.7-3.1
		c-1.2-1-2.3-2.2-3.3-3.3c-2.1-2.2-4.3-4.3-6.3-6.7c-1.4-1.7-0.6-2.8,0.5-4.3c0.5-0.6,1.1-1.4,1.8-1.8c2.2-1.2,5,1.9,6.2,3.5
		c2.3,2.9,4.5,5.8,6.4,8.9c1.1,1.6,2.3,3.2,2.8,5.1C360.3,153.8,360.4,154.5,360.1,154.8z M374.7,148L374.7,148
		c-5.4,4-11.8-2.5-16.5-5.7c-1.8-1.3-3.3-2.8-4.8-4.5c-0.5-0.5-1-1-1.4-1.6c-1.1-1.6,0.4-2.7,1.4-3.8c0.2-0.2,0.4-0.5,0.7-0.6
		c0.9-0.5,2.1-0.2,3,0.2c0.8,0.4,1.5,0.9,2.1,1.4c5,4,10.7,6.8,14.8,12.3C374.2,146.2,375.1,147.5,374.7,148z M386.5,142.8
		c-1.9,3.3-11.2-1.7-13.7-3.2c-2.9-1.8-10.5-5.8-9.6-7.5l0,0c1.4-1.4,3.5-1.8,5.4-1.3c0.6,0.2,1.2,0.4,1.8,0.6
		c5.6,2.8,11.1,6,15.8,10.2C386.6,141.9,386.7,142.4,386.5,142.8z M394.4,134.5c-0.4,1.2-2.4,0.9-3.5,0.8c-1.6-0.2-3.4-0.7-5-1.1
		c-5.2-1.7-10.7-2.9-15.5-5.6l0,0c-0.6-0.5,0.4-3.4,0.7-4.1c0.3-0.5,1-0.3,1.5-0.2c1.4,0.3,2.7,0.7,4.1,1.2c2.2,0.8,4.3,1.8,6.4,2.8
		c2.2,1,4.5,1.8,6.7,2.7c1.3,0.5,2.8,0.9,3.9,1.8C394.3,133.2,394.6,133.9,394.4,134.5z M404.3,130.1c-0.4,1.4-3.5,1.2-4.7,1.1
		c-1.3-0.2-2.6-0.5-3.9-0.9c-6-2.2-12.6-3.9-18.1-7.2l0,0c-0.8-1.1,4-2.7,4.8-2.8c2.2-0.3,4.6,1.2,6.6,1.9c4,1.2,7.8,2.9,11.6,4.5
		c0.9,0.4,1.9,0.9,2.6,1.5C403.8,128.6,404.5,129.3,404.3,130.1z M412.6,121.6c-6.3,1.9-12.7,0-18.9-1.2c-2.1-0.4-4.1-0.9-6.1-1.5
		c-0.5-0.2-1-0.3-1.5-0.5c-0.2-0.1-0.4-0.1-0.5-0.3l0,0c-0.2-0.2-0.2-0.5-0.2-0.8c0-0.4,0-1,0-1.5c0.1-2.2,1.3-2,3-1.7
		c3.6,0.5,7.3,1.1,10.9,1.9c2.3,0.4,5,0.9,7.7,1.6c1.4,0.4,2.8,0.8,4.1,1.4c0.8,0.4,2,1,2.1,2C413.2,121.2,412.9,121.5,412.6,121.6z
		 M421,112.5c-0.1,0.6-0.9,1-1.5,1.2c-1.1,0.4-2.2,0.3-3.4,0.3c-6.4-0.4-12.8-0.5-19.1-1.5c-2.1-0.3-4.3-0.4-6.3-1
		c-0.3-0.1-0.7-0.2-0.7-0.4l0,0c0.1-1.1,4.6-2.2,5.7-2.7c0.7-0.2,1.2-0.5,1.8-0.8c2.4-1.2,4.8-1.1,7.4-0.7c4.2,0.6,8.4,1.5,12.5,2.5
		c1.4,0.4,2.8,1.1,3.5,2.4C421,112,421.1,112.3,421,112.5z"/>
	<path class="st0" d="M147.6,288.4c0-1.6-0.9-2.6-2.3-2.6h-2.8v5.3h2.8C146.7,291,147.6,290,147.6,288.4z"/>
	<path class="st0" d="M337,285.6c-2.4,0-3.9,2-3.9,5c0,3,1.5,5,3.9,5c2.3,0,3.9-2,3.9-5C341,287.6,339.4,285.6,337,285.6z"/>
	<path class="st0" d="M190.3,285.6c-2.4,0-3.9,2-3.9,5c0,3,1.5,5,3.9,5c2.3,0,3.9-2,3.9-5C194.2,287.6,192.6,285.6,190.3,285.6z"/>
	<polygon class="st0" points="275.6,292.5 279.8,292.5 277.7,286.8 	"/>
	<path class="st0" d="M128.3,285.6c-2.4,0-3.9,2-3.9,5c0,3,1.5,5,3.9,5c2.3,0,3.9-2,3.9-5C132.2,287.6,130.6,285.6,128.3,285.6z"/>
</g>
</svg>
