<?xml version="1.0" encoding="utf-8"?>
<!-- Generator: Adobe Illustrator 28.1.0, SVG Export Plug-In . SVG Version: 6.00 Build 0)  -->
<svg version="1.1" id="Layer_1" xmlns="http://www.w3.org/2000/svg" xmlns:xlink="http://www.w3.org/1999/xlink" x="0px" y="0px"
	 viewBox="0 0 448 512" style="enable-background:new 0 0 448 512;" xml:space="preserve">
<style type="text/css">
	.st0{fill:#FFFFFF;}
</style>
<path class="st0" d="M155.3,318.4c17.2,0,31.2-6.1,31.2-25.4c0-19.7-11.7-27.4-30.3-27.5h-46v52.9H155.3L155.3,318.4z M149.9,188.8
	h-39.6v44.8H153c15.1,0,25.8-6.6,25.8-22.9C178.8,193,165.1,188.8,149.9,188.8L149.9,188.8z M279.4,263.6h62.2
	c-1.7-18.5-11.3-29.7-30.5-29.7C292.8,233.9,280.6,245.3,279.4,263.6z M384,32H64C28.7,32,0,60.7,0,96v320c0,35.3,28.7,64,64,64h320
	c35.3,0,64-28.7,64-64V96C448,60.7,419.3,32,384,32z M349.5,185h-77.8v-18.9h77.8V185z M193.7,243.7c23.6,6.7,35,27.5,35,51.6
	c0,39-32.7,55.7-67.6,55.9H68v-192h90.5c32.9,0,61.4,9.3,61.4,47.5C219.9,226,210.9,235.5,193.7,243.7L193.7,243.7z M312.4,205.1
	c43.5,0,67.6,34.3,67.6,75.4c0,1.6-0.1,3.3-0.2,5c0,0.8-0.1,1.5-0.1,2.2H279.5c0,22.2,11.7,35.3,34.1,35.3
	c11.6,0,26.5-6.2,30.2-18.1h33.7c-10.4,31.9-31.9,46.8-65.1,46.8c-43.8,0-71.1-29.7-71.1-73C241.3,236.9,270,205.1,312.4,205.1
	L312.4,205.1z"/>
</svg>
