<?xml version="1.0" encoding="utf-8"?>
<!-- Generator: Adobe Illustrator 28.2.0, SVG Export Plug-In . SVG Version: 6.00 Build 0)  -->
<svg version="1.1" id="Layer_1" xmlns="http://www.w3.org/2000/svg" xmlns:xlink="http://www.w3.org/1999/xlink" x="0px" y="0px"
	 viewBox="0 0 16 16" style="enable-background:new 0 0 16 16;" xml:space="preserve">
<style type="text/css">
	.st0{fill:#F37321;}
	.st1{fill:#E86924;}
	.st2{fill:#FFFFFF;}
</style>
<path d="M13.8,16H2.2C1,16,0,15,0,13.8V2.2C0,1,1,0,2.2,0h11.6C15,0,16,1,16,2.2v11.6C16,15,15,16,13.8,16z"/>
<g id="Layer_1-2">
	<g>
		<path class="st0" d="M15.1,7.3c-1.1,0-2.1,0.2-3.2,0.6c0.1-0.3,0.1-0.5,0-0.7c-0.1-0.2-0.2-0.5-0.2-0.7c0.1,0.1,0.1,0.2,0.2,0.3
			c0.1,0.2,0.2,0.5,0.4,0.7c0,0.1,0.1,0.1,0.1,0.1c0.8-0.1,1.5-0.3,2.3-0.2C14.9,7.3,15,7.3,15.1,7.3C15.1,7.3,15.1,7.3,15.1,7.3
			L15.1,7.3z"/>
		<path class="st0" d="M4.7,8.9c-0.1,0.4-0.2,0.8-0.3,1.2c0,0.1-0.1,0.2-0.1,0.3c0,0.1,0,0.1-0.1,0.1c-0.1,0-0.2,0.1-0.2,0
			c0,0,0-0.1,0.1-0.2c0.2-0.4,0.4-0.8,0.5-1.2C4.6,9,4.7,9,4.7,8.9C4.7,8.9,4.7,8.9,4.7,8.9L4.7,8.9z"/>
		<path class="st0" d="M12.1,6.5c0-0.1,0-0.2-0.1-0.4C12,6,12,6,12.1,6c0.4,0,0.8,0,1.1,0c-0.2,0-0.5,0.2-0.8,0.2
			C12.2,6.2,12.1,6.2,12.1,6.5C12.1,6.4,12.1,6.4,12.1,6.5L12.1,6.5z"/>
		<path class="st0" d="M12.9,5.1c0.3,0,0.3,0,0.3,0.2C13,5.3,13,5.2,12.9,5.1z"/>
		<g>
			<path class="st1" d="M12.4,8.4c0.3-0.2,0.6-0.4,0.9-0.5c-0.1,0-0.1,0-0.1,0c-0.3,0-0.5,0.1-0.7,0.2c-0.1,0-0.2,0-0.3,0
				c-0.4-0.2-0.8-0.4-1.1-0.6c0,0-0.1-0.1-0.1,0c0,0.1,0.1,0.2,0.1,0.3c0,0.1,0,0.1,0,0.2c-0.3,0.3-0.7,0.6-1,0.9
				C9.8,8.9,9.8,9,9.7,9C9.2,9,8.7,9.1,8.1,9.1c-0.3,0-0.6,0.1-0.9,0.1C7.4,9.1,7.5,9,7.6,8.8C7.3,9,7,9.1,6.8,9.3
				c-0.4,0.5-0.9,0.9-1.3,1.4c-0.1,0.1-0.1,0.1-0.2,0.1C5,10.9,4.8,11,4.5,11c-0.3,0.1-0.7,0.1-1,0.2c-0.8,0.3-1.5,0.8-2,1.4
				c0.1,0,0.1,0,0.1,0c0.2-0.1,0.4-0.2,0.6-0.4c0.3-0.3,0.7-0.5,1.1-0.6c0.2-0.1,0.4-0.2,0.6-0.2c0.3,0,0.5-0.1,0.8-0.2
				c0,0,0,0,0.1,0l0,0c0.3-0.1,0.6-0.1,0.7-0.2c0.1-0.1,0.6-0.6,1-1.1l-0.8,2.3h1.2l0.9-2.9c0.6-0.1,1.4-0.2,1.6-0.2l0,0
				c0.1,0,0.2,0,0.3,0c0.1,0,0.2,0,0.3-0.1c0.2-0.2,0.5-0.4,0.7-0.6l1.3,3.8h1.2l-1.4-4.1c0.1,0,0.2,0.1,0.3,0.2
				C12.2,8.4,12.3,8.4,12.4,8.4L12.4,8.4z"/>
			<path class="st1" d="M13.7,5.3c-0.1-0.1-0.3-0.1-0.3-0.2c0-0.1-0.1-0.1-0.2-0.2c-0.3-0.1-0.6-0.1-0.8-0.4
				c-0.1,0.1-0.2,0.2-0.3,0.3c0,0.1-0.1,0.1-0.2,0.1C11.6,5,11.2,5,10.8,5.2l-0.6-1.8H8.7L8.3,4.7L7.2,3.6c0,0-2.5,0.7-6.3-0.2
				c0,0,3,1.7,5.9,1.1l2.3,1.7c0,0-0.1,0.1-0.1,0.1L6.9,4.9c0,0-3,0.6-4.9-0.4c0,0,1.4,1.8,5,1.2l1.9,0.8C8.8,6.5,8.7,6.6,8.7,6.7
				L7.1,6.1c0,0-1.4,0.4-2.7,0.1c0,0,0.6,0.4,1.5,0.5c0.4,0,0.8,0,1.2-0.2l1.4,0.3C8.5,7,8.4,7,8.4,7L7.3,6.8c0,0-0.8,0.2-1.4,0.1
				c0,0,0.6,0.7,1.6,0.3l0.8,0.1c0,0-0.1,0.1-0.1,0.1C7.5,7.8,7,7.6,6.5,7.6c-0.7,0-1.2,0.2-1.3,0.2C4.9,8,4.6,8.2,4.3,8.5
				C3.8,9,3.1,9.3,2.4,9.5c-0.4,0.1-0.7,0.1-1-0.1C1,9.3,0.9,9,1.1,8.7c0-0.1,0.1-0.1,0.1-0.2c0,0,0.1-0.1,0-0.1
				C0.9,8.6,0.8,8.8,0.9,9.1c0,0.3,0.2,0.5,0.5,0.6c0.3,0.1,0.6,0.1,0.8,0C2.9,9.6,3.5,9.3,4.1,9c0.1-0.1,0.3-0.2,0.3-0.3
				c0-0.1,0.1-0.2,0.2-0.2C5.4,7.8,6.2,7.7,7,7.9c0.1,0,0.2,0,0.3,0c0.3-0.1,0.5-0.2,0.8-0.3c0,0,0.1,0,0.1,0C8.2,7.7,8.1,7.8,8,8
				c0.1,0,0.1-0.1,0.1-0.1C8.7,7.3,9.1,6.6,9.6,6c0-0.1,0.1-0.1,0.1-0.1c0.3-0.2,0.6-0.3,1-0.4c0.1-0.1,0.3-0.1,0.4,0
				c0.1,0,0.1,0.1,0.2,0.1c-0.1-0.1-0.1-0.2-0.2-0.2c0,0,0,0,0,0C11.4,5.2,11.7,5.1,12,5c0.1,0,0.1,0,0.2,0.1c0,0.1,0.1,0.1,0.2,0.2
				c0-0.1-0.1-0.2,0-0.4c0-0.1,0.1-0.1,0.2-0.1c0.2,0.1,0.4,0.1,0.6,0.2c0.1,0,0.2,0.1,0.2,0.2c0,0.1,0,0.2,0.2,0.3
				c0.1,0.1,0.2,0.2,0.1,0.4c0.1,0,0.1,0,0.1-0.1c0-0.1,0-0.1,0.1-0.2C13.8,5.5,13.7,5.3,13.7,5.3L13.7,5.3z M9.5,5.7
				c0,0-0.1,0-0.1,0.1L9.1,5.5c0.1-0.4,0.2-0.7,0.3-1.1h0c0.1,0.4,0.2,0.8,0.3,1.2C9.7,5.6,9.6,5.7,9.5,5.7L9.5,5.7z"/>
		</g>
		<g>
			<path class="st2" d="M9.6,7C9.5,7,9.4,6.9,9.4,6.9s0-0.1,0.1-0.1c0.1,0,0.1,0,0.1,0.1C9.7,6.9,9.7,7,9.6,7L9.6,7z"/>
			<path class="st2" d="M10.6,6c0,0.1-0.1,0.1-0.1,0.1c-0.1,0-0.1,0-0.1-0.1c0-0.1,0-0.1,0.1-0.1C10.6,5.9,10.6,5.9,10.6,6L10.6,6z"
				/>
			<path class="st2" d="M5.9,8.9c0-0.1,0-0.1,0.1-0.1c0.1,0,0.1,0,0.1,0.1C6.2,8.9,6.1,9,6,9C6,9,5.9,8.9,5.9,8.9z"/>
			<path class="st2" d="M5.9,9.4c0,0.1-0.1,0.1-0.1,0.1c-0.1,0-0.1-0.1-0.1-0.1c0-0.1,0-0.1,0.1-0.1C5.9,9.3,5.9,9.3,5.9,9.4
				L5.9,9.4z"/>
			<path class="st2" d="M4.9,10c-0.1,0-0.1-0.1-0.1-0.1c0-0.1,0.1-0.1,0.1-0.1C5,9.7,5,9.7,5,9.8C5,9.9,5,10,4.9,10L4.9,10z"/>
			<path class="st2" d="M5.4,8.2c0.1,0,0.1,0,0.1,0.1c0,0.1,0,0.1-0.1,0.1c-0.1,0-0.1,0-0.1-0.1C5.2,8.3,5.3,8.2,5.4,8.2L5.4,8.2z"
				/>
			<path class="st2" d="M7.8,8c0,0.1-0.1,0.1-0.1,0.1S7.5,8.1,7.5,8c0-0.1,0.1-0.1,0.1-0.1C7.7,7.9,7.8,8,7.8,8L7.8,8z"/>
			<path class="st2" d="M10,6.2c0,0.1-0.1,0.1-0.1,0.1c-0.1,0-0.1,0-0.1-0.1s0.1-0.1,0.1-0.1C9.9,6.1,9.9,6.1,10,6.2L10,6.2z"/>
			<path class="st2" d="M10.4,7c0,0.1,0,0.1-0.1,0.1c-0.1,0-0.1,0-0.1-0.1c0-0.1,0-0.1,0.1-0.1C10.4,6.8,10.4,6.9,10.4,7L10.4,7z"/>
			<path class="st2" d="M6.7,8.4c-0.1,0-0.1-0.1-0.1-0.1c0-0.1,0.1-0.1,0.1-0.1c0.1,0,0.1,0.1,0.1,0.1C6.8,8.3,6.7,8.4,6.7,8.4
				L6.7,8.4z"/>
			<path class="st2" d="M11.4,6.9c-0.1,0-0.1-0.1-0.1-0.1c0-0.1,0.1-0.1,0.1-0.1c0.1,0,0.1,0.1,0.1,0.1C11.5,6.9,11.4,6.9,11.4,6.9
				L11.4,6.9z"/>
			<path class="st2" d="M6.7,8.8c0.1,0,0.1,0.1,0.1,0.1S6.7,9,6.7,9C6.6,9,6.5,9,6.5,8.9C6.5,8.8,6.6,8.8,6.7,8.8L6.7,8.8z"/>
			<path class="st2" d="M7.3,8.5c0,0.1-0.1,0.1-0.1,0.1S7.1,8.6,7.1,8.5c0-0.1,0.1-0.1,0.1-0.1C7.3,8.4,7.3,8.4,7.3,8.5L7.3,8.5z"/>
			<path class="st2" d="M12.2,5.7c0,0.1,0,0.1-0.1,0.1c-0.1,0-0.1,0-0.1-0.1c0-0.1,0-0.1,0.1-0.1C12.1,5.6,12.2,5.7,12.2,5.7z"/>
			<path class="st2" d="M11.8,6.1c0,0.1,0,0.1-0.1,0.1c-0.1,0-0.1,0-0.1-0.1c0-0.1,0-0.1,0.1-0.1C11.7,5.9,11.8,6,11.8,6.1z"/>
			<path class="st2" d="M12.9,5.7c0,0.1,0,0.1-0.1,0.1c-0.1,0-0.1,0-0.1-0.1c0-0.1,0-0.1,0.1-0.1C12.8,5.6,12.9,5.7,12.9,5.7z"/>
			<path class="st2" d="M10.7,6.6c0,0.1-0.1,0.1-0.1,0.1c-0.1,0-0.1-0.1-0.1-0.1c0-0.1,0.1-0.1,0.1-0.1C10.6,6.4,10.7,6.5,10.7,6.6z
				"/>
			<path class="st2" d="M5,9.1C4.9,9.1,4.8,9.1,4.8,9c0-0.1,0.1-0.1,0.1-0.1C5,8.8,5.1,8.9,5.1,9S5,9.1,5,9.1L5,9.1z"/>
			<path class="st2" d="M9.3,7.4c0,0.1-0.1,0.1-0.1,0.1S9,7.5,9,7.4c0-0.1,0.1-0.1,0.1-0.1C9.3,7.3,9.3,7.3,9.3,7.4L9.3,7.4z"/>
			<path class="st2" d="M10,7.5c0,0.1-0.1,0.1-0.1,0.1c-0.1,0-0.1-0.1-0.1-0.1c0-0.1,0.1-0.1,0.1-0.1C10,7.4,10,7.5,10,7.5z"/>
			<path class="st2" d="M9.3,7.8c0.1,0,0.1,0.1,0.1,0.1c0,0.1-0.1,0.1-0.1,0.1c-0.1,0-0.1,0-0.1-0.1C9.2,7.9,9.2,7.8,9.3,7.8
				L9.3,7.8z"/>
			<path class="st2" d="M5.5,10c0,0.1-0.1,0.1-0.1,0.1c-0.1,0-0.1,0-0.1-0.1c0-0.1,0-0.1,0.1-0.1C5.5,9.9,5.5,9.9,5.5,10L5.5,10z"/>
			<path class="st2" d="M11.1,6.1c0.1,0,0.1,0.1,0.1,0.1c0,0.1-0.1,0.1-0.1,0.1C11,6.3,11,6.3,11,6.2C11,6.1,11,6.1,11.1,6.1
				L11.1,6.1z"/>
			<path class="st2" d="M8.5,8.2c-0.1,0-0.1-0.1-0.1-0.1c0-0.1,0.1-0.1,0.1-0.1c0.1,0,0.1,0.1,0.1,0.1C8.6,8.2,8.6,8.2,8.5,8.2
				L8.5,8.2z"/>
			<path class="st2" d="M11.7,5.5c0,0.1-0.1,0.1-0.1,0.1c-0.1,0-0.1-0.1-0.1-0.1c0-0.1,0.1-0.1,0.1-0.1C11.6,5.3,11.7,5.4,11.7,5.5
				L11.7,5.5z"/>
			<path class="st2" d="M5.3,9.5c-0.1,0-0.1-0.1-0.1-0.1c0-0.1,0.1-0.1,0.1-0.1c0.1,0,0.1,0.1,0.1,0.1C5.4,9.5,5.4,9.5,5.3,9.5
				L5.3,9.5z"/>
			<path class="st2" d="M11,7.3c-0.1,0-0.1,0-0.2-0.1c0-0.1,0-0.1,0.1-0.1c0.1,0,0.1,0,0.1,0.1C11.1,7.3,11.1,7.3,11,7.3L11,7.3z"/>
			<path class="st2" d="M8.3,8.5c0,0.1-0.1,0.1-0.1,0.1c-0.1,0-0.1-0.1-0.1-0.1s0-0.1,0.1-0.1C8.3,8.4,8.3,8.5,8.3,8.5L8.3,8.5z"/>
			<path class="st2" d="M6.3,8.2c0,0.1-0.1,0.1-0.1,0.1C6,8.4,6,8.3,6,8.2c0-0.1,0.1-0.1,0.1-0.1C6.2,8.1,6.3,8.2,6.3,8.2L6.3,8.2z"
				/>
		</g>
	</g>
</g>
</svg>
